SplineFontDB: 3.2
FontName: Ghadim
FullName: Ghadim
FamilyName: Ghadim
Weight: 
Copyright: Copyright (c) 2020 by Mahdi Ravandi & Mojtaba Zand. All Rights Reserved.\nBased on DejaVu font.\nNon-Arabic(Latin) glyphs and data are imported from Open Sans font under the Apache License, Version 2.0.
Version: 1.0.0
ItalicAngle: 0
UnderlinePosition: -700
UnderlineWidth: 100
Ascent: 1638
Descent: 410
InvalidEm: 0
sfntRevision: 0x00034ccc
LayerCount: 2
Layer: 0 1 "Back" 1
Layer: 1 1 "Fore" 0
XUID: [1021 598 488180386 11462]
StyleMap: 0x0020
FSType: 0
OS2Version: 4
OS2_WeightWidthSlopeOnly: 0
OS2_UseTypoMetrics: 1
CreationTime: 1431850356
ModificationTime: 1772195055
PfmFamily: 17
TTFWeight: 700
TTFWidth: 5
LineGap: 0
VLineGap: 0
Panose: 2 11 6 3 3 8 4 2 2 4
OS2TypoAscent: 2200
OS2TypoAOffset: 0
OS2TypoDescent: -1000
OS2TypoDOffset: 0
OS2TypoLinegap: 0
OS2WinAscent: 2200
OS2WinAOffset: 0
OS2WinDescent: 1000
OS2WinDOffset: 0
HheadAscent: 2200
HheadAOffset: 0
HheadDescent: -1000
HheadDOffset: 0
OS2SubXSize: 1331
OS2SubYSize: 1433
OS2SubXOff: 0
OS2SubYOff: 286
OS2SupXSize: 1331
OS2SupYSize: 1433
OS2SupXOff: 0
OS2SupYOff: 983
OS2StrikeYSize: 102
OS2StrikeYPos: 530
OS2CapHeight: 1638
OS2XHeight: 1082
OS2Vendor: '    '
OS2CodePages: 00000041.20080000
OS2UnicodeRanges: 80002003.80000000.00000008.00000000
Lookup: 1 9 0 "Single Substitution lookup 0" { "Single Substitution lookup 0 subtable"  } []
Lookup: 1 9 0 "'fina' Terminal Forms in Arabic lookup 1" { "'fina' Terminal Forms in Arabic lookup 1 subtable"  } ['fina' ('DFLT' <'dflt' > 'arab' <'FAR ' 'KUR ' 'URD ' 'dflt' > ) ]
Lookup: 1 9 0 "'medi' Medial Forms in Arabic lookup 2" { "'medi' Medial Forms in Arabic lookup 2 subtable"  } ['medi' ('DFLT' <'dflt' > 'arab' <'FAR ' 'KUR ' 'URD ' 'dflt' > ) ]
Lookup: 1 9 0 "'init' Initial Forms in Arabic lookup 3" { "'init' Initial Forms in Arabic lookup 3 subtable"  } ['init' ('DFLT' <'dflt' > 'arab' <'FAR ' 'KUR ' 'URD ' 'dflt' > ) ]

StartChar: .notdef
Encoding: 65536 -1 0
Width: 1229
GlyphClass: 2
Flags: W
LayerCount: 2
Fore
SplineSet
193 1462 m 1,0,-1
 1034 1462 l 1,1,-1
 1034 0 l 1,2,-1
 193 0 l 1,3,-1
 193 1462 l 1,0,-1
297 104 m 1,4,-1
 930 104 l 1,5,-1
 930 1358 l 1,6,-1
 297 1358 l 1,7,-1
 297 104 l 1,4,-1
EndSplineSet
EndChar

StartChar: exclam
Encoding: 33 33 4
Width: 588
GlyphClass: 2
Flags: W
LayerCount: 2
Fore
SplineSet
388 632 m 2,0,1
 384 592 384 592 374.5 575 c 128,-1,2
 365 558 365 558 341 558 c 2,3,-1
 255 558 l 2,4,5
 230 558 230 558 219 575.5 c 128,-1,6
 208 593 208 593 204 633 c 2,7,-1
 124 1287 l 2,8,9
 121 1308 121 1308 121 1328 c 0,10,11
 121 1486 121 1486 284 1486 c 2,12,-1
 313 1486 l 2,13,14
 461 1486 461 1486 461 1326 c 0,15,16
 461 1301 461 1301 460 1287 c 2,17,-1
 388 632 l 2,0,1
295 1 m 0,18,19
 217 1 217 1 162 56 c 128,-1,20
 107 111 107 111 107 189 c 0,21,22
 107 266 107 266 162 321 c 128,-1,23
 217 376 217 376 295 376 c 0,24,25
 372 376 372 376 427 321 c 128,-1,26
 482 266 482 266 482 189 c 0,27,28
 482 111 482 111 427 56 c 128,-1,29
 372 1 372 1 295 1 c 0,18,19
EndSplineSet
EndChar

StartChar: quotedbl
Encoding: 34 34 5
Width: 967
GlyphClass: 2
Flags: W
LayerCount: 2
Fore
SplineSet
412 1462 m 1,0,-1
 371 934 l 1,1,-1
 174 934 l 1,2,-1
 133 1462 l 1,3,-1
 412 1462 l 1,0,-1
834 1462 m 1,4,-1
 793 934 l 1,5,-1
 596 934 l 1,6,-1
 555 1462 l 1,7,-1
 834 1462 l 1,4,-1
EndSplineSet
EndChar

StartChar: numbersign
Encoding: 35 35 6
Width: 1323
GlyphClass: 2
Flags: W
LayerCount: 2
Fore
SplineSet
999 844 m 1,0,-1
 952 612 l 1,1,-1
 1210 612 l 1,2,-1
 1210 406 l 1,3,-1
 913 406 l 1,4,-1
 836 0 l 1,5,-1
 616 0 l 1,6,-1
 694 406 l 1,7,-1
 500 406 l 1,8,-1
 424 0 l 1,9,-1
 209 0 l 1,10,-1
 283 406 l 1,11,-1
 45 406 l 1,12,-1
 45 612 l 1,13,-1
 322 612 l 1,14,-1
 369 844 l 1,15,-1
 117 844 l 1,16,-1
 117 1053 l 1,17,-1
 406 1053 l 1,18,-1
 483 1460 l 1,19,-1
 702 1460 l 1,20,-1
 625 1053 l 1,21,-1
 823 1053 l 1,22,-1
 901 1460 l 1,23,-1
 1116 1460 l 1,24,-1
 1038 1053 l 1,25,-1
 1278 1053 l 1,26,-1
 1278 844 l 1,27,-1
 999 844 l 1,0,-1
539 612 m 1,28,-1
 735 612 l 1,29,-1
 782 844 l 1,30,-1
 586 844 l 1,31,-1
 539 612 l 1,28,-1
EndSplineSet
EndChar

StartChar: dollar
Encoding: 36 36 7
Width: 1169
GlyphClass: 2
Flags: W
LayerCount: 2
Fore
SplineSet
1092 457 m 0,0,1
 1092 298 1092 298 977 201.5 c 128,-1,2
 862 105 862 105 655 86 c 1,3,-1
 655 -119 l 1,4,-1
 518 -119 l 1,5,-1
 518 82 l 1,6,7
 274 87 274 87 90 168 c 1,8,-1
 90 432 l 1,9,10
 177 389 177 389 299.5 356 c 128,-1,11
 422 323 422 323 518 317 c 1,12,-1
 518 627 l 1,13,-1
 451 653 l 2,14,15
 253 731 253 731 170.5 822.5 c 128,-1,16
 88 914 88 914 88 1049 c 0,17,18
 88 1194 88 1194 201.5 1287.5 c 128,-1,19
 315 1381 315 1381 518 1401 c 1,20,-1
 518 1554 l 1,21,-1
 655 1554 l 1,22,-1
 655 1405 l 1,23,24
 884 1395 884 1395 1069 1313 c 1,25,-1
 975 1079 l 1,26,27
 819 1143 819 1143 655 1157 c 1,28,-1
 655 862 l 1,29,30
 850 787 850 787 932.5 732 c 128,-1,31
 1015 677 1015 677 1053.5 611 c 128,-1,32
 1092 545 1092 545 1092 457 c 0,0,1
791 442 m 0,33,34
 791 484 791 484 757 513 c 128,-1,35
 723 542 723 542 655 573 c 1,36,-1
 655 324 l 1,37,38
 791 347 791 347 791 442 c 0,33,34
389 1049 m 0,39,40
 389 1005 389 1005 419.5 976.5 c 128,-1,41
 450 948 450 948 518 918 c 1,42,-1
 518 1153 l 1,43,44
 389 1134 389 1134 389 1049 c 0,39,40
EndSplineSet
EndChar

StartChar: percent
Encoding: 37 37 8
Width: 1845
GlyphClass: 2
Flags: W
LayerCount: 2
Fore
SplineSet
315 1024 m 256,0,1
 315 897 315 897 337.5 834.5 c 128,-1,2
 360 772 360 772 410 772 c 0,3,4
 506 772 506 772 506 1024 c 0,5,6
 506 1274 506 1274 410 1274 c 0,7,8
 360 1274 360 1274 337.5 1212.5 c 128,-1,9
 315 1151 315 1151 315 1024 c 256,0,1
758 1026 m 0,10,11
 758 796 758 796 669 680.5 c 128,-1,12
 580 565 580 565 408 565 c 0,13,14
 243 565 243 565 153 683.5 c 128,-1,15
 63 802 63 802 63 1026 c 0,16,17
 63 1483 63 1483 408 1483 c 0,18,19
 577 1483 577 1483 667.5 1364.5 c 128,-1,20
 758 1246 758 1246 758 1026 c 0,10,11
1446 1462 m 1,21,-1
 635 0 l 1,22,-1
 395 0 l 1,23,-1
 1206 1462 l 1,24,-1
 1446 1462 l 1,21,-1
1339 440 m 256,25,26
 1339 313 1339 313 1361.5 250.5 c 128,-1,27
 1384 188 1384 188 1434 188 c 0,28,29
 1530 188 1530 188 1530 440 c 0,30,31
 1530 690 1530 690 1434 690 c 0,32,33
 1384 690 1384 690 1361.5 628.5 c 128,-1,34
 1339 567 1339 567 1339 440 c 256,25,26
1782 442 m 0,35,36
 1782 213 1782 213 1693 97.5 c 128,-1,37
 1604 -18 1604 -18 1432 -18 c 0,38,39
 1267 -18 1267 -18 1177 100.5 c 128,-1,40
 1087 219 1087 219 1087 442 c 0,41,42
 1087 899 1087 899 1432 899 c 0,43,44
 1601 899 1601 899 1691.5 780.5 c 128,-1,45
 1782 662 1782 662 1782 442 c 0,35,36
EndSplineSet
EndChar

StartChar: ampersand
Encoding: 38 38 9
Width: 1536
GlyphClass: 2
Flags: W
LayerCount: 2
Fore
SplineSet
1536 0 m 1,0,-1
 1159 0 l 1,1,-1
 1044 113 l 1,2,3
 853 -20 853 -20 612 -20 c 0,4,5
 368 -20 368 -20 225 92 c 128,-1,6
 82 204 82 204 82 395 c 0,7,8
 82 532 82 532 142.5 628.5 c 128,-1,9
 203 725 203 725 350 809 c 1,10,11
 275 895 275 895 241 973.5 c 128,-1,12
 207 1052 207 1052 207 1145 c 0,13,14
 207 1297 207 1297 323.5 1390 c 128,-1,15
 440 1483 440 1483 635 1483 c 0,16,17
 821 1483 821 1483 932.5 1396.5 c 128,-1,18
 1044 1310 1044 1310 1044 1165 c 0,19,20
 1044 1046 1044 1046 975 947.5 c 128,-1,21
 906 849 906 849 752 760 c 1,22,-1
 1036 483 l 1,23,24
 1107 600 1107 600 1159 784 c 1,25,-1
 1477 784 l 1,26,27
 1441 649 1441 649 1378 520.5 c 128,-1,28
 1315 392 1315 392 1235 293 c 1,29,-1
 1536 0 l 1,0,-1
403 424 m 0,30,31
 403 338 403 338 467.5 287 c 128,-1,32
 532 236 532 236 633 236 c 0,33,34
 759 236 759 236 860 297 c 1,35,-1
 528 627 l 1,36,37
 470 583 470 583 436.5 535 c 128,-1,38
 403 487 403 487 403 424 c 0,30,31
762 1133 m 0,39,40
 762 1186 762 1186 726 1216.5 c 128,-1,41
 690 1247 690 1247 633 1247 c 0,42,43
 566 1247 566 1247 527.5 1215 c 128,-1,44
 489 1183 489 1183 489 1124 c 0,45,46
 489 1036 489 1036 584 930 c 1,47,48
 670 978 670 978 716 1024.5 c 128,-1,49
 762 1071 762 1071 762 1133 c 0,39,40
EndSplineSet
EndChar

StartChar: quotesingle
Encoding: 39 39 10
Width: 545
GlyphClass: 2
Flags: W
LayerCount: 2
Fore
SplineSet
412 1462 m 1,0,-1
 371 934 l 1,1,-1
 174 934 l 1,2,-1
 133 1462 l 1,3,-1
 412 1462 l 1,0,-1
EndSplineSet
EndChar

StartChar: parenleft
Encoding: 40 40 11
Width: 694
GlyphClass: 2
Flags: W
LayerCount: 2
Fore
SplineSet
82 561 m 0,0,1
 82 826 82 826 159.5 1057 c 128,-1,2
 237 1288 237 1288 383 1462 c 1,3,-1
 633 1462 l 1,4,5
 492 1269 492 1269 420 1038 c 128,-1,6
 348 807 348 807 348 563 c 0,7,8
 348 318 348 318 421.5 89.5 c 128,-1,9
 495 -139 495 -139 631 -324 c 1,10,-1
 383 -324 l 1,11,12
 236 -154 236 -154 159 73 c 128,-1,13
 82 300 82 300 82 561 c 0,0,1
EndSplineSet
EndChar

StartChar: parenright
Encoding: 41 41 12
Width: 694
GlyphClass: 2
Flags: W
LayerCount: 2
Fore
SplineSet
612 561 m 256,0,1
 612 298 612 298 534.5 71 c 128,-1,2
 457 -156 457 -156 311 -324 c 1,3,-1
 63 -324 l 1,4,5
 198 -140 198 -140 272 88.5 c 128,-1,6
 346 317 346 317 346 563 c 0,7,8
 346 807 346 807 274 1038 c 128,-1,9
 202 1269 202 1269 61 1462 c 1,10,-1
 311 1462 l 1,11,12
 458 1287 458 1287 535 1055.5 c 128,-1,13
 612 824 612 824 612 561 c 256,0,1
EndSplineSet
EndChar

StartChar: asterisk
Encoding: 42 42 13
Width: 1116
GlyphClass: 2
Flags: W
LayerCount: 2
Fore
SplineSet
688 1556 m 1,0,-1
 647 1188 l 1,1,-1
 1020 1292 l 1,2,-1
 1053 1040 l 1,3,-1
 713 1016 l 1,4,-1
 936 719 l 1,5,-1
 709 598 l 1,6,-1
 553 911 l 1,7,-1
 416 600 l 1,8,-1
 180 719 l 1,9,-1
 401 1016 l 1,10,-1
 63 1042 l 1,11,-1
 102 1292 l 1,12,-1
 467 1188 l 1,13,-1
 426 1556 l 1,14,-1
 688 1556 l 1,0,-1
EndSplineSet
EndChar

StartChar: plus
Encoding: 43 43 14
Width: 1169
GlyphClass: 2
Flags: W
LayerCount: 2
Fore
SplineSet
475 612 m 1,0,-1
 88 612 l 1,1,-1
 88 831 l 1,2,-1
 475 831 l 1,3,-1
 475 1221 l 1,4,-1
 694 1221 l 1,5,-1
 694 831 l 1,6,-1
 1081 831 l 1,7,-1
 1081 612 l 1,8,-1
 694 612 l 1,9,-1
 694 227 l 1,10,-1
 475 227 l 1,11,-1
 475 612 l 1,0,-1
EndSplineSet
EndChar

StartChar: comma
Encoding: 44 44 15
Width: 594
GlyphClass: 2
Flags: W
LayerCount: 2
Fore
SplineSet
459 215 m 1,0,1
 407 13 407 13 283 -264 c 1,2,-1
 63 -264 l 1,3,4
 128 2 128 2 164 238 c 1,5,-1
 444 238 l 1,6,-1
 459 215 l 1,0,1
EndSplineSet
EndChar

StartChar: hyphen
Encoding: 45 45 16
Width: 659
GlyphClass: 2
Flags: W
LayerCount: 2
Fore
SplineSet
61 424 m 1,0,-1
 61 674 l 1,1,-1
 598 674 l 1,2,-1
 598 424 l 1,3,-1
 61 424 l 1,0,-1
EndSplineSet
EndChar

StartChar: period
Encoding: 46 46 17
Width: 588
GlyphClass: 2
Flags: W
LayerCount: 2
Fore
SplineSet
294 1 m 256,0,1
 216 1 216 1 161 56 c 128,-1,2
 106 111 106 111 106 189 c 0,3,4
 106 266 106 266 161 321 c 128,-1,5
 216 376 216 376 294 376 c 128,-1,6
 372 376 372 376 427 321 c 128,-1,7
 482 266 482 266 482 189 c 0,8,9
 482 111 482 111 427 56 c 128,-1,10
 372 1 372 1 294 1 c 256,0,1
EndSplineSet
EndChar

StartChar: slash
Encoding: 47 47 18
Width: 846
GlyphClass: 2
Flags: W
LayerCount: 2
Fore
SplineSet
836 1462 m 1,0,-1
 291 0 l 1,1,-1
 14 0 l 1,2,-1
 559 1462 l 1,3,-1
 836 1462 l 1,0,-1
EndSplineSet
EndChar

StartChar: colon
Encoding: 58 58 29
Width: 588
GlyphClass: 2
Flags: W
LayerCount: 2
Fore
SplineSet
294 596 m 256,0,1
 243 596 243 596 200 621 c 128,-1,2
 157 646 157 646 132 689.5 c 128,-1,3
 107 733 107 733 107 784 c 0,4,5
 107 861 107 861 162 916 c 128,-1,6
 217 971 217 971 294.5 971 c 128,-1,7
 372 971 372 971 427 916 c 128,-1,8
 482 861 482 861 482 784 c 0,9,10
 482 733 482 733 457 689.5 c 128,-1,11
 432 646 432 646 388.5 621 c 128,-1,12
 345 596 345 596 294 596 c 256,0,1
294 1 m 256,13,14
 216 1 216 1 161.5 56 c 128,-1,15
 107 111 107 111 107 189 c 0,16,17
 107 266 107 266 162 321 c 128,-1,18
 217 376 217 376 294.5 376 c 128,-1,19
 372 376 372 376 427 321 c 128,-1,20
 482 266 482 266 482 189 c 0,21,22
 482 111 482 111 427 56 c 128,-1,23
 372 1 372 1 294 1 c 256,13,14
EndSplineSet
EndChar

StartChar: semicolon
Encoding: 59 59 30
Width: 594
GlyphClass: 2
Flags: W
LayerCount: 2
Fore
SplineSet
444 238 m 1,0,-1
 459 215 l 1,1,2
 407 13 407 13 283 -264 c 1,3,-1
 63 -264 l 1,4,5
 128 2 128 2 164 238 c 1,6,-1
 444 238 l 1,0,-1
117 969 m 0,7,8
 117 1053 117 1053 162 1096 c 128,-1,9
 207 1139 207 1139 293 1139 c 0,10,11
 376 1139 376 1139 421.5 1095 c 128,-1,12
 467 1051 467 1051 467 969 c 0,13,14
 467 888 467 888 420.5 843.5 c 128,-1,15
 374 799 374 799 293 799 c 0,16,17
 209 799 209 799 163 843 c 128,-1,18
 117 887 117 887 117 969 c 0,7,8
EndSplineSet
EndChar

StartChar: less
Encoding: 60 60 31
Width: 1169
GlyphClass: 2
Flags: W
LayerCount: 2
Fore
SplineSet
1081 203 m 1,0,-1
 88 641 l 1,1,-1
 88 784 l 1,2,-1
 1081 1280 l 1,3,-1
 1081 1040 l 1,4,-1
 397 723 l 1,5,-1
 1081 442 l 1,6,-1
 1081 203 l 1,0,-1
EndSplineSet
EndChar

StartChar: equal
Encoding: 61 61 32
Width: 1169
GlyphClass: 2
Flags: W
LayerCount: 2
Fore
SplineSet
88 805 m 1,0,-1
 88 1024 l 1,1,-1
 1081 1024 l 1,2,-1
 1081 805 l 1,3,-1
 88 805 l 1,0,-1
88 418 m 1,4,-1
 88 637 l 1,5,-1
 1081 637 l 1,6,-1
 1081 418 l 1,7,-1
 88 418 l 1,4,-1
EndSplineSet
EndChar

StartChar: greater
Encoding: 62 62 33
Width: 1169
GlyphClass: 2
Flags: W
LayerCount: 2
Fore
SplineSet
88 442 m 1,0,-1
 772 723 l 1,1,-1
 88 1040 l 1,2,-1
 88 1280 l 1,3,-1
 1081 784 l 1,4,-1
 1081 641 l 1,5,-1
 88 203 l 1,6,-1
 88 442 l 1,0,-1
EndSplineSet
EndChar

StartChar: question
Encoding: 63 63 34
Width: 977
GlyphClass: 2
Flags: W
LayerCount: 2
Fore
SplineSet
276 485 m 1,0,-1
 276 559 l 2,1,2
 276 655 276 655 317 726 c 128,-1,3
 358 797 358 797 467 877 c 0,4,5
 572 952 572 952 605.5 999 c 128,-1,6
 639 1046 639 1046 639 1104 c 0,7,8
 639 1169 639 1169 591 1203 c 128,-1,9
 543 1237 543 1237 457 1237 c 0,10,11
 307 1237 307 1237 115 1139 c 1,12,-1
 6 1358 l 1,13,14
 229 1483 229 1483 479 1483 c 0,15,16
 685 1483 685 1483 806.5 1384 c 128,-1,17
 928 1285 928 1285 928 1120 c 0,18,19
 928 1010 928 1010 878 930 c 128,-1,20
 828 850 828 850 688 750 c 0,21,22
 592 679 592 679 566.5 642 c 128,-1,23
 541 605 541 605 541 545 c 2,24,-1
 541 485 l 1,25,-1
 276 485 l 1,0,-1
244 143 m 0,26,27
 244 227 244 227 289 270 c 128,-1,28
 334 313 334 313 420 313 c 0,29,30
 503 313 503 313 548.5 269 c 128,-1,31
 594 225 594 225 594 143 c 0,32,33
 594 64 594 64 548 18.5 c 128,-1,34
 502 -27 502 -27 420 -27 c 0,35,36
 336 -27 336 -27 290 17.5 c 128,-1,37
 244 62 244 62 244 143 c 0,26,27
EndSplineSet
EndChar

StartChar: at
Encoding: 64 64 35
Width: 1837
GlyphClass: 2
Flags: W
LayerCount: 2
Fore
SplineSet
1735 752 m 0,0,1
 1735 608 1735 608 1689 488.5 c 128,-1,2
 1643 369 1643 369 1559 301 c 128,-1,3
 1475 233 1475 233 1364 233 c 0,4,5
 1290 233 1290 233 1233 268.5 c 128,-1,6
 1176 304 1176 304 1151 362 c 1,7,-1
 1135 362 l 1,8,9
 1027 233 1027 233 860 233 c 0,10,11
 683 233 683 233 581 339.5 c 128,-1,12
 479 446 479 446 479 631 c 0,13,14
 479 842 479 842 613 971 c 128,-1,15
 747 1100 747 1100 963 1100 c 0,16,17
 1049 1100 1049 1100 1152.5 1083.5 c 128,-1,18
 1256 1067 1256 1067 1323 1044 c 1,19,-1
 1300 555 l 1,20,21
 1300 416 1300 416 1376 416 c 0,22,23
 1440 416 1440 416 1478 509.5 c 128,-1,24
 1516 603 1516 603 1516 754 c 0,25,26
 1516 915 1516 915 1449 1038.5 c 128,-1,27
 1382 1162 1382 1162 1260.5 1227 c 128,-1,28
 1139 1292 1139 1292 983 1292 c 0,29,30
 781 1292 781 1292 632 1209 c 128,-1,31
 483 1126 483 1126 403.5 969.5 c 128,-1,32
 324 813 324 813 324 608 c 0,33,34
 324 332 324 332 471.5 184.5 c 128,-1,35
 619 37 619 37 899 37 c 0,36,37
 1005 37 1005 37 1132 60.5 c 128,-1,38
 1259 84 1259 84 1382 129 c 1,39,-1
 1382 -63 l 1,40,41
 1168 -154 1168 -154 907 -154 c 0,42,43
 527 -154 527 -154 314.5 46 c 128,-1,44
 102 246 102 246 102 602 c 0,45,46
 102 849 102 849 210.5 1050.5 c 128,-1,47
 319 1252 319 1252 519.5 1366.5 c 128,-1,48
 720 1481 720 1481 981 1481 c 0,49,50
 1201 1481 1201 1481 1374 1391 c 128,-1,51
 1547 1301 1547 1301 1641 1135 c 128,-1,52
 1735 969 1735 969 1735 752 c 0,0,1
711 627 m 0,53,54
 711 416 711 416 883 416 c 0,55,56
 973 416 973 416 1020 479.5 c 128,-1,57
 1067 543 1067 543 1077 686 c 2,58,-1
 1090 907 l 1,59,60
 1039 918 1039 918 975 918 c 0,61,62
 850 918 850 918 780.5 840 c 128,-1,63
 711 762 711 762 711 627 c 0,53,54
EndSplineSet
EndChar

StartChar: A
Encoding: 65 65 36
Width: 1413
GlyphClass: 2
Flags: W
LayerCount: 2
Fore
SplineSet
1079 0 m 1,0,-1
 973 348 l 1,1,-1
 440 348 l 1,2,-1
 334 0 l 1,3,-1
 0 0 l 1,4,-1
 516 1468 l 1,5,-1
 895 1468 l 1,6,-1
 1413 0 l 1,7,-1
 1079 0 l 1,0,-1
899 608 m 1,8,9
 752 1081 752 1081 733.5 1143 c 128,-1,10
 715 1205 715 1205 707 1241 c 1,11,12
 674 1113 674 1113 518 608 c 1,13,-1
 899 608 l 1,8,9
EndSplineSet
EndChar

StartChar: B
Encoding: 66 66 37
Width: 1376
GlyphClass: 2
Flags: W
LayerCount: 2
Fore
SplineSet
184 1462 m 1,0,-1
 639 1462 l 2,1,2
 950 1462 950 1462 1090.5 1373.5 c 128,-1,3
 1231 1285 1231 1285 1231 1092 c 0,4,5
 1231 961 1231 961 1169.5 877 c 128,-1,6
 1108 793 1108 793 1006 776 c 1,7,-1
 1006 766 l 1,8,9
 1145 735 1145 735 1206.5 650 c 128,-1,10
 1268 565 1268 565 1268 424 c 0,11,12
 1268 224 1268 224 1123.5 112 c 128,-1,13
 979 0 979 0 731 0 c 2,14,-1
 184 0 l 1,15,-1
 184 1462 l 1,0,-1
494 883 m 1,16,-1
 674 883 l 2,17,18
 800 883 800 883 856.5 922 c 128,-1,19
 913 961 913 961 913 1051 c 0,20,21
 913 1135 913 1135 851.5 1171.5 c 128,-1,22
 790 1208 790 1208 657 1208 c 2,23,-1
 494 1208 l 1,24,-1
 494 883 l 1,16,-1
494 637 m 1,25,-1
 494 256 l 1,26,-1
 696 256 l 2,27,28
 824 256 824 256 885 305 c 128,-1,29
 946 354 946 354 946 455 c 0,30,31
 946 637 946 637 686 637 c 2,32,-1
 494 637 l 1,25,-1
EndSplineSet
EndChar

StartChar: C
Encoding: 67 67 38
Width: 1305
GlyphClass: 2
Flags: W
LayerCount: 2
Fore
SplineSet
805 1225 m 0,0,1
 630 1225 630 1225 534 1093.5 c 128,-1,2
 438 962 438 962 438 727 c 0,3,4
 438 238 438 238 805 238 c 0,5,6
 959 238 959 238 1178 315 c 1,7,-1
 1178 55 l 1,8,9
 998 -20 998 -20 776 -20 c 0,10,11
 457 -20 457 -20 288 173.5 c 128,-1,12
 119 367 119 367 119 729 c 0,13,14
 119 957 119 957 202 1128.5 c 128,-1,15
 285 1300 285 1300 440.5 1391.5 c 128,-1,16
 596 1483 596 1483 805 1483 c 0,17,18
 1018 1483 1018 1483 1233 1380 c 1,19,-1
 1133 1128 l 1,20,21
 1051 1167 1051 1167 968 1196 c 128,-1,22
 885 1225 885 1225 805 1225 c 0,0,1
EndSplineSet
EndChar

StartChar: D
Encoding: 68 68 39
Width: 1516
GlyphClass: 2
Flags: W
LayerCount: 2
Fore
SplineSet
1397 745 m 0,0,1
 1397 384 1397 384 1191.5 192 c 128,-1,2
 986 0 986 0 598 0 c 2,3,-1
 184 0 l 1,4,-1
 184 1462 l 1,5,-1
 643 1462 l 2,6,7
 1001 1462 1001 1462 1199 1273 c 128,-1,8
 1397 1084 1397 1084 1397 745 c 0,0,1
1075 737 m 0,9,10
 1075 1208 1075 1208 659 1208 c 2,11,-1
 494 1208 l 1,12,-1
 494 256 l 1,13,-1
 627 256 l 2,14,15
 1075 256 1075 256 1075 737 c 0,9,10
EndSplineSet
EndChar

StartChar: E
Encoding: 69 69 40
Width: 1147
GlyphClass: 2
Flags: W
LayerCount: 2
Fore
SplineSet
1026 0 m 1,0,-1
 184 0 l 1,1,-1
 184 1462 l 1,2,-1
 1026 1462 l 1,3,-1
 1026 1208 l 1,4,-1
 494 1208 l 1,5,-1
 494 887 l 1,6,-1
 989 887 l 1,7,-1
 989 633 l 1,8,-1
 494 633 l 1,9,-1
 494 256 l 1,10,-1
 1026 256 l 1,11,-1
 1026 0 l 1,0,-1
EndSplineSet
EndChar

StartChar: F
Encoding: 70 70 41
Width: 1124
GlyphClass: 2
Flags: W
LayerCount: 2
Fore
SplineSet
489 0 m 1,0,-1
 184 0 l 1,1,-1
 184 1462 l 1,2,-1
 1022 1462 l 1,3,-1
 1022 1208 l 1,4,-1
 489 1208 l 1,5,-1
 489 831 l 1,6,-1
 985 831 l 1,7,-1
 985 578 l 1,8,-1
 489 578 l 1,9,-1
 489 0 l 1,0,-1
EndSplineSet
EndChar

StartChar: G
Encoding: 71 71 42
Width: 1483
GlyphClass: 2
Flags: W
LayerCount: 2
Fore
SplineSet
739 821 m 1,0,-1
 1319 821 l 1,1,-1
 1319 63 l 1,2,3
 1178 17 1178 17 1053.5 -1.5 c 128,-1,4
 929 -20 929 -20 799 -20 c 0,5,6
 468 -20 468 -20 293.5 174.5 c 128,-1,7
 119 369 119 369 119 733 c 0,8,9
 119 1087 119 1087 321.5 1285 c 128,-1,10
 524 1483 524 1483 883 1483 c 0,11,12
 1108 1483 1108 1483 1317 1393 c 1,13,-1
 1214 1145 l 1,14,15
 1054 1225 1054 1225 881 1225 c 0,16,17
 680 1225 680 1225 559 1090 c 128,-1,18
 438 955 438 955 438 727 c 0,19,20
 438 489 438 489 535.5 363.5 c 128,-1,21
 633 238 633 238 819 238 c 0,22,23
 916 238 916 238 1016 258 c 1,24,-1
 1016 563 l 1,25,-1
 739 563 l 1,26,-1
 739 821 l 1,0,-1
EndSplineSet
EndChar

StartChar: H
Encoding: 72 72 43
Width: 1567
GlyphClass: 2
Flags: W
LayerCount: 2
Fore
SplineSet
1382 0 m 1,0,-1
 1073 0 l 1,1,-1
 1073 631 l 1,2,-1
 494 631 l 1,3,-1
 494 0 l 1,4,-1
 184 0 l 1,5,-1
 184 1462 l 1,6,-1
 494 1462 l 1,7,-1
 494 889 l 1,8,-1
 1073 889 l 1,9,-1
 1073 1462 l 1,10,-1
 1382 1462 l 1,11,-1
 1382 0 l 1,0,-1
EndSplineSet
EndChar

StartChar: I
Encoding: 73 73 44
Width: 678
GlyphClass: 2
Flags: W
LayerCount: 2
Fore
SplineSet
184 0 m 1,0,-1
 184 1462 l 1,1,-1
 494 1462 l 1,2,-1
 494 0 l 1,3,-1
 184 0 l 1,0,-1
EndSplineSet
EndChar

StartChar: J
Encoding: 74 74 45
Width: 678
GlyphClass: 2
Flags: W
LayerCount: 2
Fore
SplineSet
31 -430 m 0,0,1
 -74 -430 -74 -430 -152 -408 c 1,2,-1
 -152 -150 l 1,3,4
 -72 -170 -72 -170 -6 -170 c 0,5,6
 96 -170 96 -170 140 -106.5 c 128,-1,7
 184 -43 184 -43 184 92 c 2,8,-1
 184 1462 l 1,9,-1
 494 1462 l 1,10,-1
 494 94 l 2,11,12
 494 -162 494 -162 377 -296 c 128,-1,13
 260 -430 260 -430 31 -430 c 0,0,1
EndSplineSet
EndChar

StartChar: K
Encoding: 75 75 46
Width: 1360
GlyphClass: 2
Flags: W
LayerCount: 2
Fore
SplineSet
1360 0 m 1,0,-1
 1008 0 l 1,1,-1
 625 616 l 1,2,-1
 494 522 l 1,3,-1
 494 0 l 1,4,-1
 184 0 l 1,5,-1
 184 1462 l 1,6,-1
 494 1462 l 1,7,-1
 494 793 l 1,8,-1
 616 965 l 1,9,-1
 1012 1462 l 1,10,-1
 1356 1462 l 1,11,-1
 846 815 l 1,12,-1
 1360 0 l 1,0,-1
EndSplineSet
EndChar

StartChar: L
Encoding: 76 76 47
Width: 1157
GlyphClass: 2
Flags: W
LayerCount: 2
Fore
SplineSet
184 0 m 1,0,-1
 184 1462 l 1,1,-1
 494 1462 l 1,2,-1
 494 256 l 1,3,-1
 1087 256 l 1,4,-1
 1087 0 l 1,5,-1
 184 0 l 1,0,-1
EndSplineSet
EndChar

StartChar: M
Encoding: 77 77 48
Width: 1931
GlyphClass: 2
Flags: W
LayerCount: 2
Fore
SplineSet
803 0 m 1,0,-1
 451 1147 l 1,1,-1
 442 1147 l 1,2,3
 461 797 461 797 461 680 c 2,4,-1
 461 0 l 1,5,-1
 184 0 l 1,6,-1
 184 1462 l 1,7,-1
 606 1462 l 1,8,-1
 952 344 l 1,9,-1
 958 344 l 1,10,-1
 1325 1462 l 1,11,-1
 1747 1462 l 1,12,-1
 1747 0 l 1,13,-1
 1458 0 l 1,14,-1
 1458 692 l 2,15,16
 1458 741 1458 741 1459.5 805 c 128,-1,17
 1461 869 1461 869 1473 1145 c 1,18,-1
 1464 1145 l 1,19,-1
 1087 0 l 1,20,-1
 803 0 l 1,0,-1
EndSplineSet
EndChar

StartChar: N
Encoding: 78 78 49
Width: 1665
GlyphClass: 2
Flags: W
LayerCount: 2
Fore
SplineSet
1481 0 m 1,0,-1
 1087 0 l 1,1,-1
 451 1106 l 1,2,-1
 442 1106 l 1,3,4
 461 813 461 813 461 688 c 2,5,-1
 461 0 l 1,6,-1
 184 0 l 1,7,-1
 184 1462 l 1,8,-1
 575 1462 l 1,9,-1
 1210 367 l 1,10,-1
 1217 367 l 1,11,12
 1202 652 1202 652 1202 770 c 2,13,-1
 1202 1462 l 1,14,-1
 1481 1462 l 1,15,-1
 1481 0 l 1,0,-1
EndSplineSet
EndChar

StartChar: O
Encoding: 79 79 50
Width: 1630
GlyphClass: 2
Flags: W
LayerCount: 2
Fore
SplineSet
1511 733 m 0,0,1
 1511 370 1511 370 1331 175 c 128,-1,2
 1151 -20 1151 -20 815 -20 c 256,3,4
 479 -20 479 -20 299 175 c 128,-1,5
 119 370 119 370 119 735 c 256,6,7
 119 1100 119 1100 299.5 1292.5 c 128,-1,8
 480 1485 480 1485 817 1485 c 256,9,10
 1154 1485 1154 1485 1332.5 1291 c 128,-1,11
 1511 1097 1511 1097 1511 733 c 0,0,1
444 733 m 256,12,13
 444 488 444 488 537 364 c 128,-1,14
 630 240 630 240 815 240 c 0,15,16
 1186 240 1186 240 1186 733 c 0,17,18
 1186 1227 1186 1227 817 1227 c 0,19,20
 632 1227 632 1227 538 1102.5 c 128,-1,21
 444 978 444 978 444 733 c 256,12,13
EndSplineSet
EndChar

StartChar: P
Encoding: 80 80 51
Width: 1286
GlyphClass: 2
Flags: W
LayerCount: 2
Fore
SplineSet
494 774 m 1,0,-1
 596 774 l 2,1,2
 739 774 739 774 810 830.5 c 128,-1,3
 881 887 881 887 881 995 c 0,4,5
 881 1104 881 1104 821.5 1156 c 128,-1,6
 762 1208 762 1208 635 1208 c 2,7,-1
 494 1208 l 1,8,-1
 494 774 l 1,0,-1
1194 1006 m 0,9,10
 1194 770 1194 770 1046.5 645 c 128,-1,11
 899 520 899 520 627 520 c 2,12,-1
 494 520 l 1,13,-1
 494 0 l 1,14,-1
 184 0 l 1,15,-1
 184 1462 l 1,16,-1
 651 1462 l 2,17,18
 917 1462 917 1462 1055.5 1347.5 c 128,-1,19
 1194 1233 1194 1233 1194 1006 c 0,9,10
EndSplineSet
EndChar

StartChar: Q
Encoding: 81 81 52
Width: 1630
GlyphClass: 2
Flags: W
LayerCount: 2
Fore
SplineSet
1511 733 m 0,0,1
 1511 475 1511 475 1419.5 300.5 c 128,-1,2
 1328 126 1328 126 1151 45 c 1,3,-1
 1503 -348 l 1,4,-1
 1106 -348 l 1,5,-1
 838 -20 l 1,6,-1
 815 -20 l 2,7,8
 479 -20 479 -20 299 175 c 128,-1,9
 119 370 119 370 119 735 c 256,10,11
 119 1100 119 1100 299.5 1292.5 c 128,-1,12
 480 1485 480 1485 817 1485 c 256,13,14
 1154 1485 1154 1485 1332.5 1291 c 128,-1,15
 1511 1097 1511 1097 1511 733 c 0,0,1
444 733 m 256,16,17
 444 488 444 488 537 364 c 128,-1,18
 630 240 630 240 815 240 c 0,19,20
 1186 240 1186 240 1186 733 c 0,21,22
 1186 1227 1186 1227 817 1227 c 0,23,24
 632 1227 632 1227 538 1102.5 c 128,-1,25
 444 978 444 978 444 733 c 256,16,17
EndSplineSet
EndChar

StartChar: R
Encoding: 82 82 53
Width: 1352
GlyphClass: 2
Flags: W
LayerCount: 2
Fore
SplineSet
494 813 m 1,0,-1
 594 813 l 2,1,2
 741 813 741 813 811 862 c 128,-1,3
 881 911 881 911 881 1016 c 0,4,5
 881 1120 881 1120 809.5 1164 c 128,-1,6
 738 1208 738 1208 588 1208 c 2,7,-1
 494 1208 l 1,8,-1
 494 813 l 1,0,-1
494 561 m 1,9,-1
 494 0 l 1,10,-1
 184 0 l 1,11,-1
 184 1462 l 1,12,-1
 610 1462 l 2,13,14
 908 1462 908 1462 1051 1353.5 c 128,-1,15
 1194 1245 1194 1245 1194 1024 c 0,16,17
 1194 895 1194 895 1123 794.5 c 128,-1,18
 1052 694 1052 694 922 637 c 1,19,20
 1252 144 1252 144 1352 0 c 1,21,-1
 1008 0 l 1,22,-1
 659 561 l 1,23,-1
 494 561 l 1,9,-1
EndSplineSet
EndChar

StartChar: S
Encoding: 83 83 54
Width: 1128
GlyphClass: 2
Flags: W
LayerCount: 2
Fore
SplineSet
1047 406 m 0,0,1
 1047 208 1047 208 904.5 94 c 128,-1,2
 762 -20 762 -20 508 -20 c 0,3,4
 274 -20 274 -20 94 68 c 1,5,-1
 94 356 l 1,6,7
 242 290 242 290 344.5 263 c 128,-1,8
 447 236 447 236 532 236 c 0,9,10
 634 236 634 236 688.5 275 c 128,-1,11
 743 314 743 314 743 391 c 0,12,13
 743 434 743 434 719 467.5 c 128,-1,14
 695 501 695 501 648.5 532 c 128,-1,15
 602 563 602 563 459 631 c 0,16,17
 325 694 325 694 258 752 c 128,-1,18
 191 810 191 810 151 887 c 128,-1,19
 111 964 111 964 111 1067 c 0,20,21
 111 1261 111 1261 242.5 1372 c 128,-1,22
 374 1483 374 1483 606 1483 c 0,23,24
 720 1483 720 1483 823.5 1456 c 128,-1,25
 927 1429 927 1429 1040 1380 c 1,26,-1
 940 1139 l 1,27,28
 823 1187 823 1187 746.5 1206 c 128,-1,29
 670 1225 670 1225 596 1225 c 0,30,31
 508 1225 508 1225 461 1184 c 128,-1,32
 414 1143 414 1143 414 1077 c 0,33,34
 414 1036 414 1036 433 1005.5 c 128,-1,35
 452 975 452 975 493.5 946.5 c 128,-1,36
 535 918 535 918 690 844 c 0,37,38
 895 746 895 746 971 647.5 c 128,-1,39
 1047 549 1047 549 1047 406 c 0,0,1
EndSplineSet
EndChar

StartChar: T
Encoding: 84 84 55
Width: 1186
GlyphClass: 2
Flags: W
LayerCount: 2
Fore
SplineSet
748 0 m 1,0,-1
 438 0 l 1,1,-1
 438 1204 l 1,2,-1
 41 1204 l 1,3,-1
 41 1462 l 1,4,-1
 1145 1462 l 1,5,-1
 1145 1204 l 1,6,-1
 748 1204 l 1,7,-1
 748 0 l 1,0,-1
EndSplineSet
EndChar

StartChar: U
Encoding: 85 85 56
Width: 1548
GlyphClass: 2
Flags: W
LayerCount: 2
Fore
SplineSet
1374 1462 m 1,0,-1
 1374 516 l 2,1,2
 1374 354 1374 354 1301.5 232 c 128,-1,3
 1229 110 1229 110 1092 45 c 128,-1,4
 955 -20 955 -20 768 -20 c 0,5,6
 486 -20 486 -20 330 124.5 c 128,-1,7
 174 269 174 269 174 520 c 2,8,-1
 174 1462 l 1,9,-1
 483 1462 l 1,10,-1
 483 567 l 2,11,12
 483 398 483 398 551 319 c 128,-1,13
 619 240 619 240 776 240 c 0,14,15
 928 240 928 240 996.5 319.5 c 128,-1,16
 1065 399 1065 399 1065 569 c 2,17,-1
 1065 1462 l 1,18,-1
 1374 1462 l 1,0,-1
EndSplineSet
EndChar

StartChar: V
Encoding: 86 86 57
Width: 1331
GlyphClass: 2
Flags: W
LayerCount: 2
Fore
SplineSet
1018 1462 m 1,0,-1
 1331 1462 l 1,1,-1
 834 0 l 1,2,-1
 496 0 l 1,3,-1
 0 1462 l 1,4,-1
 313 1462 l 1,5,-1
 588 592 l 2,6,7
 611 515 611 515 635.5 412.5 c 128,-1,8
 660 310 660 310 666 270 c 1,9,10
 677 362 677 362 741 592 c 1,11,-1
 1018 1462 l 1,0,-1
EndSplineSet
EndChar

StartChar: W
Encoding: 87 87 58
Width: 1980
GlyphClass: 2
Flags: W
LayerCount: 2
Fore
SplineSet
1608 0 m 1,0,-1
 1255 0 l 1,1,-1
 1057 768 l 2,2,3
 1046 809 1046 809 1019.5 937.5 c 128,-1,4
 993 1066 993 1066 989 1110 c 1,5,6
 983 1056 983 1056 959 936.5 c 128,-1,7
 935 817 935 817 922 766 c 2,8,-1
 725 0 l 1,9,-1
 373 0 l 1,10,-1
 0 1462 l 1,11,-1
 305 1462 l 1,12,-1
 492 664 l 2,13,14
 541 443 541 443 563 281 c 1,15,16
 569 338 569 338 590.5 457.5 c 128,-1,17
 612 577 612 577 631 643 c 2,18,-1
 844 1462 l 1,19,-1
 1137 1462 l 1,20,-1
 1350 643 l 2,21,22
 1364 588 1364 588 1385 475 c 128,-1,23
 1406 362 1406 362 1417 281 c 1,24,25
 1427 359 1427 359 1449 475.5 c 128,-1,26
 1471 592 1471 592 1489 664 c 2,27,-1
 1675 1462 l 1,28,-1
 1980 1462 l 1,29,-1
 1608 0 l 1,0,-1
EndSplineSet
EndChar

StartChar: X
Encoding: 88 88 59
Width: 1366
GlyphClass: 2
Flags: W
LayerCount: 2
Fore
SplineSet
1366 0 m 1,0,-1
 1012 0 l 1,1,-1
 672 553 l 1,2,-1
 332 0 l 1,3,-1
 0 0 l 1,4,-1
 485 754 l 1,5,-1
 31 1462 l 1,6,-1
 373 1462 l 1,7,-1
 688 936 l 1,8,-1
 997 1462 l 1,9,-1
 1331 1462 l 1,10,-1
 872 737 l 1,11,-1
 1366 0 l 1,0,-1
EndSplineSet
EndChar

StartChar: Y
Encoding: 89 89 60
Width: 1278
GlyphClass: 2
Flags: W
LayerCount: 2
Fore
SplineSet
639 860 m 1,0,-1
 944 1462 l 1,1,-1
 1278 1462 l 1,2,-1
 793 569 l 1,3,-1
 793 0 l 1,4,-1
 485 0 l 1,5,-1
 485 559 l 1,6,-1
 0 1462 l 1,7,-1
 336 1462 l 1,8,-1
 639 860 l 1,0,-1
EndSplineSet
EndChar

StartChar: Z
Encoding: 90 90 61
Width: 1186
GlyphClass: 2
Flags: W
LayerCount: 2
Fore
SplineSet
1137 0 m 1,0,-1
 49 0 l 1,1,-1
 49 201 l 1,2,-1
 750 1206 l 1,3,-1
 68 1206 l 1,4,-1
 68 1462 l 1,5,-1
 1118 1462 l 1,6,-1
 1118 1262 l 1,7,-1
 418 256 l 1,8,-1
 1137 256 l 1,9,-1
 1137 0 l 1,0,-1
EndSplineSet
EndChar

StartChar: bracketleft
Encoding: 91 91 62
Width: 678
GlyphClass: 2
Flags: W
LayerCount: 2
Fore
SplineSet
627 -324 m 1,0,-1
 143 -324 l 1,1,-1
 143 1462 l 1,2,-1
 627 1462 l 1,3,-1
 627 1251 l 1,4,-1
 403 1251 l 1,5,-1
 403 -113 l 1,6,-1
 627 -113 l 1,7,-1
 627 -324 l 1,0,-1
EndSplineSet
EndChar

StartChar: backslash
Encoding: 92 92 63
Width: 846
GlyphClass: 2
Flags: W
LayerCount: 2
Fore
SplineSet
289 1462 m 1,0,-1
 834 0 l 1,1,-1
 557 0 l 1,2,-1
 12 1462 l 1,3,-1
 289 1462 l 1,0,-1
EndSplineSet
EndChar

StartChar: bracketright
Encoding: 93 93 64
Width: 678
GlyphClass: 2
Flags: W
LayerCount: 2
Fore
SplineSet
51 -113 m 1,0,-1
 274 -113 l 1,1,-1
 274 1251 l 1,2,-1
 51 1251 l 1,3,-1
 51 1462 l 1,4,-1
 535 1462 l 1,5,-1
 535 -324 l 1,6,-1
 51 -324 l 1,7,-1
 51 -113 l 1,0,-1
EndSplineSet
EndChar

StartChar: asciicircum
Encoding: 94 94 65
Width: 1090
GlyphClass: 2
Flags: W
LayerCount: 2
Fore
SplineSet
8 520 m 1,0,-1
 446 1470 l 1,1,-1
 590 1470 l 1,2,-1
 1085 520 l 1,3,-1
 846 520 l 1,4,-1
 524 1163 l 1,5,-1
 244 520 l 1,6,-1
 8 520 l 1,0,-1
EndSplineSet
EndChar

StartChar: underscore
Encoding: 95 95 66
Width: 842
GlyphClass: 2
Flags: W
LayerCount: 2
Fore
SplineSet
846 -324 m 1,0,-1
 -4 -324 l 1,1,-1
 -4 -184 l 1,2,-1
 846 -184 l 1,3,-1
 846 -324 l 1,0,-1
EndSplineSet
EndChar

StartChar: grave
Encoding: 96 96 67
Width: 1243
GlyphClass: 2
Flags: W
LayerCount: 2
Fore
SplineSet
707 1241 m 1,0,1
 644 1285 644 1285 522 1383.5 c 128,-1,2
 400 1482 400 1482 332 1548 c 1,3,-1
 332 1569 l 1,4,-1
 674 1569 l 1,5,6
 737 1468 737 1468 909 1268 c 1,7,-1
 909 1241 l 1,8,-1
 707 1241 l 1,0,1
EndSplineSet
EndChar

StartChar: a
Encoding: 97 97 68
Width: 1237
GlyphClass: 2
Flags: W
LayerCount: 2
Fore
SplineSet
870 0 m 1,0,-1
 811 152 l 1,1,-1
 803 152 l 1,2,3
 726 55 726 55 644.5 17.5 c 128,-1,4
 563 -20 563 -20 432 -20 c 0,5,6
 271 -20 271 -20 178.5 72 c 128,-1,7
 86 164 86 164 86 334 c 0,8,9
 86 512 86 512 210.5 596.5 c 128,-1,10
 335 681 335 681 586 690 c 2,11,-1
 780 696 l 1,12,-1
 780 745 l 2,13,14
 780 915 780 915 606 915 c 0,15,16
 472 915 472 915 291 834 c 1,17,-1
 190 1040 l 1,18,19
 383 1141 383 1141 618 1141 c 0,20,21
 843 1141 843 1141 963 1043 c 128,-1,22
 1083 945 1083 945 1083 745 c 2,23,-1
 1083 0 l 1,24,-1
 870 0 l 1,0,-1
780 518 m 1,25,-1
 662 514 l 2,26,27
 529 510 529 510 464 466 c 128,-1,28
 399 422 399 422 399 332 c 0,29,30
 399 203 399 203 547 203 c 0,31,32
 653 203 653 203 716.5 264 c 128,-1,33
 780 325 780 325 780 426 c 2,34,-1
 780 518 l 1,25,-1
EndSplineSet
EndChar

StartChar: b
Encoding: 98 98 69
Width: 1296
GlyphClass: 2
Flags: W
LayerCount: 2
Fore
SplineSet
782 1139 m 0,0,1
 980 1139 980 1139 1092 984.5 c 128,-1,2
 1204 830 1204 830 1204 561 c 0,3,4
 1204 284 1204 284 1088.5 132 c 128,-1,5
 973 -20 973 -20 774 -20 c 0,6,7
 577 -20 577 -20 465 123 c 1,8,-1
 444 123 l 1,9,-1
 393 0 l 1,10,-1
 160 0 l 1,11,-1
 160 1556 l 1,12,-1
 465 1556 l 1,13,-1
 465 1194 l 2,14,15
 465 1125 465 1125 453 973 c 1,16,-1
 465 973 l 1,17,18
 572 1139 572 1139 782 1139 c 0,0,1
684 895 m 0,19,20
 571 895 571 895 519 825.5 c 128,-1,21
 467 756 467 756 465 596 c 2,22,-1
 465 563 l 2,23,24
 465 383 465 383 518.5 305 c 128,-1,25
 572 227 572 227 688 227 c 0,26,27
 782 227 782 227 837.5 313.5 c 128,-1,28
 893 400 893 400 893 565 c 256,29,30
 893 730 893 730 837 812.5 c 128,-1,31
 781 895 781 895 684 895 c 0,19,20
EndSplineSet
EndChar

StartChar: c
Encoding: 99 99 70
Width: 1053
GlyphClass: 2
Flags: W
LayerCount: 2
Fore
SplineSet
614 -20 m 0,0,1
 92 -20 92 -20 92 553 c 0,2,3
 92 838 92 838 234 988.5 c 128,-1,4
 376 1139 376 1139 641 1139 c 0,5,6
 835 1139 835 1139 989 1063 c 1,7,-1
 899 827 l 1,8,9
 827 856 827 856 765 874.5 c 128,-1,10
 703 893 703 893 641 893 c 0,11,12
 403 893 403 893 403 555 c 0,13,14
 403 227 403 227 641 227 c 0,15,16
 729 227 729 227 804 250.5 c 128,-1,17
 879 274 879 274 954 324 c 1,18,-1
 954 63 l 1,19,20
 880 16 880 16 804.5 -2 c 128,-1,21
 729 -20 729 -20 614 -20 c 0,0,1
EndSplineSet
EndChar

StartChar: d
Encoding: 100 100 71
Width: 1296
GlyphClass: 2
Flags: W
LayerCount: 2
Fore
SplineSet
514 -20 m 0,0,1
 317 -20 317 -20 204.5 133 c 128,-1,2
 92 286 92 286 92 557 c 0,3,4
 92 832 92 832 206.5 985.5 c 128,-1,5
 321 1139 321 1139 522 1139 c 0,6,7
 733 1139 733 1139 844 975 c 1,8,-1
 854 975 l 1,9,10
 831 1100 831 1100 831 1198 c 2,11,-1
 831 1556 l 1,12,-1
 1137 1556 l 1,13,-1
 1137 0 l 1,14,-1
 903 0 l 1,15,-1
 844 145 l 1,16,-1
 831 145 l 1,17,18
 727 -20 727 -20 514 -20 c 0,0,1
621 223 m 0,19,20
 738 223 738 223 792.5 291 c 128,-1,21
 847 359 847 359 852 522 c 1,22,-1
 852 555 l 2,23,24
 852 735 852 735 796.5 813 c 128,-1,25
 741 891 741 891 616 891 c 0,26,27
 514 891 514 891 457.5 804.5 c 128,-1,28
 401 718 401 718 401 553 c 256,29,30
 401 388 401 388 458 305.5 c 128,-1,31
 515 223 515 223 621 223 c 0,19,20
EndSplineSet
EndChar

StartChar: e
Encoding: 101 101 72
Width: 1210
GlyphClass: 2
Flags: W
LayerCount: 2
Fore
SplineSet
623 922 m 256,0,1
 526 922 526 922 471 860.5 c 128,-1,2
 416 799 416 799 408 686 c 1,3,-1
 836 686 l 1,4,5
 834 799 834 799 777 860.5 c 128,-1,6
 720 922 720 922 623 922 c 256,0,1
666 -20 m 0,7,8
 396 -20 396 -20 244 129 c 128,-1,9
 92 278 92 278 92 551 c 0,10,11
 92 832 92 832 232.5 985.5 c 128,-1,12
 373 1139 373 1139 621 1139 c 0,13,14
 858 1139 858 1139 990 1004 c 128,-1,15
 1122 869 1122 869 1122 631 c 2,16,-1
 1122 483 l 1,17,-1
 401 483 l 1,18,19
 406 353 406 353 478 280 c 128,-1,20
 550 207 550 207 680 207 c 0,21,22
 781 207 781 207 871 228 c 128,-1,23
 961 249 961 249 1059 295 c 1,24,-1
 1059 59 l 1,25,26
 979 19 979 19 888 -0.5 c 128,-1,27
 797 -20 797 -20 666 -20 c 0,7,8
EndSplineSet
EndChar

StartChar: f
Encoding: 102 102 73
Width: 793
GlyphClass: 2
Flags: W
LayerCount: 2
Fore
SplineSet
778 889 m 1,0,-1
 514 889 l 1,1,-1
 514 0 l 1,2,-1
 209 0 l 1,3,-1
 209 889 l 1,4,-1
 41 889 l 1,5,-1
 41 1036 l 1,6,-1
 209 1118 l 1,7,-1
 209 1200 l 2,8,9
 209 1391 209 1391 303 1479 c 128,-1,10
 397 1567 397 1567 604 1567 c 0,11,12
 762 1567 762 1567 885 1520 c 1,13,-1
 807 1296 l 1,14,15
 715 1325 715 1325 637 1325 c 0,16,17
 572 1325 572 1325 543 1286.5 c 128,-1,18
 514 1248 514 1248 514 1188 c 2,19,-1
 514 1118 l 1,20,-1
 778 1118 l 1,21,-1
 778 889 l 1,0,-1
EndSplineSet
EndChar

StartChar: g
Encoding: 103 103 74
Width: 1157
GlyphClass: 2
Flags: W
LayerCount: 2
Fore
SplineSet
1133 1118 m 1,0,-1
 1133 963 l 1,1,-1
 958 918 l 1,2,3
 1006 843 1006 843 1006 750 c 0,4,5
 1006 570 1006 570 880.5 469.5 c 128,-1,6
 755 369 755 369 532 369 c 1,7,-1
 477 372 l 1,8,-1
 432 377 l 1,9,10
 385 341 385 341 385 297 c 0,11,12
 385 231 385 231 553 231 c 2,13,-1
 743 231 l 2,14,15
 927 231 927 231 1023.5 152 c 128,-1,16
 1120 73 1120 73 1120 -80 c 0,17,18
 1120 -276 1120 -276 956.5 -384 c 128,-1,19
 793 -492 793 -492 487 -492 c 0,20,21
 253 -492 253 -492 129.5 -410.5 c 128,-1,22
 6 -329 6 -329 6 -182 c 0,23,24
 6 -81 6 -81 69 -13 c 128,-1,25
 132 55 132 55 254 84 c 1,26,27
 207 104 207 104 172 149.5 c 128,-1,28
 137 195 137 195 137 246 c 0,29,30
 137 310 137 310 174 352.5 c 128,-1,31
 211 395 211 395 281 436 c 1,32,33
 193 474 193 474 141.5 558 c 128,-1,34
 90 642 90 642 90 756 c 0,35,36
 90 939 90 939 209 1039 c 128,-1,37
 328 1139 328 1139 549 1139 c 0,38,39
 596 1139 596 1139 660.5 1130.5 c 128,-1,40
 725 1122 725 1122 743 1118 c 1,41,-1
 1133 1118 l 1,0,-1
270 -158 m 0,42,43
 270 -221 270 -221 330.5 -257 c 128,-1,44
 391 -293 391 -293 500 -293 c 0,45,46
 664 -293 664 -293 757 -248 c 128,-1,47
 850 -203 850 -203 850 -125 c 0,48,49
 850 -62 850 -62 795 -38 c 128,-1,50
 740 -14 740 -14 625 -14 c 2,51,-1
 467 -14 l 2,52,53
 383 -14 383 -14 326.5 -53.5 c 128,-1,54
 270 -93 270 -93 270 -158 c 0,42,43
381 752 m 0,55,56
 381 661 381 661 422.5 608 c 128,-1,57
 464 555 464 555 549 555 c 0,58,59
 635 555 635 555 675 608 c 128,-1,60
 715 661 715 661 715 752 c 0,61,62
 715 954 715 954 549 954 c 0,63,64
 381 954 381 954 381 752 c 0,55,56
EndSplineSet
EndChar

StartChar: h
Encoding: 104 104 75
Width: 1346
GlyphClass: 2
Flags: W
LayerCount: 2
Fore
SplineSet
1192 0 m 1,0,-1
 887 0 l 1,1,-1
 887 653 l 2,2,3
 887 895 887 895 707 895 c 0,4,5
 579 895 579 895 522 808 c 128,-1,6
 465 721 465 721 465 526 c 2,7,-1
 465 0 l 1,8,-1
 160 0 l 1,9,-1
 160 1556 l 1,10,-1
 465 1556 l 1,11,-1
 465 1239 l 2,12,13
 465 1202 465 1202 458 1065 c 2,14,-1
 451 975 l 1,15,-1
 467 975 l 1,16,17
 569 1139 569 1139 791 1139 c 0,18,19
 988 1139 988 1139 1090 1033 c 128,-1,20
 1192 927 1192 927 1192 729 c 2,21,-1
 1192 0 l 1,0,-1
EndSplineSet
EndChar

StartChar: i
Encoding: 105 105 76
Width: 625
GlyphClass: 2
Flags: W
LayerCount: 2
Fore
SplineSet
147 1407 m 0,0,1
 147 1556 147 1556 313 1556 c 256,2,3
 479 1556 479 1556 479 1407 c 0,4,5
 479 1336 479 1336 437.5 1296.5 c 128,-1,6
 396 1257 396 1257 313 1257 c 0,7,8
 147 1257 147 1257 147 1407 c 0,0,1
465 0 m 1,9,-1
 160 0 l 1,10,-1
 160 1118 l 1,11,-1
 465 1118 l 1,12,-1
 465 0 l 1,9,-1
EndSplineSet
EndChar

StartChar: j
Encoding: 106 106 77
Width: 625
GlyphClass: 2
Flags: W
LayerCount: 2
Fore
SplineSet
70 -492 m 0,0,1
 -47 -492 -47 -492 -131 -467 c 1,2,-1
 -131 -227 l 1,3,4
 -61 -246 -61 -246 12 -246 c 0,5,6
 89 -246 89 -246 124.5 -203 c 128,-1,7
 160 -160 160 -160 160 -76 c 2,8,-1
 160 1118 l 1,9,-1
 465 1118 l 1,10,-1
 465 -121 l 2,11,12
 465 -299 465 -299 362 -395.5 c 128,-1,13
 259 -492 259 -492 70 -492 c 0,0,1
147 1407 m 0,14,15
 147 1556 147 1556 313 1556 c 256,16,17
 479 1556 479 1556 479 1407 c 0,18,19
 479 1336 479 1336 437.5 1296.5 c 128,-1,20
 396 1257 396 1257 313 1257 c 0,21,22
 147 1257 147 1257 147 1407 c 0,14,15
EndSplineSet
EndChar

StartChar: k
Encoding: 107 107 78
Width: 1270
GlyphClass: 2
Flags: W
LayerCount: 2
Fore
SplineSet
453 608 m 1,0,-1
 586 778 l 1,1,-1
 899 1118 l 1,2,-1
 1243 1118 l 1,3,-1
 799 633 l 1,4,-1
 1270 0 l 1,5,-1
 918 0 l 1,6,-1
 596 453 l 1,7,-1
 465 348 l 1,8,-1
 465 0 l 1,9,-1
 160 0 l 1,10,-1
 160 1556 l 1,11,-1
 465 1556 l 1,12,-1
 465 862 l 1,13,-1
 449 608 l 1,14,-1
 453 608 l 1,0,-1
EndSplineSet
EndChar

StartChar: l
Encoding: 108 108 79
Width: 625
GlyphClass: 2
Flags: W
LayerCount: 2
Fore
SplineSet
465 0 m 1,0,-1
 160 0 l 1,1,-1
 160 1556 l 1,2,-1
 465 1556 l 1,3,-1
 465 0 l 1,0,-1
EndSplineSet
EndChar

StartChar: m
Encoding: 109 109 80
Width: 2011
GlyphClass: 2
Flags: W
LayerCount: 2
Fore
SplineSet
1161 0 m 1,0,-1
 856 0 l 1,1,-1
 856 653 l 2,2,3
 856 774 856 774 815.5 834.5 c 128,-1,4
 775 895 775 895 688 895 c 0,5,6
 571 895 571 895 518 809 c 128,-1,7
 465 723 465 723 465 526 c 2,8,-1
 465 0 l 1,9,-1
 160 0 l 1,10,-1
 160 1118 l 1,11,-1
 393 1118 l 1,12,-1
 434 975 l 1,13,-1
 451 975 l 1,14,15
 496 1052 496 1052 581 1095.5 c 128,-1,16
 666 1139 666 1139 776 1139 c 0,17,18
 1027 1139 1027 1139 1116 975 c 1,19,-1
 1143 975 l 1,20,21
 1188 1053 1188 1053 1275.5 1096 c 128,-1,22
 1363 1139 1363 1139 1473 1139 c 0,23,24
 1663 1139 1663 1139 1760.5 1041.5 c 128,-1,25
 1858 944 1858 944 1858 729 c 2,26,-1
 1858 0 l 1,27,-1
 1552 0 l 1,28,-1
 1552 653 l 2,29,30
 1552 774 1552 774 1511.5 834.5 c 128,-1,31
 1471 895 1471 895 1384 895 c 0,32,33
 1272 895 1272 895 1216.5 815 c 128,-1,34
 1161 735 1161 735 1161 561 c 2,35,-1
 1161 0 l 1,0,-1
EndSplineSet
EndChar

StartChar: n
Encoding: 110 110 81
Width: 1346
GlyphClass: 2
Flags: W
LayerCount: 2
Fore
SplineSet
1192 0 m 1,0,-1
 887 0 l 1,1,-1
 887 653 l 2,2,3
 887 774 887 774 844 834.5 c 128,-1,4
 801 895 801 895 707 895 c 0,5,6
 579 895 579 895 522 809.5 c 128,-1,7
 465 724 465 724 465 526 c 2,8,-1
 465 0 l 1,9,-1
 160 0 l 1,10,-1
 160 1118 l 1,11,-1
 393 1118 l 1,12,-1
 434 975 l 1,13,-1
 451 975 l 1,14,15
 502 1056 502 1056 591.5 1097.5 c 128,-1,16
 681 1139 681 1139 795 1139 c 0,17,18
 990 1139 990 1139 1091 1033.5 c 128,-1,19
 1192 928 1192 928 1192 729 c 2,20,-1
 1192 0 l 1,0,-1
EndSplineSet
EndChar

StartChar: o
Encoding: 111 111 82
Width: 1268
GlyphClass: 2
Flags: W
LayerCount: 2
Fore
SplineSet
403 561 m 0,0,1
 403 395 403 395 457.5 310 c 128,-1,2
 512 225 512 225 635 225 c 0,3,4
 757 225 757 225 810.5 309.5 c 128,-1,5
 864 394 864 394 864 561 c 0,6,7
 864 727 864 727 810 810 c 128,-1,8
 756 893 756 893 633 893 c 0,9,10
 511 893 511 893 457 810.5 c 128,-1,11
 403 728 403 728 403 561 c 0,0,1
1176 561 m 0,12,13
 1176 288 1176 288 1032 134 c 128,-1,14
 888 -20 888 -20 631 -20 c 0,15,16
 470 -20 470 -20 347 50.5 c 128,-1,17
 224 121 224 121 158 253 c 128,-1,18
 92 385 92 385 92 561 c 0,19,20
 92 835 92 835 235 987 c 128,-1,21
 378 1139 378 1139 637 1139 c 0,22,23
 798 1139 798 1139 921 1069 c 128,-1,24
 1044 999 1044 999 1110 868 c 128,-1,25
 1176 737 1176 737 1176 561 c 0,12,13
EndSplineSet
EndChar

StartChar: p
Encoding: 112 112 83
Width: 1296
GlyphClass: 2
Flags: W
LayerCount: 2
Fore
SplineSet
774 -20 m 0,0,1
 577 -20 577 -20 465 123 c 1,2,-1
 449 123 l 1,3,4
 465 -17 465 -17 465 -39 c 2,5,-1
 465 -492 l 1,6,-1
 160 -492 l 1,7,-1
 160 1118 l 1,8,-1
 408 1118 l 1,9,-1
 451 973 l 1,10,-1
 465 973 l 1,11,12
 572 1139 572 1139 782 1139 c 0,13,14
 980 1139 980 1139 1092 986 c 128,-1,15
 1204 833 1204 833 1204 561 c 0,16,17
 1204 382 1204 382 1151.5 250 c 128,-1,18
 1099 118 1099 118 1002 49 c 128,-1,19
 905 -20 905 -20 774 -20 c 0,0,1
684 895 m 0,20,21
 571 895 571 895 519 825.5 c 128,-1,22
 467 756 467 756 465 596 c 2,23,-1
 465 563 l 2,24,25
 465 383 465 383 518.5 305 c 128,-1,26
 572 227 572 227 688 227 c 0,27,28
 893 227 893 227 893 565 c 0,29,30
 893 730 893 730 842.5 812.5 c 128,-1,31
 792 895 792 895 684 895 c 0,20,21
EndSplineSet
EndChar

StartChar: q
Encoding: 113 113 84
Width: 1296
GlyphClass: 2
Flags: W
LayerCount: 2
Fore
SplineSet
623 219 m 0,0,1
 739 219 739 219 793 285.5 c 128,-1,2
 847 352 847 352 852 518 c 1,3,-1
 852 555 l 2,4,5
 852 735 852 735 796.5 813 c 128,-1,6
 741 891 741 891 618 891 c 0,7,8
 403 891 403 891 403 553 c 0,9,10
 403 385 403 385 456.5 302 c 128,-1,11
 510 219 510 219 623 219 c 0,0,1
514 -20 m 0,12,13
 316 -20 316 -20 204 132.5 c 128,-1,14
 92 285 92 285 92 557 c 0,15,16
 92 831 92 831 206.5 985 c 128,-1,17
 321 1139 321 1139 520 1139 c 0,18,19
 626 1139 626 1139 705 1099 c 128,-1,20
 784 1059 784 1059 844 975 c 1,21,-1
 852 975 l 1,22,-1
 879 1118 l 1,23,-1
 1137 1118 l 1,24,-1
 1137 -492 l 1,25,-1
 831 -492 l 1,26,-1
 831 -23 l 2,27,28
 831 38 831 38 844 145 c 1,29,-1
 831 145 l 1,30,31
 782 64 782 64 701 22 c 128,-1,32
 620 -20 620 -20 514 -20 c 0,12,13
EndSplineSet
EndChar

StartChar: r
Encoding: 114 114 85
Width: 930
GlyphClass: 2
Flags: W
LayerCount: 2
Fore
SplineSet
784 1139 m 0,0,1
 846 1139 846 1139 887 1130 c 1,2,-1
 864 844 l 1,3,4
 827 854 827 854 774 854 c 0,5,6
 628 854 628 854 546.5 779 c 128,-1,7
 465 704 465 704 465 569 c 2,8,-1
 465 0 l 1,9,-1
 160 0 l 1,10,-1
 160 1118 l 1,11,-1
 391 1118 l 1,12,-1
 436 930 l 1,13,-1
 451 930 l 1,14,15
 503 1024 503 1024 591.5 1081.5 c 128,-1,16
 680 1139 680 1139 784 1139 c 0,0,1
EndSplineSet
EndChar

StartChar: s
Encoding: 115 115 86
Width: 1018
GlyphClass: 2
Flags: W
LayerCount: 2
Fore
SplineSet
940 332 m 0,0,1
 940 160 940 160 820.5 70 c 128,-1,2
 701 -20 701 -20 463 -20 c 0,3,4
 341 -20 341 -20 255 -3.5 c 128,-1,5
 169 13 169 13 94 45 c 1,6,-1
 94 297 l 1,7,8
 179 257 179 257 285.5 230 c 128,-1,9
 392 203 392 203 473 203 c 0,10,11
 639 203 639 203 639 299 c 0,12,13
 639 335 639 335 617 357.5 c 128,-1,14
 595 380 595 380 541 408.5 c 128,-1,15
 487 437 487 437 397 475 c 0,16,17
 268 529 268 529 207.5 575 c 128,-1,18
 147 621 147 621 119.5 680.5 c 128,-1,19
 92 740 92 740 92 827 c 0,20,21
 92 976 92 976 207.5 1057.5 c 128,-1,22
 323 1139 323 1139 535 1139 c 0,23,24
 737 1139 737 1139 928 1051 c 1,25,-1
 836 831 l 1,26,27
 752 867 752 867 679 890 c 128,-1,28
 606 913 606 913 530 913 c 0,29,30
 395 913 395 913 395 840 c 0,31,32
 395 799 395 799 438.5 769 c 128,-1,33
 482 739 482 739 629 680 c 0,34,35
 760 627 760 627 821 581 c 128,-1,36
 882 535 882 535 911 475 c 128,-1,37
 940 415 940 415 940 332 c 0,0,1
EndSplineSet
EndChar

StartChar: t
Encoding: 116 116 87
Width: 889
GlyphClass: 2
Flags: W
LayerCount: 2
Fore
SplineSet
631 223 m 0,0,1
 711 223 711 223 823 258 c 1,2,-1
 823 31 l 1,3,4
 709 -20 709 -20 543 -20 c 0,5,6
 360 -20 360 -20 276.5 72.5 c 128,-1,7
 193 165 193 165 193 350 c 2,8,-1
 193 889 l 1,9,-1
 47 889 l 1,10,-1
 47 1018 l 1,11,-1
 215 1120 l 1,12,-1
 303 1356 l 1,13,-1
 498 1356 l 1,14,-1
 498 1118 l 1,15,-1
 811 1118 l 1,16,-1
 811 889 l 1,17,-1
 498 889 l 1,18,-1
 498 350 l 2,19,20
 498 285 498 285 534.5 254 c 128,-1,21
 571 223 571 223 631 223 c 0,0,1
EndSplineSet
EndChar

StartChar: u
Encoding: 117 117 88
Width: 1346
GlyphClass: 2
Flags: W
LayerCount: 2
Fore
SplineSet
952 0 m 1,0,-1
 911 143 l 1,1,-1
 895 143 l 1,2,3
 846 65 846 65 756 22.5 c 128,-1,4
 666 -20 666 -20 551 -20 c 0,5,6
 354 -20 354 -20 254 85.5 c 128,-1,7
 154 191 154 191 154 389 c 2,8,-1
 154 1118 l 1,9,-1
 459 1118 l 1,10,-1
 459 465 l 2,11,12
 459 344 459 344 502 283.5 c 128,-1,13
 545 223 545 223 639 223 c 0,14,15
 767 223 767 223 824 308.5 c 128,-1,16
 881 394 881 394 881 592 c 2,17,-1
 881 1118 l 1,18,-1
 1186 1118 l 1,19,-1
 1186 0 l 1,20,-1
 952 0 l 1,0,-1
EndSplineSet
EndChar

StartChar: v
Encoding: 118 118 89
Width: 1165
GlyphClass: 2
Flags: W
LayerCount: 2
Fore
SplineSet
426 0 m 1,0,-1
 0 1118 l 1,1,-1
 319 1118 l 1,2,-1
 535 481 l 1,3,4
 571 360 571 360 580 252 c 1,5,-1
 586 252 l 1,6,7
 591 348 591 348 631 481 c 1,8,-1
 846 1118 l 1,9,-1
 1165 1118 l 1,10,-1
 739 0 l 1,11,-1
 426 0 l 1,0,-1
EndSplineSet
EndChar

StartChar: w
Encoding: 119 119 90
Width: 1753
GlyphClass: 2
Flags: W
LayerCount: 2
Fore
SplineSet
1079 0 m 1,0,-1
 993 391 l 1,1,-1
 877 885 l 1,2,-1
 870 885 l 1,3,-1
 666 0 l 1,4,-1
 338 0 l 1,5,-1
 20 1118 l 1,6,-1
 324 1118 l 1,7,-1
 453 623 l 2,8,9
 484 490 484 490 516 256 c 1,10,-1
 522 256 l 1,11,12
 526 332 526 332 557 497 c 2,13,-1
 573 582 l 1,14,-1
 711 1118 l 1,15,-1
 1047 1118 l 1,16,-1
 1178 582 l 2,17,18
 1182 560 1182 560 1190.5 517 c 128,-1,19
 1199 474 1199 474 1207 425.5 c 128,-1,20
 1215 377 1215 377 1221.5 330.5 c 128,-1,21
 1228 284 1228 284 1229 256 c 1,22,-1
 1235 256 l 1,23,24
 1244 328 1244 328 1267 453.5 c 128,-1,25
 1290 579 1290 579 1300 623 c 2,26,-1
 1434 1118 l 1,27,-1
 1733 1118 l 1,28,-1
 1411 0 l 1,29,-1
 1079 0 l 1,0,-1
EndSplineSet
EndChar

StartChar: x
Encoding: 120 120 91
Width: 1184
GlyphClass: 2
Flags: W
LayerCount: 2
Fore
SplineSet
389 571 m 1,0,-1
 29 1118 l 1,1,-1
 375 1118 l 1,2,-1
 592 762 l 1,3,-1
 811 1118 l 1,4,-1
 1157 1118 l 1,5,-1
 793 571 l 1,6,-1
 1174 0 l 1,7,-1
 827 0 l 1,8,-1
 592 383 l 1,9,-1
 356 0 l 1,10,-1
 10 0 l 1,11,-1
 389 571 l 1,0,-1
EndSplineSet
EndChar

StartChar: y
Encoding: 121 121 92
Width: 1165
GlyphClass: 2
Flags: W
LayerCount: 2
Fore
SplineSet
0 1118 m 1,0,-1
 334 1118 l 1,1,-1
 545 489 l 2,2,3
 572 407 572 407 582 295 c 1,4,-1
 588 295 l 1,5,6
 599 398 599 398 631 489 c 2,7,-1
 838 1118 l 1,8,-1
 1165 1118 l 1,9,-1
 692 -143 l 2,10,11
 627 -318 627 -318 506.5 -405 c 128,-1,12
 386 -492 386 -492 225 -492 c 0,13,14
 146 -492 146 -492 70 -475 c 1,15,-1
 70 -233 l 1,16,17
 125 -246 125 -246 190 -246 c 0,18,19
 271 -246 271 -246 331.5 -196.5 c 128,-1,20
 392 -147 392 -147 426 -47 c 2,21,-1
 444 8 l 1,22,-1
 0 1118 l 1,0,-1
EndSplineSet
EndChar

StartChar: z
Encoding: 122 122 93
Width: 999
GlyphClass: 2
Flags: W
LayerCount: 2
Fore
SplineSet
938 0 m 1,0,-1
 55 0 l 1,1,-1
 55 180 l 1,2,-1
 573 885 l 1,3,-1
 86 885 l 1,4,-1
 86 1118 l 1,5,-1
 920 1118 l 1,6,-1
 920 920 l 1,7,-1
 416 233 l 1,8,-1
 938 233 l 1,9,-1
 938 0 l 1,0,-1
EndSplineSet
EndChar

StartChar: braceleft
Encoding: 123 123 94
Width: 807
GlyphClass: 2
Flags: W
LayerCount: 2
Fore
SplineSet
287 270 m 2,0,1
 287 357 287 357 221.5 403 c 128,-1,2
 156 449 156 449 31 449 c 1,3,-1
 31 688 l 1,4,5
 157 688 157 688 222 732 c 128,-1,6
 287 776 287 776 287 858 c 2,7,-1
 287 866 l 1,8,-1
 287 1184 l 2,9,10
 287 1337 287 1337 384 1399.5 c 128,-1,11
 481 1462 481 1462 725 1462 c 1,12,-1
 725 1237 l 1,13,14
 626 1234 626 1234 588.5 1199 c 128,-1,15
 551 1164 551 1164 551 1096 c 2,16,-1
 551 797 l 1,17,18
 545 609 545 609 317 575 c 1,19,-1
 317 563 l 1,20,21
 551 528 551 528 551 351 c 2,22,-1
 551 342 l 1,23,-1
 551 43 l 2,24,25
 551 -25 551 -25 588 -60 c 128,-1,26
 625 -95 625 -95 725 -98 c 1,27,-1
 725 -324 l 1,28,29
 481 -324 481 -324 384 -261.5 c 128,-1,30
 287 -199 287 -199 287 -45 c 2,31,-1
 287 270 l 2,0,1
EndSplineSet
EndChar

StartChar: bar
Encoding: 124 124 95
Width: 1128
GlyphClass: 2
Flags: W
LayerCount: 2
Fore
SplineSet
455 1550 m 1,0,-1
 674 1550 l 1,1,-1
 674 -465 l 1,2,-1
 455 -465 l 1,3,-1
 455 1550 l 1,0,-1
EndSplineSet
EndChar

StartChar: braceright
Encoding: 125 125 96
Width: 807
GlyphClass: 2
Flags: W
LayerCount: 2
Fore
SplineSet
520 -45 m 2,0,1
 520 -157 520 -157 479 -214 c 128,-1,2
 438 -271 438 -271 343.5 -297.5 c 128,-1,3
 249 -324 249 -324 82 -324 c 1,4,-1
 82 -98 l 1,5,6
 181 -96 181 -96 218.5 -62 c 128,-1,7
 256 -28 256 -28 256 43 c 2,8,-1
 256 342 l 1,9,-1
 256 353 l 2,10,11
 256 439 256 439 315 492.5 c 128,-1,12
 374 546 374 546 489 563 c 1,13,-1
 489 575 l 1,14,15
 262 609 262 609 256 797 c 1,16,-1
 256 1096 l 2,17,18
 256 1166 256 1166 219 1200 c 128,-1,19
 182 1234 182 1234 82 1237 c 1,20,-1
 82 1462 l 1,21,22
 249 1462 249 1462 344 1435.5 c 128,-1,23
 439 1409 439 1409 479.5 1351.5 c 128,-1,24
 520 1294 520 1294 520 1184 c 2,25,-1
 520 866 l 1,26,-1
 520 856 l 2,27,28
 520 772 520 772 581.5 730 c 128,-1,29
 643 688 643 688 776 688 c 1,30,-1
 776 449 l 1,31,32
 651 449 651 449 585.5 408 c 128,-1,33
 520 367 520 367 520 270 c 2,34,-1
 520 -45 l 2,0,1
EndSplineSet
EndChar

StartChar: asciitilde
Encoding: 126 126 97
Width: 1169
GlyphClass: 2
Flags: W
LayerCount: 2
Fore
SplineSet
322 672 m 0,0,1
 267 672 267 672 204.5 638.5 c 128,-1,2
 142 605 142 605 88 551 c 1,3,-1
 88 782 l 1,4,5
 191 891 191 891 344 891 c 0,6,7
 417 891 417 891 481.5 875 c 128,-1,8
 546 859 546 859 621 827 c 0,9,10
 750 772 750 772 848 772 c 0,11,12
 901 772 901 772 964 804 c 128,-1,13
 1027 836 1027 836 1081 893 c 1,14,-1
 1081 662 l 1,15,16
 980 553 980 553 825 553 c 0,17,18
 759 553 759 553 699 566 c 128,-1,19
 639 579 639 579 549 616 c 0,20,21
 418 672 418 672 322 672 c 0,0,1
EndSplineSet
EndChar

StartChar: exclamdown
Encoding: 161 161 99
Width: 586
GlyphClass: 2
Flags: W
LayerCount: 2
Fore
SplineSet
168 606 m 1,0,-1
 412 606 l 1,1,-1
 463 -369 l 1,2,-1
 117 -369 l 1,3,-1
 168 606 l 1,0,-1
467 948 m 0,4,5
 467 864 467 864 422 821 c 128,-1,6
 377 778 377 778 291 778 c 0,7,8
 208 778 208 778 162.5 822 c 128,-1,9
 117 866 117 866 117 948 c 0,10,11
 117 1029 117 1029 163.5 1073.5 c 128,-1,12
 210 1118 210 1118 291 1118 c 0,13,14
 375 1118 375 1118 421 1074 c 128,-1,15
 467 1030 467 1030 467 948 c 0,4,5
EndSplineSet
EndChar

StartChar: cent
Encoding: 162 162 100
Width: 1169
GlyphClass: 2
Flags: W
LayerCount: 2
Fore
SplineSet
563 176 m 1,0,1
 143 235 143 235 143 741 c 0,2,3
 143 1002 143 1002 247.5 1144 c 128,-1,4
 352 1286 352 1286 563 1317 c 1,5,-1
 563 1483 l 1,6,-1
 741 1483 l 1,7,-1
 741 1325 l 1,8,9
 907 1316 907 1316 1040 1251 c 1,10,-1
 950 1016 l 1,11,12
 878 1045 878 1045 816 1063 c 128,-1,13
 754 1081 754 1081 692 1081 c 0,14,15
 571 1081 571 1081 513 997.5 c 128,-1,16
 455 914 455 914 455 743 c 0,17,18
 455 416 455 416 692 416 c 0,19,20
 774 416 774 416 840 431.5 c 128,-1,21
 906 447 906 447 1006 492 c 1,22,-1
 1006 238 l 1,23,24
 879 177 879 177 741 168 c 1,25,-1
 741 -20 l 1,26,-1
 563 -20 l 1,27,-1
 563 176 l 1,0,1
EndSplineSet
EndChar

StartChar: sterling
Encoding: 163 163 101
Width: 1169
GlyphClass: 2
Flags: W
LayerCount: 2
Fore
SplineSet
700 1483 m 0,0,1
 895 1483 895 1483 1090 1401 c 1,2,-1
 997 1171 l 1,3,4
 840 1235 840 1235 725 1235 c 0,5,6
 647 1235 647 1235 605 1190.5 c 128,-1,7
 563 1146 563 1146 563 1063 c 2,8,-1
 563 870 l 1,9,-1
 938 870 l 1,10,-1
 938 651 l 1,11,-1
 563 651 l 1,12,-1
 563 508 l 2,13,14
 563 338 563 338 412 260 c 1,15,-1
 1130 260 l 1,16,-1
 1130 0 l 1,17,-1
 82 0 l 1,18,-1
 82 248 l 1,19,20
 185 292 185 292 223.5 349 c 128,-1,21
 262 406 262 406 262 506 c 2,22,-1
 262 651 l 1,23,-1
 84 651 l 1,24,-1
 84 870 l 1,25,-1
 262 870 l 1,26,-1
 262 1065 l 2,27,28
 262 1266 262 1266 376.5 1374.5 c 128,-1,29
 491 1483 491 1483 700 1483 c 0,0,1
EndSplineSet
EndChar

StartChar: currency
Encoding: 164 164 102
Width: 1169
GlyphClass: 2
Flags: W
LayerCount: 2
Fore
SplineSet
188 723 m 0,0,1
 188 825 188 825 242 920 c 1,2,-1
 113 1047 l 1,3,-1
 260 1194 l 1,4,-1
 387 1067 l 1,5,6
 478 1120 478 1120 584 1120 c 0,7,8
 689 1120 689 1120 780 1065 c 1,9,-1
 907 1194 l 1,10,-1
 1057 1051 l 1,11,-1
 928 922 l 1,12,13
 981 833 981 833 981 723 c 0,14,15
 981 616 981 616 928 524 c 1,16,-1
 1053 399 l 1,17,-1
 907 254 l 1,18,-1
 780 379 l 1,19,20
 685 328 685 328 584 328 c 0,21,22
 469 328 469 328 385 379 c 1,23,-1
 260 256 l 1,24,-1
 115 401 l 1,25,-1
 242 526 l 1,26,27
 188 619 188 619 188 723 c 0,0,1
395 723 m 0,28,29
 395 646 395 646 449.5 590.5 c 128,-1,30
 504 535 504 535 584 535 c 0,31,32
 665 535 665 535 720.5 590 c 128,-1,33
 776 645 776 645 776 723 c 0,34,35
 776 803 776 803 719.5 858 c 128,-1,36
 663 913 663 913 584 913 c 0,37,38
 506 913 506 913 450.5 857 c 128,-1,39
 395 801 395 801 395 723 c 0,28,29
EndSplineSet
EndChar

StartChar: yen
Encoding: 165 165 103
Width: 1169
GlyphClass: 2
Flags: W
LayerCount: 2
Fore
SplineSet
584 860 m 1,0,-1
 848 1462 l 1,1,-1
 1161 1462 l 1,2,-1
 778 715 l 1,3,-1
 973 715 l 1,4,-1
 973 537 l 1,5,-1
 727 537 l 1,6,-1
 727 399 l 1,7,-1
 973 399 l 1,8,-1
 973 221 l 1,9,-1
 727 221 l 1,10,-1
 727 0 l 1,11,-1
 440 0 l 1,12,-1
 440 221 l 1,13,-1
 193 221 l 1,14,-1
 193 399 l 1,15,-1
 440 399 l 1,16,-1
 440 537 l 1,17,-1
 193 537 l 1,18,-1
 193 715 l 1,19,-1
 383 715 l 1,20,-1
 6 1462 l 1,21,-1
 322 1462 l 1,22,-1
 584 860 l 1,0,-1
EndSplineSet
EndChar

StartChar: brokenbar
Encoding: 166 166 104
Width: 1128
GlyphClass: 2
Flags: W
LayerCount: 2
Fore
SplineSet
455 1550 m 1,0,-1
 674 1550 l 1,1,-1
 674 735 l 1,2,-1
 455 735 l 1,3,-1
 455 1550 l 1,0,-1
455 350 m 1,4,-1
 674 350 l 1,5,-1
 674 -465 l 1,6,-1
 455 -465 l 1,7,-1
 455 350 l 1,4,-1
EndSplineSet
EndChar

StartChar: section
Encoding: 167 167 105
Width: 995
GlyphClass: 2
Flags: W
LayerCount: 2
Fore
SplineSet
121 805 m 0,0,1
 121 884 121 884 157 949.5 c 128,-1,2
 193 1015 193 1015 254 1055 c 1,3,4
 121 1139 121 1139 121 1288 c 0,5,6
 121 1419 121 1419 232.5 1498 c 128,-1,7
 344 1577 344 1577 526 1577 c 0,8,9
 696 1577 696 1577 889 1493 c 1,10,-1
 807 1303 l 1,11,12
 739 1335 739 1335 668.5 1360.5 c 128,-1,13
 598 1386 598 1386 520 1386 c 0,14,15
 439 1386 439 1386 402 1363 c 128,-1,16
 365 1340 365 1340 365 1292 c 0,17,18
 365 1243 365 1243 414.5 1206 c 128,-1,19
 464 1169 464 1169 578 1124 c 0,20,21
 741 1060 741 1060 818 975.5 c 128,-1,22
 895 891 895 891 895 782 c 0,23,24
 895 605 895 605 770 522 c 1,25,26
 832 482 832 482 863.5 429.5 c 128,-1,27
 895 377 895 377 895 303 c 0,28,29
 895 155 895 155 775.5 67.5 c 128,-1,30
 656 -20 656 -20 455 -20 c 0,31,32
 252 -20 252 -20 106 59 c 1,33,-1
 106 266 l 1,34,35
 187 225 187 225 286 196.5 c 128,-1,36
 385 168 385 168 455 168 c 0,37,38
 649 168 649 168 649 285 c 0,39,40
 649 324 649 324 630.5 348 c 128,-1,41
 612 372 612 372 567 397.5 c 128,-1,42
 522 423 522 423 442 457 c 0,43,44
 259 531 259 531 190 609.5 c 128,-1,45
 121 688 121 688 121 805 c 0,0,1
344 827 m 0,46,47
 344 760 344 760 409 708 c 128,-1,48
 474 656 474 656 590 610 c 1,49,50
 668 667 668 667 668 756 c 0,51,52
 668 824 668 824 617.5 871 c 128,-1,53
 567 918 567 918 434 967 c 1,54,55
 397 953 397 953 370.5 913.5 c 128,-1,56
 344 874 344 874 344 827 c 0,46,47
EndSplineSet
EndChar

StartChar: dieresis
Encoding: 168 168 106
Width: 1243
GlyphClass: 2
Flags: W
LayerCount: 2
Fore
SplineSet
279 1405 m 0,0,1
 279 1470 279 1470 316.5 1505 c 128,-1,2
 354 1540 354 1540 418 1540 c 0,3,4
 484 1540 484 1540 521.5 1503 c 128,-1,5
 559 1466 559 1466 559 1405 c 0,6,7
 559 1345 559 1345 521 1308.5 c 128,-1,8
 483 1272 483 1272 418 1272 c 0,9,10
 354 1272 354 1272 316.5 1307 c 128,-1,11
 279 1342 279 1342 279 1405 c 0,0,1
682 1405 m 0,12,13
 682 1475 682 1475 722.5 1507.5 c 128,-1,14
 763 1540 763 1540 823 1540 c 0,15,16
 888 1540 888 1540 926.5 1504 c 128,-1,17
 965 1468 965 1468 965 1405 c 0,18,19
 965 1344 965 1344 926 1308 c 128,-1,20
 887 1272 887 1272 823 1272 c 0,21,22
 763 1272 763 1272 722.5 1304.5 c 128,-1,23
 682 1337 682 1337 682 1405 c 0,12,13
EndSplineSet
EndChar

StartChar: copyright
Encoding: 169 169 107
Width: 1704
GlyphClass: 2
Flags: W
LayerCount: 2
Fore
SplineSet
895 1010 m 0,0,1
 798 1010 798 1010 745 936 c 128,-1,2
 692 862 692 862 692 731 c 0,3,4
 692 451 692 451 895 451 c 0,5,6
 952 451 952 451 1018 466 c 128,-1,7
 1084 481 1084 481 1141 510 c 1,8,-1
 1141 319 l 1,9,10
 1021 262 1021 262 889 262 c 0,11,12
 685 262 685 262 573 387 c 128,-1,13
 461 512 461 512 461 733 c 0,14,15
 461 953 461 953 571.5 1075.5 c 128,-1,16
 682 1198 682 1198 881 1198 c 0,17,18
 1030 1198 1030 1198 1186 1120 c 1,19,-1
 1112 952 l 1,20,21
 999 1010 999 1010 895 1010 c 0,0,1
100 731 m 0,22,23
 100 931 100 931 200 1106 c 128,-1,24
 300 1281 300 1281 475 1382 c 128,-1,25
 650 1483 650 1483 852 1483 c 0,26,27
 1052 1483 1052 1483 1227 1383 c 128,-1,28
 1402 1283 1402 1283 1503 1108 c 128,-1,29
 1604 933 1604 933 1604 731 c 0,30,31
 1604 534 1604 534 1507 361 c 128,-1,32
 1410 188 1410 188 1235 84 c 128,-1,33
 1060 -20 1060 -20 852 -20 c 0,34,35
 645 -20 645 -20 470 83.5 c 128,-1,36
 295 187 295 187 197.5 360 c 128,-1,37
 100 533 100 533 100 731 c 0,22,23
242 731 m 0,38,39
 242 567 242 567 324 425.5 c 128,-1,40
 406 284 406 284 548 202.5 c 128,-1,41
 690 121 690 121 852 121 c 0,42,43
 1016 121 1016 121 1157.5 203 c 128,-1,44
 1299 285 1299 285 1380.5 427 c 128,-1,45
 1462 569 1462 569 1462 731 c 0,46,47
 1462 895 1462 895 1380 1036.5 c 128,-1,48
 1298 1178 1298 1178 1156 1259.5 c 128,-1,49
 1014 1341 1014 1341 852 1341 c 0,50,51
 688 1341 688 1341 546.5 1259 c 128,-1,52
 405 1177 405 1177 323.5 1035 c 128,-1,53
 242 893 242 893 242 731 c 0,38,39
EndSplineSet
EndChar

StartChar: ordfeminine
Encoding: 170 170 108
Width: 784
GlyphClass: 2
Flags: W
LayerCount: 2
Fore
SplineSet
561 764 m 1,0,-1
 530 874 l 1,1,2
 487 816 487 816 425 784 c 128,-1,3
 363 752 363 752 289 752 c 0,4,5
 172 752 172 752 109.5 810.5 c 128,-1,6
 47 869 47 869 47 975 c 0,7,8
 47 1084 47 1084 129.5 1138.5 c 128,-1,9
 212 1193 212 1193 397 1202 c 2,10,-1
 496 1206 l 1,11,12
 496 1323 496 1323 369 1323 c 0,13,14
 288 1323 288 1323 152 1262 c 1,15,-1
 86 1397 l 1,16,17
 152 1429 152 1429 231.5 1454 c 128,-1,18
 311 1479 311 1479 410 1479 c 0,19,20
 547 1479 547 1479 621.5 1408 c 128,-1,21
 696 1337 696 1337 696 1206 c 2,22,-1
 696 764 l 1,23,-1
 561 764 l 1,0,-1
252 977 m 0,24,25
 252 939 252 939 275 921 c 128,-1,26
 298 903 298 903 330 903 c 0,27,28
 407 903 407 903 451.5 944.5 c 128,-1,29
 496 986 496 986 496 1051 c 2,30,-1
 496 1087 l 1,31,-1
 397 1081 l 2,32,33
 252 1071 252 1071 252 977 c 0,24,25
EndSplineSet
EndChar

StartChar: guillemotleft
Encoding: 171 171 109
Width: 922
GlyphClass: 2
Flags: W
LayerCount: 2
Fore
SplineSet
440 455 m 0,0,1
 440 541 440 541 504 677.5 c 128,-1,2
 568 814 568 814 693 953 c 1,3,-1
 803 833 l 1,4,5
 756 773 756 773 723.5 712.5 c 128,-1,6
 691 652 691 652 676 602.5 c 128,-1,7
 661 553 661 553 655 518.5 c 128,-1,8
 649 484 649 484 649 456 c 0,9,10
 649 275 649 275 803 77 c 1,11,-1
 693 -43 l 1,12,13
 608 52 608 52 548.5 151.5 c 128,-1,14
 489 251 489 251 464.5 325.5 c 128,-1,15
 440 400 440 400 440 455 c 0,0,1
80 454.5 m 128,-1,17
 80 541 80 541 144 677.5 c 128,-1,18
 208 814 208 814 333 953 c 1,19,-1
 443 833 l 1,20,21
 396 773 396 773 363.5 712.5 c 128,-1,22
 331 652 331 652 316 602.5 c 128,-1,23
 301 553 301 553 295 518.5 c 128,-1,24
 289 484 289 484 289 456 c 0,25,26
 289 275 289 275 443 77 c 1,27,-1
 333 -43 l 1,28,29
 208 96 208 96 144 232 c 128,-1,16
 80 368 80 368 80 454.5 c 128,-1,17
EndSplineSet
EndChar

StartChar: logicalnot
Encoding: 172 172 110
Width: 1169
GlyphClass: 2
Flags: W
LayerCount: 2
Fore
SplineSet
1081 248 m 1,0,-1
 862 248 l 1,1,-1
 862 612 l 1,2,-1
 88 612 l 1,3,-1
 88 831 l 1,4,-1
 1081 831 l 1,5,-1
 1081 248 l 1,0,-1
EndSplineSet
EndChar

StartChar: registered
Encoding: 174 174 112
Width: 1704
GlyphClass: 2
Flags: W
LayerCount: 2
Fore
SplineSet
1157 905 m 0,0,1
 1157 735 1157 735 1014 672 c 1,2,-1
 1251 272 l 1,3,-1
 997 272 l 1,4,-1
 819 610 l 1,5,-1
 772 610 l 1,6,-1
 772 272 l 1,7,-1
 543 272 l 1,8,-1
 543 1188 l 1,9,-1
 807 1188 l 2,10,11
 988 1188 988 1188 1072.5 1118 c 128,-1,12
 1157 1048 1157 1048 1157 905 c 0,0,1
772 778 m 1,13,-1
 803 778 l 2,14,15
 869 778 869 778 897.5 806.5 c 128,-1,16
 926 835 926 835 926 901 c 0,17,18
 926 966 926 966 898 993 c 128,-1,19
 870 1020 870 1020 801 1020 c 2,20,-1
 772 1020 l 1,21,-1
 772 778 l 1,13,-1
100 731 m 0,22,23
 100 931 100 931 200 1106 c 128,-1,24
 300 1281 300 1281 475 1382 c 128,-1,25
 650 1483 650 1483 852 1483 c 0,26,27
 1052 1483 1052 1483 1227 1383 c 128,-1,28
 1402 1283 1402 1283 1503 1108 c 128,-1,29
 1604 933 1604 933 1604 731 c 0,30,31
 1604 534 1604 534 1507 361 c 128,-1,32
 1410 188 1410 188 1235 84 c 128,-1,33
 1060 -20 1060 -20 852 -20 c 0,34,35
 645 -20 645 -20 470 83.5 c 128,-1,36
 295 187 295 187 197.5 360 c 128,-1,37
 100 533 100 533 100 731 c 0,22,23
242 731 m 0,38,39
 242 567 242 567 324 425.5 c 128,-1,40
 406 284 406 284 548 202.5 c 128,-1,41
 690 121 690 121 852 121 c 0,42,43
 1016 121 1016 121 1157.5 203 c 128,-1,44
 1299 285 1299 285 1380.5 427 c 128,-1,45
 1462 569 1462 569 1462 731 c 0,46,47
 1462 895 1462 895 1380 1036.5 c 128,-1,48
 1298 1178 1298 1178 1156 1259.5 c 128,-1,49
 1014 1341 1014 1341 852 1341 c 0,50,51
 688 1341 688 1341 546.5 1259 c 128,-1,52
 405 1177 405 1177 323.5 1035 c 128,-1,53
 242 893 242 893 242 731 c 0,38,39
EndSplineSet
EndChar

StartChar: overscore
Encoding: 175 175 113
Width: 1024
GlyphClass: 2
Flags: W
LayerCount: 2
Fore
SplineSet
1030 1556 m 1,0,-1
 -6 1556 l 1,1,-1
 -6 1757 l 1,2,-1
 1030 1757 l 1,3,-1
 1030 1556 l 1,0,-1
EndSplineSet
EndChar

StartChar: degree
Encoding: 176 176 114
Width: 877
GlyphClass: 2
Flags: W
LayerCount: 2
Fore
SplineSet
92 1137 m 0,0,1
 92 1229 92 1229 138 1309 c 128,-1,2
 184 1389 184 1389 264 1436 c 128,-1,3
 344 1483 344 1483 438 1483 c 0,4,5
 530 1483 530 1483 610.5 1437 c 128,-1,6
 691 1391 691 1391 737.5 1310 c 128,-1,7
 784 1229 784 1229 784 1137 c 0,8,9
 784 1044 784 1044 737.5 963.5 c 128,-1,10
 691 883 691 883 611 838 c 128,-1,11
 531 793 531 793 438 793 c 0,12,13
 293 793 293 793 192.5 892.5 c 128,-1,14
 92 992 92 992 92 1137 c 0,0,1
283 1137 m 0,15,16
 283 1073 283 1073 327.5 1028 c 128,-1,17
 372 983 372 983 438 983 c 256,18,19
 504 983 504 983 549 1029 c 128,-1,20
 594 1075 594 1075 594 1137 c 0,21,22
 594 1200 594 1200 548.5 1247 c 128,-1,23
 503 1294 503 1294 438 1294 c 0,24,25
 374 1294 374 1294 328.5 1248 c 128,-1,26
 283 1202 283 1202 283 1137 c 0,15,16
EndSplineSet
EndChar

StartChar: plusminus
Encoding: 177 177 115
Width: 1169
GlyphClass: 2
Flags: W
LayerCount: 2
Fore
SplineSet
475 674 m 1,0,-1
 88 674 l 1,1,-1
 88 893 l 1,2,-1
 475 893 l 1,3,-1
 475 1282 l 1,4,-1
 694 1282 l 1,5,-1
 694 893 l 1,6,-1
 1081 893 l 1,7,-1
 1081 674 l 1,8,-1
 694 674 l 1,9,-1
 694 289 l 1,10,-1
 475 289 l 1,11,-1
 475 674 l 1,0,-1
88 0 m 1,12,-1
 88 219 l 1,13,-1
 1081 219 l 1,14,-1
 1081 0 l 1,15,-1
 88 0 l 1,12,-1
EndSplineSet
EndChar

StartChar: twosuperior
Encoding: 178 178 116
Width: 776
GlyphClass: 2
Flags: W
LayerCount: 2
Fore
SplineSet
702 586 m 1,0,-1
 55 586 l 1,1,-1
 55 754 l 1,2,-1
 279 973 l 2,3,4
 381 1073 381 1073 409.5 1117.5 c 128,-1,5
 438 1162 438 1162 438 1212 c 0,6,7
 438 1250 438 1250 414 1270 c 128,-1,8
 390 1290 390 1290 350 1290 c 0,9,10
 269 1290 269 1290 170 1202 c 1,11,-1
 47 1354 l 1,12,13
 194 1483 194 1483 383 1483 c 0,14,15
 520 1483 520 1483 599 1416.5 c 128,-1,16
 678 1350 678 1350 678 1233 c 0,17,18
 678 1148 678 1148 631 1073 c 128,-1,19
 584 998 584 998 455 881 c 2,20,-1
 350 786 l 1,21,-1
 702 786 l 1,22,-1
 702 586 l 1,0,-1
EndSplineSet
EndChar

StartChar: threesuperior
Encoding: 179 179 117
Width: 776
GlyphClass: 2
Flags: W
LayerCount: 2
Fore
SplineSet
666 1249 m 0,0,1
 666 1106 666 1106 496 1051 c 1,2,-1
 496 1038 l 1,3,4
 590 1018 590 1018 642 963 c 128,-1,5
 694 908 694 908 694 829 c 0,6,7
 694 708 694 708 606 638.5 c 128,-1,8
 518 569 518 569 332 569 c 0,9,10
 189 569 189 569 59 639 c 1,11,-1
 59 829 l 1,12,13
 207 739 207 739 330 739 c 0,14,15
 473 739 473 739 473 846 c 0,16,17
 473 899 473 899 429 925.5 c 128,-1,18
 385 952 385 952 307 952 c 2,19,-1
 195 952 l 1,20,-1
 195 1112 l 1,21,-1
 287 1112 l 2,22,23
 370 1112 370 1112 410.5 1138 c 128,-1,24
 451 1164 451 1164 451 1221 c 0,25,26
 451 1259 451 1259 426 1284 c 128,-1,27
 401 1309 401 1309 350 1309 c 0,28,29
 303 1309 303 1309 261 1290 c 128,-1,30
 219 1271 219 1271 162 1231 c 1,31,-1
 61 1372 l 1,32,33
 123 1419 123 1419 198.5 1450 c 128,-1,34
 274 1481 274 1481 377 1481 c 0,35,36
 504 1481 504 1481 585 1417 c 128,-1,37
 666 1353 666 1353 666 1249 c 0,0,1
EndSplineSet
EndChar

StartChar: acute
Encoding: 180 180 118
Width: 1243
GlyphClass: 2
Flags: W
LayerCount: 2
Fore
SplineSet
332 1241 m 1,0,-1
 332 1268 l 1,1,2
 504 1468 504 1468 567 1569 c 1,3,-1
 909 1569 l 1,4,-1
 909 1548 l 1,5,6
 857 1496 857 1496 731.5 1393.5 c 128,-1,7
 606 1291 606 1291 535 1241 c 1,8,-1
 332 1241 l 1,0,-1
EndSplineSet
EndChar

StartChar: mu
Encoding: 181 181 119
Width: 1352
GlyphClass: 2
Flags: W
LayerCount: 2
Fore
SplineSet
465 465 m 2,0,1
 465 344 465 344 509 283.5 c 128,-1,2
 553 223 553 223 647 223 c 0,3,4
 773 223 773 223 830 309.5 c 128,-1,5
 887 396 887 396 887 592 c 2,6,-1
 887 1118 l 1,7,-1
 1192 1118 l 1,8,-1
 1192 0 l 1,9,-1
 961 0 l 1,10,-1
 918 150 l 1,11,-1
 903 150 l 1,12,13
 861 65 861 65 801 22.5 c 128,-1,14
 741 -20 741 -20 653 -20 c 0,15,16
 591 -20 591 -20 539 3 c 128,-1,17
 487 26 487 26 455 70 c 1,18,-1
 460 -15 l 1,19,-1
 465 -172 l 1,20,-1
 465 -492 l 1,21,-1
 160 -492 l 1,22,-1
 160 1118 l 1,23,-1
 465 1118 l 1,24,-1
 465 465 l 2,0,1
EndSplineSet
EndChar

StartChar: paragraph
Encoding: 182 182 120
Width: 1341
GlyphClass: 2
Flags: W
LayerCount: 2
Fore
SplineSet
1167 -260 m 1,0,-1
 1006 -260 l 1,1,-1
 1006 1356 l 1,2,-1
 840 1356 l 1,3,-1
 840 -260 l 1,4,-1
 678 -260 l 1,5,-1
 678 559 l 1,6,7
 616 541 616 541 532 541 c 0,8,9
 316 541 316 541 214.5 666 c 128,-1,10
 113 791 113 791 113 1042 c 0,11,12
 113 1302 113 1302 222 1429 c 128,-1,13
 331 1556 331 1556 563 1556 c 2,14,-1
 1167 1556 l 1,15,-1
 1167 -260 l 1,0,-1
EndSplineSet
EndChar

StartChar: periodcentered
Encoding: 183 183 121
Width: 584
GlyphClass: 2
Flags: W
LayerCount: 2
Fore
SplineSet
117 723 m 0,0,1
 117 807 117 807 162 850 c 128,-1,2
 207 893 207 893 293 893 c 0,3,4
 376 893 376 893 421.5 849 c 128,-1,5
 467 805 467 805 467 723 c 0,6,7
 467 642 467 642 420.5 597.5 c 128,-1,8
 374 553 374 553 293 553 c 0,9,10
 209 553 209 553 163 597 c 128,-1,11
 117 641 117 641 117 723 c 0,0,1
EndSplineSet
EndChar

StartChar: cedilla
Encoding: 184 184 122
Width: 420
GlyphClass: 2
Flags: W
LayerCount: 2
Fore
SplineSet
418 -250 m 0,0,1
 418 -378 418 -378 342.5 -435 c 128,-1,2
 267 -492 267 -492 109 -492 c 0,3,4
 31 -492 31 -492 -37 -471 c 1,5,-1
 -37 -303 l 1,6,7
 -10 -310 -10 -310 35.5 -317 c 128,-1,8
 81 -324 81 -324 106 -324 c 0,9,10
 178 -324 178 -324 178 -262 c 0,11,12
 178 -179 178 -179 12 -154 c 1,13,-1
 90 0 l 1,14,-1
 283 0 l 1,15,-1
 256 -61 l 1,16,17
 330 -85 330 -85 374 -135.5 c 128,-1,18
 418 -186 418 -186 418 -250 c 0,0,1
EndSplineSet
EndChar

StartChar: onesuperior
Encoding: 185 185 123
Width: 776
GlyphClass: 2
Flags: W
LayerCount: 2
Fore
SplineSet
584 586 m 1,0,-1
 346 586 l 1,1,-1
 346 1032 l 1,2,-1
 349 1144 l 1,3,-1
 354 1239 l 1,4,5
 327 1203 327 1203 279 1161 c 2,6,-1
 201 1100 l 1,7,-1
 92 1227 l 1,8,-1
 393 1462 l 1,9,-1
 584 1462 l 1,10,-1
 584 586 l 1,0,-1
EndSplineSet
EndChar

StartChar: ordmasculine
Encoding: 186 186 124
Width: 795
GlyphClass: 2
Flags: W
LayerCount: 2
Fore
SplineSet
737 1116 m 0,0,1
 737 945 737 945 645.5 848.5 c 128,-1,2
 554 752 554 752 395 752 c 0,3,4
 242 752 242 752 149.5 850.5 c 128,-1,5
 57 949 57 949 57 1116 c 0,6,7
 57 1285 57 1285 146.5 1382 c 128,-1,8
 236 1479 236 1479 399 1479 c 0,9,10
 551 1479 551 1479 644 1380.5 c 128,-1,11
 737 1282 737 1282 737 1116 c 0,0,1
260 1116 m 256,12,13
 260 1016 260 1016 292.5 965.5 c 128,-1,14
 325 915 325 915 397 915 c 256,15,16
 469 915 469 915 500.5 965.5 c 128,-1,17
 532 1016 532 1016 532 1116 c 256,18,19
 532 1216 532 1216 500.5 1265.5 c 128,-1,20
 469 1315 469 1315 397 1315 c 256,21,22
 325 1315 325 1315 292.5 1265.5 c 128,-1,23
 260 1216 260 1216 260 1116 c 256,12,13
EndSplineSet
EndChar

StartChar: guillemotright
Encoding: 187 187 125
Width: 922
GlyphClass: 2
Flags: W
LayerCount: 2
Fore
SplineSet
482 454.5 m 128,-1,1
 482 368 482 368 418 232 c 128,-1,2
 354 96 354 96 229 -43 c 1,3,-1
 119 77 l 1,4,5
 273 275 273 275 273 456 c 0,6,7
 273 484 273 484 267 518.5 c 128,-1,8
 261 553 261 553 246.5 602.5 c 128,-1,9
 232 652 232 652 199 712.5 c 128,-1,10
 166 773 166 773 119 833 c 1,11,-1
 229 953 l 1,12,13
 354 814 354 814 418 677.5 c 128,-1,0
 482 541 482 541 482 454.5 c 128,-1,1
842 454.5 m 128,-1,15
 842 368 842 368 778 232 c 128,-1,16
 714 96 714 96 589 -43 c 1,17,-1
 479 77 l 1,18,19
 633 275 633 275 633 456 c 0,20,21
 633 478 633 478 630 503 c 128,-1,22
 627 528 627 528 617 566.5 c 128,-1,23
 607 605 607 605 591 644.5 c 128,-1,24
 575 684 575 684 546 734 c 128,-1,25
 517 784 517 784 479 833 c 1,26,-1
 589 953 l 1,27,28
 714 814 714 814 778 677.5 c 128,-1,14
 842 541 842 541 842 454.5 c 128,-1,15
EndSplineSet
EndChar

StartChar: questiondown
Encoding: 191 191 129
Width: 977
GlyphClass: 2
Flags: W
LayerCount: 2
Fore
SplineSet
713 606 m 1,0,-1
 713 532 l 2,1,2
 713 434 713 434 668.5 363 c 128,-1,3
 624 292 624 292 516 215 c 0,4,5
 407 137 407 137 378.5 93 c 128,-1,6
 350 49 350 49 350 -14 c 0,7,8
 350 -71 350 -71 393.5 -108 c 128,-1,9
 437 -145 437 -145 526 -145 c 0,10,11
 605 -145 605 -145 695 -116 c 128,-1,12
 785 -87 785 -87 881 -45 c 1,13,-1
 983 -266 l 1,14,15
 885 -322 885 -322 761.5 -356.5 c 128,-1,16
 638 -391 638 -391 532 -391 c 0,17,18
 312 -391 312 -391 186.5 -294.5 c 128,-1,19
 61 -198 61 -198 61 -29 c 0,20,21
 61 79 61 79 109.5 158 c 128,-1,22
 158 237 158 237 301 342 c 0,23,24
 396 412 396 412 422.5 449 c 128,-1,25
 449 486 449 486 449 547 c 2,26,-1
 449 606 l 1,27,-1
 713 606 l 1,0,-1
745 948 m 0,28,29
 745 864 745 864 700 821 c 128,-1,30
 655 778 655 778 569 778 c 0,31,32
 486 778 486 778 440.5 822 c 128,-1,33
 395 866 395 866 395 948 c 0,34,35
 395 1029 395 1029 441.5 1073.5 c 128,-1,36
 488 1118 488 1118 569 1118 c 0,37,38
 653 1118 653 1118 699 1074 c 128,-1,39
 745 1030 745 1030 745 948 c 0,28,29
EndSplineSet
EndChar

StartChar: circumflex
Encoding: 710 710 131
Width: 1243
GlyphClass: 2
Flags: W
LayerCount: 2
Fore
SplineSet
852 1241 m 1,0,1
 695 1334 695 1334 618 1417 c 1,2,3
 540 1336 540 1336 389 1241 c 1,4,-1
 186 1241 l 1,5,-1
 186 1268 l 1,6,7
 375 1457 375 1457 442 1569 c 1,8,-1
 799 1569 l 1,9,10
 830 1517 830 1517 906.5 1427.5 c 128,-1,11
 983 1338 983 1338 1055 1268 c 1,12,-1
 1055 1241 l 1,13,-1
 852 1241 l 1,0,1
EndSplineSet
EndChar

StartChar: caron
Encoding: 711 711 132
Width: 1243
GlyphClass: 2
Flags: W
LayerCount: 2
Fore
SplineSet
1055 1569 m 1,0,-1
 1055 1542 l 1,1,2
 971 1458 971 1458 900.5 1374.5 c 128,-1,3
 830 1291 830 1291 799 1241 c 1,4,-1
 442 1241 l 1,5,6
 413 1288 413 1288 359 1353.5 c 128,-1,7
 305 1419 305 1419 186 1542 c 1,8,-1
 186 1569 l 1,9,-1
 389 1569 l 1,10,11
 536 1476 536 1476 618 1393 c 1,12,13
 702 1480 702 1480 852 1569 c 1,14,-1
 1055 1569 l 1,0,-1
EndSplineSet
EndChar

StartChar: macron
Encoding: 713 713 133
Width: 1243
GlyphClass: 2
Flags: W
LayerCount: 2
Fore
SplineSet
283 1452 m 1,0,-1
 961 1452 l 1,1,-1
 961 1241 l 1,2,-1
 283 1241 l 1,3,-1
 283 1452 l 1,0,-1
EndSplineSet
EndChar

StartChar: breve
Encoding: 728 728 134
Width: 1243
GlyphClass: 2
Flags: W
LayerCount: 2
Fore
SplineSet
1014 1579 m 1,0,1
 1002 1425 1002 1425 892 1333 c 128,-1,2
 782 1241 782 1241 616 1241 c 0,3,4
 442 1241 442 1241 338.5 1332 c 128,-1,5
 235 1423 235 1423 227 1579 c 1,6,-1
 397 1579 l 1,7,8
 401 1532 401 1532 424.5 1505 c 128,-1,9
 448 1478 448 1478 490.5 1466 c 128,-1,10
 533 1454 533 1454 618 1454 c 0,11,12
 824 1454 824 1454 840 1579 c 1,13,-1
 1014 1579 l 1,0,1
EndSplineSet
EndChar

StartChar: dotaccent
Encoding: 729 729 135
Width: 625
GlyphClass: 2
Flags: W
LayerCount: 2
Fore
SplineSet
147 1407 m 0,0,1
 147 1556 147 1556 313 1556 c 256,2,3
 479 1556 479 1556 479 1407 c 0,4,5
 479 1336 479 1336 437.5 1296.5 c 128,-1,6
 396 1257 396 1257 313 1257 c 0,7,8
 147 1257 147 1257 147 1407 c 0,0,1
EndSplineSet
EndChar

StartChar: ring
Encoding: 730 730 136
Width: 1182
GlyphClass: 2
Flags: W
LayerCount: 2
Fore
SplineSet
842 1479 m 0,0,1
 842 1371 842 1371 771 1305 c 128,-1,2
 700 1239 700 1239 588 1239 c 256,3,4
 476 1239 476 1239 408 1303 c 128,-1,5
 340 1367 340 1367 340 1477 c 0,6,7
 340 1585 340 1585 407.5 1649.5 c 128,-1,8
 475 1714 475 1714 588 1714 c 0,9,10
 698 1714 698 1714 770 1648 c 128,-1,11
 842 1582 842 1582 842 1479 c 0,0,1
684 1477 m 256,12,13
 684 1522 684 1522 657 1547.5 c 128,-1,14
 630 1573 630 1573 588 1573 c 256,15,16
 546 1573 546 1573 519 1547.5 c 128,-1,17
 492 1522 492 1522 492 1477 c 256,18,19
 492 1432 492 1432 516 1406 c 128,-1,20
 540 1380 540 1380 588 1380 c 0,21,22
 630 1380 630 1380 657 1406 c 128,-1,23
 684 1432 684 1432 684 1477 c 256,12,13
EndSplineSet
EndChar

StartChar: ogonek
Encoding: 731 731 137
Width: 422
GlyphClass: 2
Flags: W
LayerCount: 2
Fore
SplineSet
221 -227 m 0,0,1
 221 -269 221 -269 243.5 -289 c 128,-1,2
 266 -309 266 -309 301 -309 c 0,3,4
 356 -309 356 -309 416 -291 c 1,5,-1
 416 -469 l 1,6,7
 334 -492 334 -492 260 -492 c 0,8,9
 147 -492 147 -492 78.5 -428.5 c 128,-1,10
 10 -365 10 -365 10 -262 c 0,11,12
 10 -195 10 -195 48 -136 c 128,-1,13
 86 -77 86 -77 190 0 c 1,14,-1
 369 0 l 1,15,16
 299 -66 299 -66 260 -120.5 c 128,-1,17
 221 -175 221 -175 221 -227 c 0,0,1
EndSplineSet
EndChar

StartChar: tilde
Encoding: 732 732 138
Width: 1243
GlyphClass: 2
Flags: W
LayerCount: 2
Fore
SplineSet
457 1346 m 0,0,1
 426 1346 426 1346 397.5 1319.5 c 128,-1,2
 369 1293 369 1293 356 1239 c 1,3,-1
 207 1239 l 1,4,5
 218 1384 218 1384 289.5 1466 c 128,-1,6
 361 1548 361 1548 479 1548 c 0,7,8
 520 1548 520 1548 559.5 1531.5 c 128,-1,9
 599 1515 599 1515 637.5 1495.5 c 128,-1,10
 676 1476 676 1476 713 1460 c 128,-1,11
 750 1444 750 1444 786 1444 c 0,12,13
 817 1444 817 1444 845.5 1470 c 128,-1,14
 874 1496 874 1496 887 1550 c 1,15,-1
 1036 1550 l 1,16,17
 1025 1405 1025 1405 952.5 1323 c 128,-1,18
 880 1241 880 1241 764 1241 c 0,19,20
 723 1241 723 1241 683.5 1257.5 c 128,-1,21
 644 1274 644 1274 605.5 1293.5 c 128,-1,22
 567 1313 567 1313 530 1329.5 c 128,-1,23
 493 1346 493 1346 457 1346 c 0,0,1
EndSplineSet
EndChar

StartChar: hungarumlaut
Encoding: 733 733 139
Width: 1204
GlyphClass: 2
Flags: W
LayerCount: 2
Fore
SplineSet
156 1241 m 1,0,-1
 156 1268 l 1,1,2
 218 1353 218 1353 273.5 1440.5 c 128,-1,3
 329 1528 329 1528 350 1569 c 1,4,-1
 651 1569 l 1,5,-1
 651 1548 l 1,6,7
 619 1495 619 1495 505 1395 c 128,-1,8
 391 1295 391 1295 317 1241 c 1,9,-1
 156 1241 l 1,0,-1
553 1241 m 1,10,-1
 553 1268 l 1,11,12
 692 1460 692 1460 748 1569 c 1,13,-1
 1049 1569 l 1,14,-1
 1049 1548 l 1,15,16
 1024 1505 1024 1505 923.5 1413.5 c 128,-1,17
 823 1322 823 1322 715 1241 c 1,18,-1
 553 1241 l 1,10,-1
EndSplineSet
EndChar

StartChar: uni02F3
Encoding: 755 755 140
Width: 682
GlyphClass: 2
Flags: W
LayerCount: 2
Fore
SplineSet
590 -360 m 0,0,1
 590 -468 590 -468 519 -534 c 128,-1,2
 448 -600 448 -600 336 -600 c 256,3,4
 224 -600 224 -600 156 -536 c 128,-1,5
 88 -472 88 -472 88 -362 c 0,6,7
 88 -254 88 -254 155.5 -189.5 c 128,-1,8
 223 -125 223 -125 336 -125 c 0,9,10
 446 -125 446 -125 518 -191 c 128,-1,11
 590 -257 590 -257 590 -360 c 0,0,1
432 -362 m 256,12,13
 432 -317 432 -317 405 -291.5 c 128,-1,14
 378 -266 378 -266 336 -266 c 256,15,16
 294 -266 294 -266 267 -291.5 c 128,-1,17
 240 -317 240 -317 240 -362 c 256,18,19
 240 -407 240 -407 264 -433 c 128,-1,20
 288 -459 288 -459 336 -459 c 0,21,22
 378 -459 378 -459 405 -433 c 128,-1,23
 432 -407 432 -407 432 -362 c 256,12,13
EndSplineSet
EndChar

StartChar: hook
Encoding: 777 777 141
Width: 0
GlyphClass: 2
Flags: W
LayerCount: 2
Fore
SplineSet
-352 1487 m 0,0,1
 -352 1331 -352 1331 -514 1290 c 1,2,-1
 -524 1219 l 1,3,-1
 -698 1219 l 1,4,-1
 -721 1366 l 1,5,6
 -646 1378 -646 1378 -619 1403.5 c 128,-1,7
 -592 1429 -592 1429 -592 1466 c 0,8,9
 -592 1498 -592 1498 -613 1515 c 128,-1,10
 -634 1532 -634 1532 -668 1532 c 0,11,12
 -733 1532 -733 1532 -807 1509 c 1,13,-1
 -807 1677 l 1,14,15
 -777 1687 -777 1687 -724.5 1693.5 c 128,-1,16
 -672 1700 -672 1700 -631 1700 c 0,17,18
 -491 1700 -491 1700 -421.5 1644.5 c 128,-1,19
 -352 1589 -352 1589 -352 1487 c 0,0,1
EndSplineSet
EndChar

StartChar: uni030F
Encoding: 783 783 142
Width: 0
GlyphClass: 2
Flags: W
LayerCount: 2
Fore
SplineSet
-442 1241 m 1,0,1
 -504 1290 -504 1290 -613 1391.5 c 128,-1,2
 -722 1493 -722 1493 -756 1548 c 1,3,-1
 -756 1569 l 1,4,-1
 -455 1569 l 1,5,6
 -422 1497 -422 1497 -372 1410.5 c 128,-1,7
 -322 1324 -322 1324 -281 1268 c 1,8,-1
 -281 1241 l 1,9,-1
 -442 1241 l 1,0,1
-840 1241 m 1,10,11
 -913 1298 -913 1298 -1017.5 1398 c 128,-1,12
 -1122 1498 -1122 1498 -1153 1548 c 1,13,-1
 -1153 1569 l 1,14,-1
 -852 1569 l 1,15,16
 -819 1497 -819 1497 -769 1410.5 c 128,-1,17
 -719 1324 -719 1324 -678 1268 c 1,18,-1
 -678 1241 l 1,19,-1
 -840 1241 l 1,10,11
EndSplineSet
EndChar

StartChar: dotbelow
Encoding: 803 803 143
Width: 0
GlyphClass: 2
Flags: W
LayerCount: 2
Fore
SplineSet
-807 -281 m 0,0,1
 -807 -131 -807 -131 -641 -131 c 256,2,3
 -475 -131 -475 -131 -475 -281 c 0,4,5
 -475 -352 -475 -352 -517 -391 c 128,-1,6
 -559 -430 -559 -430 -641 -430 c 0,7,8
 -807 -430 -807 -430 -807 -281 c 0,0,1
EndSplineSet
EndChar

StartChar: tonos
Encoding: 900 900 144
Width: 1182
GlyphClass: 2
Flags: W
LayerCount: 2
Fore
SplineSet
471 1272 m 1,0,1
 489 1326 489 1326 515.5 1436 c 128,-1,2
 542 1546 542 1546 553 1630 c 1,3,-1
 836 1630 l 1,4,-1
 836 1606 l 1,5,6
 758 1420 758 1420 649 1241 c 1,7,-1
 471 1241 l 1,8,-1
 471 1272 l 1,0,1
EndSplineSet
EndChar

StartChar: uni060C
Encoding: 1548 1548 145
Width: 588
GlyphClass: 2
Flags: W
LayerCount: 2
Fore
SplineSet
295 1 m 0,0,1
 208 1 208 1 158 61.5 c 128,-1,2
 108 122 108 122 108 204 c 0,3,4
 108 306 108 306 137.5 400 c 128,-1,5
 167 494 167 494 214.5 562.5 c 128,-1,6
 262 631 262 631 318.5 679.5 c 128,-1,7
 375 728 375 728 433 751 c 0,8,9
 486 772 486 772 512 755 c 0,10,11
 536 740 536 740 500 709 c 0,12,13
 496 706 496 706 493 704 c 0,14,15
 410 641 410 641 360.5 550 c 128,-1,16
 311 459 311 459 310 370 c 1,17,18
 350 368 350 368 380.5 354.5 c 128,-1,19
 411 341 411 341 429.5 322 c 128,-1,20
 448 303 448 303 459.5 279 c 128,-1,21
 471 255 471 255 475.5 233 c 128,-1,22
 480 211 480 211 480 189 c 0,23,24
 480 113 480 113 429.5 57 c 128,-1,25
 379 1 379 1 295 1 c 0,0,1
EndSplineSet
EndChar

StartChar: uni060D
Encoding: 1549 1549 146
Width: 828
GlyphClass: 2
Flags: W
LayerCount: 2
Fore
SplineSet
557 1458 m 1,0,-1
 776 1392 l 1,1,-1
 223 -220 l 1,2,-1
 4 -154 l 1,3,-1
 557 1458 l 1,0,-1
EndSplineSet
EndChar

StartChar: uni0615
Encoding: 1557 1557 147
Width: 0
GlyphClass: 4
Flags: W
AnchorPoint: "Anchor-5" 554 2839 basemark 0
AnchorPoint: "Anchor-5" 702 1946 mark 0
AnchorPoint: "Anchor-1" 702 1946 mark 0
AnchorPoint: "Anchor-0" 702 1946 mark 0
LayerCount: 2
Fore
SplineSet
998 2475 m 0,0,1
 1081 2475 1081 2475 1125.5 2425.5 c 128,-1,2
 1170 2376 1170 2376 1170 2284 c 0,3,4
 1170 2210 1170 2210 1135.5 2157 c 128,-1,5
 1101 2104 1101 2104 1038 2074.5 c 128,-1,6
 975 2045 975 2045 898.5 2031.5 c 128,-1,7
 822 2018 822 2018 727 2018 c 2,8,-1
 420 2018 l 1,9,-1
 367 2118 l 1,10,-1
 504 2118 l 1,11,-1
 504 2789 l 1,12,-1
 606 2789 l 1,13,-1
 606 2169 l 1,14,15
 817 2475 817 2475 998 2475 c 0,0,1
1070 2274 m 0,16,17
 1070 2358 1070 2358 996 2358 c 0,18,19
 874 2358 874 2358 676 2118 c 1,20,-1
 778 2118 l 2,21,22
 1070 2118 1070 2118 1070 2274 c 0,16,17
EndSplineSet
EndChar

StartChar: uni061B
Encoding: 1563 1563 148
Width: 588
GlyphClass: 2
Flags: W
LayerCount: 2
Fore
SplineSet
295 557 m 0,0,1
 208 557 208 557 158 617.5 c 128,-1,2
 108 678 108 678 108 760 c 128,-1,3
 108 842 108 842 127.5 920 c 128,-1,4
 147 998 147 998 179.5 1059 c 128,-1,5
 212 1120 212 1120 254 1170.5 c 128,-1,6
 296 1221 296 1221 341.5 1255 c 128,-1,7
 387 1289 387 1289 433 1307 c 0,8,9
 486 1328 486 1328 512 1311 c 0,10,11
 536 1296 536 1296 500 1265 c 1,12,-1
 493 1260 l 2,13,14
 410 1197 410 1197 360.5 1106 c 128,-1,15
 311 1015 311 1015 310 926 c 1,16,17
 339 925 339 925 363 917 c 128,-1,18
 387 909 387 909 404 898 c 128,-1,19
 421 887 421 887 434.5 872 c 128,-1,20
 448 857 448 857 456.5 841.5 c 128,-1,21
 465 826 465 826 470.5 808.5 c 128,-1,22
 476 791 476 791 478 775.5 c 128,-1,23
 480 760 480 760 480 745 c 0,24,25
 480 669 480 669 429.5 613 c 128,-1,26
 379 557 379 557 295 557 c 0,0,1
295 1 m 0,27,28
 217 1 217 1 162 56 c 128,-1,29
 107 111 107 111 107 189 c 0,30,31
 107 266 107 266 162 321 c 128,-1,32
 217 376 217 376 295 376 c 0,33,34
 372 376 372 376 427 321 c 128,-1,35
 482 266 482 266 482 189 c 0,36,37
 482 111 482 111 427 56 c 128,-1,38
 372 1 372 1 295 1 c 0,27,28
EndSplineSet
EndChar

StartChar: uni061F
Encoding: 1567 1567 149
Width: 964
GlyphClass: 2
Flags: W
LayerCount: 2
Fore
SplineSet
570 1 m 0,0,1
 493 1 493 1 437.5 56 c 128,-1,2
 382 111 382 111 382 189 c 0,3,4
 382 266 382 266 437.5 321 c 128,-1,5
 493 376 493 376 570 376 c 256,6,7
 647 376 647 376 702 321 c 128,-1,8
 757 266 757 266 757 189 c 0,9,10
 757 111 757 111 702.5 56 c 128,-1,11
 648 1 648 1 570 1 c 0,0,1
526 1197 m 0,12,13
 444 1197 444 1197 395.5 1160 c 128,-1,14
 347 1123 347 1123 347 1050 c 0,15,16
 347 985 347 985 473 883 c 2,17,-1
 523 844 l 2,18,19
 674 724 674 724 674 593 c 2,20,-1
 674 582 l 2,21,22
 674 558 674 558 634 558 c 2,23,-1
 513 558 l 2,24,25
 464 558 464 558 464 581 c 2,26,-1
 464 592 l 2,27,28
 464 630 464 630 312 739 c 2,29,-1
 221 803 l 2,30,31
 54 921 54 921 54 1088 c 0,32,33
 54 1265 54 1265 175.5 1376 c 128,-1,34
 297 1487 297 1487 485 1487 c 0,35,36
 664 1486 664 1486 781 1375.5 c 128,-1,37
 898 1265 898 1265 898 1080 c 0,38,39
 898 1021 898 1021 894 989 c 1,40,-1
 750 989 l 1,41,42
 732 1197 732 1197 526 1197 c 0,12,13
EndSplineSet
EndChar

StartChar: uni0621
Encoding: 1569 1569 150
Width: 835
GlyphClass: 2
Flags: W
AnchorPoint: "Anchor-3" 483 -27 basechar 0
AnchorPoint: "Anchor-1" 421 1067 basechar 0
LayerCount: 2
Fore
SplineSet
747 353 m 2,0,-1
 728 162 l 1,1,2
 559 139 559 139 409 96.5 c 128,-1,3
 259 54 259 54 91 -15 c 1,4,-1
 89 232 l 1,5,-1
 222 272 l 1,6,7
 143 359 143 359 143 459 c 0,8,9
 143 601 143 601 228 692.5 c 128,-1,10
 313 784 313 784 449 784 c 0,11,12
 517 784 517 784 582 760 c 128,-1,13
 647 736 647 736 689 695 c 1,14,-1
 645 529 l 1,15,16
 565 568 565 568 477 568 c 0,17,18
 409 568 409 568 362.5 536.5 c 128,-1,19
 316 505 316 505 311 463 c 0,20,21
 311 435 311 435 366.5 392.5 c 128,-1,22
 422 350 422 350 458 341 c 1,23,24
 485 342 485 342 580 367 c 2,25,-1
 684 394 l 2,26,27
 724 406 724 406 737 398.5 c 128,-1,28
 750 391 750 391 747 353 c 2,0,-1
EndSplineSet
EndChar

StartChar: uni0627
Encoding: 1575 1575 156
Width: 492
GlyphClass: 2
Flags: W
AnchorPoint: "Anchor-3" 228 -216 basechar 0
AnchorPoint: "Anchor-1" 200 1620 basechar 0
LayerCount: 2
Fore
SplineSet
339 1474 m 2,0,-1
 406 79 l 1,1,-1
 191 -27 l 1,2,-1
 76 1200 l 1,3,-1
 293 1486 l 2,4,5
 304 1501 304 1501 321 1496 c 256,6,7
 338 1491 338 1491 339 1474 c 2,0,-1
EndSplineSet
Substitution2: "'fina' Terminal Forms in Arabic lookup 1 subtable" uniFE8E
EndChar

StartChar: uni062D
Encoding: 1581 1581 162
Width: 1321
GlyphClass: 2
Flags: W
AnchorPoint: "Anchor-3" 707 -851 basechar 0
AnchorPoint: "Anchor-1" 662 1200 basechar 0
LayerCount: 2
Fore
SplineSet
1403 -359 m 0,0,1
 1303 -516 1303 -516 1085.5 -613.5 c 128,-1,2
 868 -711 868 -711 668 -705 c 0,3,4
 458 -700 458 -700 302.5 -583 c 128,-1,5
 147 -466 147 -466 120 -268 c 0,6,7
 39 318 39 318 549 552 c 1,8,9
 187 694 187 694 83 475 c 0,10,11
 78 465 78 465 71 466 c 0,12,13
 66 468 66 468 65 476 c 0,14,15
 74 671 74 671 203 805 c 128,-1,16
 332 939 332 939 515 891 c 0,17,18
 600 869 600 869 713 826 c 128,-1,19
 826 783 826 783 884.5 763 c 128,-1,20
 943 743 943 743 1060 729 c 128,-1,21
 1177 715 1177 715 1270 750 c 1,22,-1
 1111 429 l 1,23,24
 466 362 466 362 256 54 c 1,25,26
 264 -43 264 -43 293.5 -120 c 0,27,28
 317.851965269 -183.562756803 317.851965269 -183.562756803 382.5 -244 c 0,29,30
 513 -367 513 -367 793.5 -390 c 0,31,32
 867.608865896 -396.349168822 867.608865896 -396.349168822 962 -387.5 c 0,33,34
 1074 -377 1074 -377 1116 -372.5 c 128,-1,35
 1158 -368 1158 -368 1268 -351 c 128,-1,36
 1378 -334 1378 -334 1389 -332 c 0,37,38
 1402 -330 1402 -330 1406 -338.5 c 128,-1,39
 1410 -347 1410 -347 1403 -359 c 0,0,1
EndSplineSet
Substitution2: "'init' Initial Forms in Arabic lookup 3 subtable" uniFEA3
Substitution2: "'medi' Medial Forms in Arabic lookup 2 subtable" uniFEA4
Substitution2: "'fina' Terminal Forms in Arabic lookup 1 subtable" uniFEA2
EndChar

StartChar: uni062F
Encoding: 1583 1583 164
Width: 952
GlyphClass: 2
Flags: W
AnchorPoint: "Anchor-3" 338 -217 basechar 0
AnchorPoint: "Anchor-1" 383 1336 basechar 0
LayerCount: 2
Fore
SplineSet
846 366 m 1,0,1
 811 111 811 111 769 55.5 c 128,-1,2
 727 0 727 0 564 0 c 2,3,-1
 190 0 l 2,4,5
 104 0 104 0 92.5 15 c 132,-1,6
 81 30 81 30 102 118 c 2,7,-1
 154 366 l 1,8,-1
 657 366 l 1,9,10
 633 443 633 443 564.5 509.5 c 128,-1,11
 496 576 496 576 441 607.5 c 128,-1,12
 386 639 386 639 286 687 c 1,13,-1
 365 1039 l 1,14,15
 628 907 628 907 740 775 c 0,16,17
 885 604 885 604 846 366 c 1,0,1
EndSplineSet
Substitution2: "'fina' Terminal Forms in Arabic lookup 1 subtable" uniFEAA
PairPos2: "'kern' Horizontal Kerning in Arabic lookup 0 per glyph data 4" uniFB94 dx=-120 dy=0 dh=-120 dv=0 dx=0 dy=0 dh=0 dv=0
PairPos2: "'kern' Horizontal Kerning in Arabic lookup 0 per glyph data 4" uniFB90 dx=-120 dy=0 dh=-120 dv=0 dx=0 dy=0 dh=0 dv=0
PairPos2: "'kern' Horizontal Kerning in Arabic lookup 0 per glyph data 4" uni06AF dx=-120 dy=0 dh=-120 dv=0 dx=0 dy=0 dh=0 dv=0
PairPos2: "'kern' Horizontal Kerning in Arabic lookup 0 per glyph data 4" uni06A9 dx=-120 dy=0 dh=-120 dv=0 dx=0 dy=0 dh=0 dv=0
EndChar

StartChar: uni0631
Encoding: 1585 1585 166
Width: 858
GlyphClass: 2
Flags: W
AnchorPoint: "Anchor-3" 449 -652 basechar 0
AnchorPoint: "Anchor-1" 564 956 basechar 0
LayerCount: 2
Fore
SplineSet
-144 -318 m 0,0,1
 -155 -308 -155 -308 -151 -297.5 c 128,-1,2
 -147 -287 -147 -287 -134 -289 c 0,3,4
 43 -310 43 -310 298.5 -185 c 128,-1,5
 554 -60 554 -60 647 107 c 1,6,7
 621 153 621 153 589 191 c 128,-1,8
 557 229 557 229 502.5 282 c 128,-1,9
 448 335 448 335 431 354 c 1,10,-1
 506 717 l 1,11,12
 630 624 630 624 714.5 466 c 128,-1,13
 799 308 799 308 799 175 c 0,14,15
 799 -15 799 -15 733 -162 c 0,16,17
 643 -362 643 -362 463.5 -493.5 c 128,-1,18
 284 -625 284 -625 106 -523 c 0,19,20
 40 -484 40 -484 -144 -318 c 0,0,1
EndSplineSet
Substitution2: "'fina' Terminal Forms in Arabic lookup 1 subtable" uniFEAE
PairPos2: "'kern' Horizontal Kerning in Arabic lookup 0 per glyph data 3" uni06C0 dx=-128 dy=0 dh=-128 dv=0 dx=0 dy=0 dh=0 dv=0
PairPos2: "'kern' Horizontal Kerning in Arabic lookup 0 per glyph data 3" uni0621 dx=-128 dy=0 dh=-128 dv=0 dx=0 dy=0 dh=0 dv=0
PairPos2: "'kern' Horizontal Kerning in Arabic lookup 0 per glyph data 2" uni0648 dx=-43 dy=0 dh=-43 dv=0 dx=0 dy=0 dh=0 dv=0
PairPos2: "'kern' Horizontal Kerning in Arabic lookup 0 per glyph data 0" uniFEEB dx=-128 dy=0 dh=-128 dv=0 dx=0 dy=0 dh=0 dv=0
PairPos2: "'kern' Horizontal Kerning in Arabic lookup 0 per glyph data 0" uniFEE7 dx=-128 dy=0 dh=-128 dv=0 dx=0 dy=0 dh=0 dv=0
PairPos2: "'kern' Horizontal Kerning in Arabic lookup 0 per glyph data 0" uniFEE3 dx=-128 dy=0 dh=-128 dv=0 dx=0 dy=0 dh=0 dv=0
PairPos2: "'kern' Horizontal Kerning in Arabic lookup 0 per glyph data 0" uniFEDF dx=-128 dy=0 dh=-128 dv=0 dx=0 dy=0 dh=0 dv=0
PairPos2: "'kern' Horizontal Kerning in Arabic lookup 0 per glyph data 0" uniFEDB dx=-213 dy=0 dh=-213 dv=0 dx=0 dy=0 dh=0 dv=0
PairPos2: "'kern' Horizontal Kerning in Arabic lookup 0 per glyph data 0" uniFED7 dx=-128 dy=0 dh=-128 dv=0 dx=0 dy=0 dh=0 dv=0
PairPos2: "'kern' Horizontal Kerning in Arabic lookup 0 per glyph data 0" uniFED3 dx=-128 dy=0 dh=-128 dv=0 dx=0 dy=0 dh=0 dv=0
PairPos2: "'kern' Horizontal Kerning in Arabic lookup 0 per glyph data 0" uniFECF dx=-128 dy=0 dh=-128 dv=0 dx=0 dy=0 dh=0 dv=0
PairPos2: "'kern' Horizontal Kerning in Arabic lookup 0 per glyph data 0" uniFECB dx=-128 dy=0 dh=-128 dv=0 dx=0 dy=0 dh=0 dv=0
PairPos2: "'kern' Horizontal Kerning in Arabic lookup 0 per glyph data 0" uniFEC7 dx=-128 dy=0 dh=-128 dv=0 dx=0 dy=0 dh=0 dv=0
PairPos2: "'kern' Horizontal Kerning in Arabic lookup 0 per glyph data 0" uniFEC3 dx=-128 dy=0 dh=-128 dv=0 dx=0 dy=0 dh=0 dv=0
PairPos2: "'kern' Horizontal Kerning in Arabic lookup 0 per glyph data 0" uniFEBF dx=-128 dy=0 dh=-128 dv=0 dx=0 dy=0 dh=0 dv=0
PairPos2: "'kern' Horizontal Kerning in Arabic lookup 0 per glyph data 0" uniFEBB dx=-128 dy=0 dh=-128 dv=0 dx=0 dy=0 dh=0 dv=0
PairPos2: "'kern' Horizontal Kerning in Arabic lookup 0 per glyph data 0" uniFEB7 dx=-128 dy=0 dh=-128 dv=0 dx=0 dy=0 dh=0 dv=0
PairPos2: "'kern' Horizontal Kerning in Arabic lookup 0 per glyph data 0" uniFEB3 dx=-128 dy=0 dh=-128 dv=0 dx=0 dy=0 dh=0 dv=0
PairPos2: "'kern' Horizontal Kerning in Arabic lookup 0 per glyph data 0" uniFEA7 dx=-128 dy=0 dh=-128 dv=0 dx=0 dy=0 dh=0 dv=0
PairPos2: "'kern' Horizontal Kerning in Arabic lookup 0 per glyph data 0" uniFEA3 dx=-128 dy=0 dh=-128 dv=0 dx=0 dy=0 dh=0 dv=0
PairPos2: "'kern' Horizontal Kerning in Arabic lookup 0 per glyph data 0" uniFE9F dx=-128 dy=0 dh=-128 dv=0 dx=0 dy=0 dh=0 dv=0
PairPos2: "'kern' Horizontal Kerning in Arabic lookup 0 per glyph data 0" uniFE9B dx=-128 dy=0 dh=-128 dv=0 dx=0 dy=0 dh=0 dv=0
PairPos2: "'kern' Horizontal Kerning in Arabic lookup 0 per glyph data 0" uniFE97 dx=-128 dy=0 dh=-128 dv=0 dx=0 dy=0 dh=0 dv=0
PairPos2: "'kern' Horizontal Kerning in Arabic lookup 0 per glyph data 0" uniFE91 dx=-53 dy=0 dh=-53 dv=0 dx=0 dy=0 dh=0 dv=0
PairPos2: "'kern' Horizontal Kerning in Arabic lookup 0 per glyph data 0" uniFB94 dx=-235 dy=0 dh=-235 dv=0 dx=0 dy=0 dh=0 dv=0
PairPos2: "'kern' Horizontal Kerning in Arabic lookup 0 per glyph data 0" uniFB90 dx=-213 dy=0 dh=-213 dv=0 dx=0 dy=0 dh=0 dv=0
PairPos2: "'kern' Horizontal Kerning in Arabic lookup 0 per glyph data 0" uniFB7C dx=-115 dy=0 dh=-115 dv=0 dx=0 dy=0 dh=0 dv=0
PairPos2: "'kern' Horizontal Kerning in Arabic lookup 0 per glyph data 0" uniFB58 dx=20 dy=0 dh=20 dv=0 dx=0 dy=0 dh=0 dv=0
PairPos2: "'kern' Horizontal Kerning in Arabic lookup 0 per glyph data 0" uniFB56 dx=-128 dy=0 dh=-128 dv=0 dx=0 dy=0 dh=0 dv=0
PairPos2: "'kern' Horizontal Kerning in Arabic lookup 0 per glyph data 0" uni06CC dx=-43 dy=0 dh=-43 dv=0 dx=0 dy=0 dh=0 dv=0
PairPos2: "'kern' Horizontal Kerning in Arabic lookup 0 per glyph data 0" uni06AF dx=-235 dy=0 dh=-235 dv=0 dx=0 dy=0 dh=0 dv=0
PairPos2: "'kern' Horizontal Kerning in Arabic lookup 0 per glyph data 0" uni06A9 dx=-213 dy=0 dh=-213 dv=0 dx=0 dy=0 dh=0 dv=0
PairPos2: "'kern' Horizontal Kerning in Arabic lookup 0 per glyph data 0" uni067E dx=-128 dy=0 dh=-128 dv=0 dx=0 dy=0 dh=0 dv=0
PairPos2: "'kern' Horizontal Kerning in Arabic lookup 0 per glyph data 0" uni0649 dx=-43 dy=0 dh=-43 dv=0 dx=0 dy=0 dh=0 dv=0
PairPos2: "'kern' Horizontal Kerning in Arabic lookup 0 per glyph data 0" uni0647 dx=-128 dy=0 dh=-128 dv=0 dx=0 dy=0 dh=0 dv=0
PairPos2: "'kern' Horizontal Kerning in Arabic lookup 0 per glyph data 0" uni0645 dx=-128 dy=0 dh=-128 dv=0 dx=0 dy=0 dh=0 dv=0
PairPos2: "'kern' Horizontal Kerning in Arabic lookup 0 per glyph data 0" uni0644 dx=-43 dy=0 dh=-43 dv=0 dx=0 dy=0 dh=0 dv=0
PairPos2: "'kern' Horizontal Kerning in Arabic lookup 0 per glyph data 0" uni0642 dx=-43 dy=0 dh=-43 dv=0 dx=0 dy=0 dh=0 dv=0
PairPos2: "'kern' Horizontal Kerning in Arabic lookup 0 per glyph data 0" uni0641 dx=-128 dy=0 dh=-128 dv=0 dx=0 dy=0 dh=0 dv=0
PairPos2: "'kern' Horizontal Kerning in Arabic lookup 0 per glyph data 0" uni0638 dx=-128 dy=0 dh=-128 dv=0 dx=0 dy=0 dh=0 dv=0
PairPos2: "'kern' Horizontal Kerning in Arabic lookup 0 per glyph data 0" uni0637 dx=-128 dy=0 dh=-128 dv=0 dx=0 dy=0 dh=0 dv=0
PairPos2: "'kern' Horizontal Kerning in Arabic lookup 0 per glyph data 0" uni0636 dx=-128 dy=0 dh=-128 dv=0 dx=0 dy=0 dh=0 dv=0
PairPos2: "'kern' Horizontal Kerning in Arabic lookup 0 per glyph data 0" uni0635 dx=-128 dy=0 dh=-128 dv=0 dx=0 dy=0 dh=0 dv=0
PairPos2: "'kern' Horizontal Kerning in Arabic lookup 0 per glyph data 0" uni0634 dx=-128 dy=0 dh=-128 dv=0 dx=0 dy=0 dh=0 dv=0
PairPos2: "'kern' Horizontal Kerning in Arabic lookup 0 per glyph data 0" uni0633 dx=-128 dy=0 dh=-128 dv=0 dx=0 dy=0 dh=0 dv=0
PairPos2: "'kern' Horizontal Kerning in Arabic lookup 0 per glyph data 0" uni0632 dx=-43 dy=0 dh=-43 dv=0 dx=0 dy=0 dh=0 dv=0
PairPos2: "'kern' Horizontal Kerning in Arabic lookup 0 per glyph data 0" uni0631 dx=-43 dy=0 dh=-43 dv=0 dx=0 dy=0 dh=0 dv=0
PairPos2: "'kern' Horizontal Kerning in Arabic lookup 0 per glyph data 0" uni0630 dx=-128 dy=0 dh=-128 dv=0 dx=0 dy=0 dh=0 dv=0
PairPos2: "'kern' Horizontal Kerning in Arabic lookup 0 per glyph data 0" uni062F dx=-128 dy=0 dh=-128 dv=0 dx=0 dy=0 dh=0 dv=0
PairPos2: "'kern' Horizontal Kerning in Arabic lookup 0 per glyph data 0" uni062B dx=-128 dy=0 dh=-128 dv=0 dx=0 dy=0 dh=0 dv=0
PairPos2: "'kern' Horizontal Kerning in Arabic lookup 0 per glyph data 0" uni062A dx=-128 dy=0 dh=-128 dv=0 dx=0 dy=0 dh=0 dv=0
PairPos2: "'kern' Horizontal Kerning in Arabic lookup 0 per glyph data 0" uni0629 dx=-128 dy=0 dh=-128 dv=0 dx=0 dy=0 dh=0 dv=0
PairPos2: "'kern' Horizontal Kerning in Arabic lookup 0 per glyph data 0" uni0628 dx=-128 dy=0 dh=-128 dv=0 dx=0 dy=0 dh=0 dv=0
PairPos2: "'kern' Horizontal Kerning in Arabic lookup 0 per glyph data 0" uni0627 dx=-150 dy=0 dh=-150 dv=0 dx=0 dy=0 dh=0 dv=0
PairPos2: "'kern' Horizontal Kerning in Arabic lookup 0 per glyph data 0" uni0622 dx=-150 dy=0 dh=-150 dv=0 dx=0 dy=0 dh=0 dv=0
EndChar

StartChar: uni0633
Encoding: 1587 1587 168
Width: 2218
GlyphClass: 2
Flags: W
AnchorPoint: "Anchor-3" 548 -788 basechar 0
AnchorPoint: "Anchor-1" 1541 1025 basechar 0
LayerCount: 2
Fore
SplineSet
1392 -1 m 1,0,1
 1397 -56 1397 -56 1359 -174 c 0,2,3
 1256 -494 1256 -494 925 -587 c 0,4,5
 753 -634 753 -634 579 -602 c 0,6,7
 399 -568 399 -568 285 -458 c 0,8,9
 134 -309 134 -309 144 -61 c 0,10,11
 152 139 152 139 320 495 c 0,12,13
 327 511 327 511 342 505 c 0,14,15
 356 499 356 499 351 482 c 0,16,17
 288 249 288 249 289 167 c 0,18,19
 292 -101 292 -101 511 -196 c 0,20,21
 677 -268 677 -268 901.5 -218.5 c 128,-1,22
 1126 -169 1126 -169 1246 -30 c 1,23,-1
 1004 393 l 1,24,-1
 1176 650 l 1,25,26
 1200 614 1200 614 1295 456 c 0,27,28
 1349 367 1349 367 1415 366 c 0,29,30
 1499 367 1499 367 1555 426 c 0,31,32
 1613 487 1613 487 1617 572 c 0,33,34
 1618 588 1618 588 1633 588 c 0,35,36
 1647 588 1647 588 1649 572 c 0,37,38
 1661 366 1661 366 1836 366 c 2,39,-1
 1952 366 l 1,40,41
 1933 427 1933 427 1891 479 c 1,42,-1
 1959 836 l 1,43,44
 2167 629 2167 629 2134 366 c 0,45,46
 2101 115 2101 115 2057 56 c 0,47,48
 2015 0 2015 0 1852 0 c 2,49,-1
 1774 0 l 2,50,51
 1617 0 1617 0 1584 132 c 1,52,53
 1539 6 1539 6 1392 -1 c 1,0,1
EndSplineSet
Substitution2: "'init' Initial Forms in Arabic lookup 3 subtable" uniFEB3
Substitution2: "'medi' Medial Forms in Arabic lookup 2 subtable" uniFEB4
Substitution2: "'fina' Terminal Forms in Arabic lookup 1 subtable" uniFEB2
EndChar

StartChar: uni0635
Encoding: 1589 1589 170
Width: 2392
GlyphClass: 2
Flags: W
AnchorPoint: "Anchor-3" 478 -748 basechar 0
AnchorPoint: "Anchor-1" 1877 1255 basechar 0
LayerCount: 2
Fore
SplineSet
298 495 m 0,0,1
 305 511 305 511 320 505 c 0,2,3
 334 499 334 499 329 482 c 0,4,5
 266 248 266 248 267 167 c 0,6,7
 270 -103 270 -103 488 -196 c 0,8,9
 655 -269 655 -269 879.5 -219 c 128,-1,10
 1104 -169 1104 -169 1223 -30 c 1,11,-1
 981 393 l 1,12,-1
 1153 650 l 1,13,14
 1194 590 1194 590 1241 511 c 0,15,16
 1292 430 1292 430 1305 415 c 1,17,18
 1575 837 1575 837 1917 876 c 0,19,20
 2112 897 2112 897 2207.5 799.5 c 128,-1,21
 2303 702 2303 702 2303 521 c 0,22,23
 2303 415 2303 415 2260 286.5 c 128,-1,24
 2217 158 2217 158 2149 97 c 0,25,26
 2041 0 2041 0 1851 0 c 2,27,-1
 1381 0 l 2,28,29
 1379 0 1379 0 1370 1 c 1,30,31
 1355 -209 1355 -209 1235 -369 c 128,-1,32
 1115 -529 1115 -529 902 -587 c 0,33,34
 736 -636 736 -636 556.5 -602 c 128,-1,35
 377 -568 377 -568 263 -458 c 0,36,37
 112 -310 112 -310 122 -61 c 128,-1,38
 132 188 132 188 298 495 c 0,0,1
1411 367 m 1,39,-1
 1875 366 l 2,40,41
 2094 366 2094 366 2139 403 c 1,42,43
 2119 596 2119 596 1892 588 c 0,44,45
 1750 582 1750 582 1614.5 514.5 c 128,-1,46
 1479 447 1479 447 1411 367 c 1,39,-1
EndSplineSet
Substitution2: "'init' Initial Forms in Arabic lookup 3 subtable" uniFEBB
Substitution2: "'medi' Medial Forms in Arabic lookup 2 subtable" uniFEBC
Substitution2: "'fina' Terminal Forms in Arabic lookup 1 subtable" uniFEBA
EndChar

StartChar: uni0637
Encoding: 1591 1591 172
Width: 1324
GlyphClass: 2
Flags: W
AnchorPoint: "Anchor-3" 461 -212 basechar 0
AnchorPoint: "Anchor-1" 234 1560 basechar 0
LayerCount: 2
Fore
SplineSet
138 393 m 0,0,1
 166 366 166 366 198 366 c 2,2,-1
 260 366 l 1,3,-1
 186 1168 l 1,4,-1
 402 1454 l 2,5,6
 414 1469 414 1469 430 1464 c 0,7,8
 447 1459 447 1459 448 1442 c 2,9,-1
 485 664 l 1,10,11
 670 851 670 851 875 876 c 0,12,13
 1059 897 1059 897 1149.5 799.5 c 128,-1,14
 1240 702 1240 702 1240 521 c 0,15,16
 1240 415 1240 415 1199.5 286.5 c 128,-1,17
 1159 158 1159 158 1094 97 c 0,18,19
 992 0 992 0 813 0 c 0,20,21
 735 0 735 0 579 0 c 128,-1,22
 423 0 423 0 345 0 c 0,23,24
 238 0 238 0 182.5 116.5 c 128,-1,25
 127 233 127 233 127 386 c 0,26,27
 127 402 127 402 138 393 c 0,0,1
396 366 m 1,28,29
 469 366 469 366 615.5 366 c 128,-1,30
 762 366 762 366 835 366 c 0,31,32
 1042 366 1042 366 1085 403 c 1,33,34
 1066 597 1066 597 851 588 c 0,35,36
 717 582 717 582 589 514.5 c 128,-1,37
 461 447 461 447 396 366 c 1,28,29
EndSplineSet
Substitution2: "'init' Initial Forms in Arabic lookup 3 subtable" uniFEC3
Substitution2: "'medi' Medial Forms in Arabic lookup 2 subtable" uniFEC4
Substitution2: "'fina' Terminal Forms in Arabic lookup 1 subtable" uniFEC2
EndChar

StartChar: uni0639
Encoding: 1593 1593 174
Width: 1228
GlyphClass: 2
Flags: W
AnchorPoint: "Anchor-3" 667 -904 basechar 0
AnchorPoint: "Anchor-1" 623 1329 basechar 0
LayerCount: 2
Fore
SplineSet
930 773 m 256,0,1
 926 771 926 771 914 776 c 0,2,3
 785 825 785 825 621.5 776 c 128,-1,4
 458 727 458 727 370 620 c 1,5,6
 404 504 404 504 466 463 c 0,7,8
 483 452 483 452 504.5 448 c 128,-1,9
 526 444 526 444 552.5 449 c 128,-1,10
 579 454 579 454 598 459.5 c 128,-1,11
 617 465 617 465 649 476 c 128,-1,12
 681 487 681 487 693 491 c 0,13,14
 870 545 870 545 1113 571 c 1,15,-1
 1006 272 l 1,16,17
 431 218 431 218 231 -76 c 1,18,19
 241 -212 241 -212 298 -307 c 128,-1,20
 355 -402 355 -402 459 -445.5 c 128,-1,21
 563 -489 563 -489 658.5 -512 c 128,-1,22
 754 -535 754 -535 900 -527 c 128,-1,23
 1046 -519 1046 -519 1124 -510 c 128,-1,24
 1202 -501 1202 -501 1332 -482 c 0,25,26
 1379 -474 1379 -474 1400 -471 c 0,27,28
 1413 -469 1413 -469 1417 -477.5 c 128,-1,29
 1421 -486 1421 -486 1414 -498 c 0,30,31
 1314 -655 1314 -655 1096 -753 c 128,-1,32
 878 -851 878 -851 678 -845 c 0,33,34
 469 -839 469 -839 314.5 -722 c 128,-1,35
 160 -605 160 -605 128 -408 c 0,36,37
 58 25 58 25 294 266 c 1,38,39
 207 391 207 391 248 587 c 0,40,41
 286 764 286 764 396 909 c 128,-1,42
 506 1054 506 1054 666 1046 c 0,43,44
 765 1041 765 1041 848 963.5 c 128,-1,45
 931 886 931 886 934 788 c 0,46,47
 934 775 934 775 930 773 c 256,0,1
EndSplineSet
Substitution2: "'init' Initial Forms in Arabic lookup 3 subtable" uniFECB
Substitution2: "'medi' Medial Forms in Arabic lookup 2 subtable" uniFECC
Substitution2: "'fina' Terminal Forms in Arabic lookup 1 subtable" uniFECA
EndChar

StartChar: uni0640
Encoding: 1600 1600 176
Width: 245
GlyphClass: 2
Flags: W
AnchorPoint: "Anchor-3" 124 -167 basechar 0
AnchorPoint: "Anchor-1" 135 595 basechar 0
LayerCount: 2
Fore
SplineSet
270 0 m 6,0,-1
 -38 0 l 6,1,2
 -74 0 -74 0 -74 47 c 6,3,-1
 -74 318 l 6,4,5
 -74 366 -74 366 -38 366 c 6,6,-1
 270 366 l 6,7,8
 308 366 308 366 308 318 c 6,9,-1
 308 47 l 6,10,11
 308 0 308 0 270 0 c 6,0,-1
EndSplineSet
EndChar

StartChar: uni0643
Encoding: 1603 1603 179
Width: 1712
GlyphClass: 2
Flags: W
AnchorPoint: "Anchor-3" 705 -208 basechar 0
AnchorPoint: "Anchor-1" 791 1367 basechar 0
LayerCount: 2
Fore
SplineSet
812 700 m 0,0,1
 854 700 854 700 893.5 706 c 128,-1,2
 933 712 933 712 965 730.5 c 128,-1,3
 997 749 997 749 997 776 c 0,4,5
 997 820 997 820 861 850 c 0,6,7
 692 886 692 886 692 1047 c 0,8,9
 692 1234 692 1234 1010 1278 c 0,10,11
 1036 1283 1036 1283 1048 1274 c 128,-1,12
 1060 1265 1060 1265 1053 1243 c 2,13,-1
 1017 1139 l 1,14,15
 771 1115 771 1115 771 1039 c 0,16,17
 771 994 771 994 907 970 c 0,18,19
 998 954 998 954 1042.5 908 c 128,-1,20
 1087 862 1087 862 1087 776 c 0,21,22
 1087 671 1087 671 1009.5 616.5 c 128,-1,23
 932 562 932 562 808 562 c 0,24,25
 700 562 700 562 592 597 c 1,26,-1
 605 738 l 1,27,28
 714 700 714 700 812 700 c 0,0,1
1580 644 m 2,29,30
 1587 378 1587 378 1494 189 c 128,-1,31
 1401 0 1401 0 1160 0 c 2,32,-1
 520 0 l 2,33,34
 257 0 257 0 173 200.5 c 128,-1,35
 89 401 89 401 190 694 c 0,36,37
 196 713 196 713 213 710.5 c 128,-1,38
 230 708 230 708 226 685 c 0,39,40
 195 506 195 506 281.5 437.5 c 128,-1,41
 368 369 368 369 555 369 c 2,42,-1
 1390 369 l 1,43,-1
 1310 1206 l 1,44,-1
 1504 1465 l 2,45,46
 1516 1479 1516 1479 1531 1475 c 0,47,48
 1549 1470 1549 1470 1550 1452 c 2,49,-1
 1580 644 l 2,29,30
EndSplineSet
Substitution2: "'init' Initial Forms in Arabic lookup 3 subtable" uniFEDB
Substitution2: "'medi' Medial Forms in Arabic lookup 2 subtable" uniFEDC
Substitution2: "'fina' Terminal Forms in Arabic lookup 1 subtable" uniFEDA
EndChar

StartChar: uni0644
Encoding: 1604 1604 180
Width: 1410
GlyphClass: 2
Flags: W
AnchorPoint: "Anchor-3" 697 -703 basechar 0
AnchorPoint: "Anchor-1" 584 1010 basechar 0
LayerCount: 2
Fore
SplineSet
1292 340 m 2,0,1
 1305 -19 1305 -19 1268 -158 c 0,2,3
 1176 -499 1176 -499 841 -590 c 0,4,5
 674 -639 674 -639 495 -605.5 c 128,-1,6
 316 -572 316 -572 201 -462 c 0,7,8
 50 -313 50 -313 60.5 -64 c 128,-1,9
 71 185 71 185 236 492 c 0,10,11
 244 507 244 507 258 502 c 0,12,13
 273 495 273 495 268 478 c 0,14,15
 204 245 204 245 205 164 c 0,16,17
 209 -106 209 -106 427 -200 c 0,18,19
 587 -268 587 -268 800.5 -226 c 128,-1,20
 1014 -184 1014 -184 1140 -57 c 1,21,-1
 1013 1194 l 1,22,-1
 1205 1451 l 2,23,24
 1216 1465 1216 1465 1232 1461 c 0,25,26
 1250 1456 1250 1456 1251 1439 c 2,27,-1
 1292 340 l 2,0,1
EndSplineSet
Substitution2: "'init' Initial Forms in Arabic lookup 3 subtable" uniFEDF
Substitution2: "'medi' Medial Forms in Arabic lookup 2 subtable" uniFEE0
Substitution2: "'fina' Terminal Forms in Arabic lookup 1 subtable" uniFEDE
EndChar

StartChar: uni0645
Encoding: 1605 1605 181
Width: 1092
GlyphClass: 2
Flags: W
AnchorPoint: "Anchor-3" 194 -884 basechar 0
AnchorPoint: "Anchor-1" 637 1002 basechar 0
LayerCount: 2
Fore
SplineSet
300 -369 m 0,0,1
 322 -582 322 -582 208 -799 c 0,2,3
 203 -810 203 -810 194.5 -807.5 c 128,-1,4
 186 -805 186 -805 184 -789 c 0,5,6
 170 -685 170 -685 128.5 -499.5 c 128,-1,7
 87 -314 87 -314 83 -221 c 0,8,9
 70 49 70 49 160 220 c 0,10,11
 241 374 241 374 396 370 c 1,12,13
 512 687 512 687 679 742 c 0,14,15
 791 779 791 779 893.5 699.5 c 128,-1,16
 996 620 996 620 1020 477 c 0,17,18
 1036 383 1036 383 1009.5 235 c 128,-1,19
 983 87 983 87 938 5 c 0,20,21
 873 -112 873 -112 786.5 -123 c 128,-1,22
 700 -134 700 -134 620.5 -79 c 128,-1,23
 541 -24 541 -24 442 4 c 128,-1,24
 343 32 343 32 253 -7 c 1,25,26
 264 -116 264 -116 276.5 -190.5 c 128,-1,27
 289 -265 289 -265 300 -369 c 0,0,1
493 349 m 1,28,29
 545 332 545 332 643 283.5 c 128,-1,30
 741 235 741 235 773 222 c 0,31,32
 826 200 826 200 847.5 230.5 c 128,-1,33
 869 261 869 261 837 305 c 0,34,35
 767 407 767 407 643 448 c 0,36,37
 558 475 558 475 493 349 c 1,28,29
EndSplineSet
Substitution2: "'init' Initial Forms in Arabic lookup 3 subtable" uniFEE3
Substitution2: "'medi' Medial Forms in Arabic lookup 2 subtable" uniFEE4
Substitution2: "'fina' Terminal Forms in Arabic lookup 1 subtable" uniFEE2
EndChar

StartChar: uni0647
Encoding: 1607 1607 183
Width: 903
GlyphClass: 2
Flags: W
AnchorPoint: "Anchor-3" 424 -145 basechar 0
AnchorPoint: "Anchor-1" 400 1139 basechar 0
LayerCount: 2
Fore
SplineSet
268 945 m 1,0,1
 927 917 927 917 763 199 c 0,2,3
 733 70 733 70 679 35 c 128,-1,4
 625 0 625 0 488 0 c 2,5,-1
 381 0 l 2,6,7
 282 0 282 0 223 32.5 c 128,-1,8
 164 65 164 65 144 108 c 128,-1,9
 124 151 124 151 130 227 c 128,-1,10
 136 303 136 303 151 355.5 c 128,-1,11
 166 408 166 408 194.5 495.5 c 128,-1,12
 223 583 223 583 232 616 c 1,13,14
 200 619 200 619 172 621 c 1,15,-1
 268 945 l 1,0,1
343 603 m 1,16,17
 308 535 308 535 311 451 c 128,-1,18
 314 367 314 367 414 367 c 2,19,-1
 609 367 l 1,20,21
 609 469 609 469 535 540 c 0,22,23
 470 603 470 603 343 603 c 1,16,17
EndSplineSet
Substitution2: "'init' Initial Forms in Arabic lookup 3 subtable" uniFEEB
Substitution2: "'medi' Medial Forms in Arabic lookup 2 subtable" uniFEEC
Substitution2: "'fina' Terminal Forms in Arabic lookup 1 subtable" uniFEEA
EndChar

StartChar: uni0648
Encoding: 1608 1608 184
Width: 833
GlyphClass: 2
Flags: W
AnchorPoint: "Anchor-3" 365 -745 basechar 0
AnchorPoint: "Anchor-1" 400 1004 basechar 0
LayerCount: 2
Back
SplineSet
261 0 m 6,0,1
 0 0 0 0 31 368 c 4,2,3
 72 847 72 847 370 845 c 4,4,5
 605 842 605 842 721 456 c 4,6,7
 825 108 825 108 742 -208 c 4,8,9
 687 -420 687 -420 512.5 -559.5 c 132,-1,10
 338 -699 338 -699 151 -591 c 4,11,12
 84 -552 84 -552 -100 -387 c 4,13,14
 -111 -377 -111 -377 -107 -366 c 132,-1,15
 -103 -355 -103 -355 -89 -357 c 4,16,17
 72 -376 72 -376 281.5 -267.5 c 132,-1,18
 491 -159 491 -159 600 0 c 5,19,-1
 261 0 l 6,0,1
173 423 m 4,20,21
 168 368 168 368 262 368 c 6,22,-1
 514 368 l 5,23,24
 416 517 416 517 266 496 c 4,25,26
 179 484 179 484 173 423 c 4,20,21
EndSplineSet
Fore
SplineSet
263 0 m 2,0,1
 2 0 2 0 33 368 c 0,2,3
 74 849 74 849 372 845 c 0,4,5
 607 842 607 842 723 456 c 0,6,7
 825 114 825 114 734 -209 c 0,8,9
 680 -402 680 -402 515 -533 c 0,10,11
 341 -672 341 -672 153.5 -564.5 c 0,12,13
 25 -490 25 -490 -96 -388 c 0,14,15
 -110 -376 -110 -376 -101 -360 c 0,16,17
 -96.5627198124 -352.012895662 -96.5627198124 -352.012895662 -78 -355 c 0,18,19
 106 -383 106 -383 329 -279 c 0,20,21
 528.316046657 -186.666015136 528.316046657 -186.666015136 602 0 c 1,22,-1
 263 0 l 2,0,1
175 423 m 0,23,24
 170 368 170 368 264 368 c 2,25,-1
 516 368 l 1,26,27
 418 517 418 517 268 496 c 0,28,29
 181 484 181 484 175 423 c 0,23,24
EndSplineSet
Substitution2: "'fina' Terminal Forms in Arabic lookup 1 subtable" uniFEEE
EndChar

StartChar: uni0649
Encoding: 1609 1609 185
Width: 1517
GlyphClass: 2
Flags: W
AnchorPoint: "Anchor-3" 686 -731 basechar 0
AnchorPoint: "Anchor-1" 735 907 basechar 0
LayerCount: 2
Fore
SplineSet
1105 32 m 0,0,1
 1053 38 1053 38 946.5 43.5 c 128,-1,2
 840 49 840 49 816 51 c 0,3,4
 632 72 632 72 633 252 c 0,5,6
 634 486 634 486 783 670 c 0,7,8
 952 876 952 876 1193 862 c 0,9,10
 1306 855 1306 855 1358 773.5 c 128,-1,11
 1410 692 1410 692 1383 586 c 0,12,13
 1376 559 1376 559 1366.5 527 c 128,-1,14
 1357 495 1357 495 1353 482 c 0,15,16
 1349 459 1349 459 1330.5 462 c 128,-1,17
 1312 465 1312 465 1313 486 c 0,18,19
 1316 569 1316 569 1200 576.5 c 128,-1,20
 1084 584 1084 584 1017 554 c 1,21,22
 877 515 877 515 820 431 c 1,23,24
 815 407 815 407 814 390.5 c 128,-1,25
 813 374 813 374 851.5 362 c 128,-1,26
 890 350 890 350 919.5 343 c 128,-1,27
 949 336 949 336 1004 331 c 128,-1,28
 1059 326 1059 326 1092 324 c 128,-1,29
 1125 322 1125 322 1170.5 320.5 c 128,-1,30
 1216 319 1216 319 1226 319 c 0,31,32
 1424 308 1424 308 1375 0 c 1,33,34
 1312 -470 1312 -470 903 -582 c 0,35,36
 736 -631 736 -631 557 -597 c 128,-1,37
 378 -563 378 -563 263 -453 c 0,38,39
 112 -305 112 -305 122.5 -56 c 128,-1,40
 133 193 133 193 298 500 c 0,41,42
 306 516 306 516 320 510 c 0,43,44
 335 504 335 504 330 487 c 0,45,46
 266 253 266 253 267 172 c 0,47,48
 271 -98 271 -98 489 -191 c 0,49,50
 644 -257 644 -257 849 -220 c 128,-1,51
 1054 -183 1054 -183 1184 -65 c 0,52,53
 1215 -37 1215 -37 1220.5 -18.5 c 128,-1,54
 1226 0 1226 0 1202 10 c 128,-1,55
 1178 20 1178 20 1161.5 23.5 c 128,-1,56
 1145 27 1145 27 1105 32 c 0,0,1
EndSplineSet
Substitution2: "'init' Initial Forms in Arabic lookup 3 subtable" uniFBE8
Substitution2: "'medi' Medial Forms in Arabic lookup 2 subtable" uniFBE9
Substitution2: "'fina' Terminal Forms in Arabic lookup 1 subtable" uniFEF0
EndChar

StartChar: uni064B
Encoding: 1611 1611 187
Width: 10
GlyphClass: 4
Flags: W
AnchorPoint: "Anchor-5" 553 1596 basemark 0
AnchorPoint: "Anchor-5" 583 1123 mark 0
AnchorPoint: "Anchor-1" 583 1123 mark 0
AnchorPoint: "Anchor-0" 583 1123 mark 0
LayerCount: 2
Fore
SplineSet
327 1076 m 1,0,-1
 327 1180 l 1,1,-1
 782 1366 l 1,2,-1
 782 1263 l 1,3,-1
 327 1076 l 1,0,-1
327 1288 m 1,4,-1
 327 1392 l 1,5,-1
 782 1578 l 1,6,-1
 782 1475 l 1,7,-1
 327 1288 l 1,4,-1
EndSplineSet
EndChar

StartChar: uni064C
Encoding: 1612 1612 188
Width: 0
GlyphClass: 4
Flags: W
AnchorPoint: "Anchor-5" 637 1852 basemark 0
AnchorPoint: "Anchor-5" 680 1278 mark 0
AnchorPoint: "Anchor-1" 680 1278 mark 0
AnchorPoint: "Anchor-0" 680 1278 mark 0
LayerCount: 2
Fore
SplineSet
489 1629 m 0,0,1
 489 1701 489 1701 535 1746 c 128,-1,2
 581 1791 581 1791 652 1791 c 0,3,4
 724 1791 724 1791 769 1746.5 c 128,-1,5
 814 1702 814 1702 814 1628 c 0,6,7
 814 1571 814 1571 787 1507 c 1,8,9
 810 1503 810 1503 830 1503 c 1,10,-1
 830 1427 l 1,11,12
 792 1429 792 1429 754 1436 c 1,13,14
 657 1251 657 1251 472 1251 c 0,15,16
 272 1251 272 1251 268 1530 c 1,17,-1
 347 1544 l 1,18,19
 351 1329 351 1329 473 1329 c 0,20,21
 579 1329 579 1329 673 1448 c 1,22,23
 584 1479 584 1479 536.5 1521 c 128,-1,24
 489 1563 489 1563 489 1629 c 0,0,1
709 1523 m 1,25,26
 736 1586 736 1586 736 1627 c 0,27,28
 736 1663 736 1663 712.5 1687 c 128,-1,29
 689 1711 689 1711 656 1711 c 0,30,31
 618 1711 618 1711 593.5 1687.5 c 128,-1,32
 569 1664 569 1664 569 1625 c 0,33,34
 569 1560 569 1560 709 1523 c 1,25,26
EndSplineSet
EndChar

StartChar: uni064D
Encoding: 1613 1613 189
Width: 3
GlyphClass: 4
Flags: W
AnchorPoint: "Anchor-4" 595 -407 basemark 0
AnchorPoint: "Anchor-4" 545 32 mark 0
AnchorPoint: "Anchor-3" 545 32 mark 0
AnchorPoint: "Anchor-2" 545 32 mark 0
LayerCount: 2
Fore
SplineSet
335 -446 m 1,0,-1
 335 -342 l 1,1,-1
 791 -156 l 1,2,-1
 791 -260 l 1,3,-1
 335 -446 l 1,0,-1
335 -234 m 1,4,-1
 335 -130 l 1,5,-1
 791 56 l 1,6,-1
 791 -48 l 1,7,-1
 335 -234 l 1,4,-1
EndSplineSet
EndChar

StartChar: uni064E
Encoding: 1614 1614 190
Width: 0
GlyphClass: 4
Flags: W
AnchorPoint: "Anchor-5" 541 1651 basemark 0
AnchorPoint: "Anchor-5" 545 1397 mark 0
AnchorPoint: "Anchor-1" 545 1397 mark 0
AnchorPoint: "Anchor-0" 545 1397 mark 0
LayerCount: 2
Fore
SplineSet
296 1349 m 1,0,-1
 296 1453 l 1,1,-1
 752 1639 l 1,2,-1
 752 1535 l 1,3,-1
 296 1349 l 1,0,-1
EndSplineSet
EndChar

StartChar: uni064F
Encoding: 1615 1615 191
Width: 10
GlyphClass: 4
Flags: W
AnchorPoint: "Anchor-5" 542 1865 basemark 0
AnchorPoint: "Anchor-5" 591 1359 mark 0
AnchorPoint: "Anchor-1" 591 1359 mark 0
AnchorPoint: "Anchor-0" 591 1359 mark 0
LayerCount: 2
Fore
SplineSet
723 1427 m 1,0,1
 682 1427 682 1427 643 1433 c 1,2,3
 598 1371 598 1371 499.5 1344 c 128,-1,4
 401 1317 401 1317 256 1309 c 1,5,-1
 256 1387 l 1,6,7
 270 1388 270 1388 299 1390.5 c 128,-1,8
 328 1393 328 1393 343 1394.5 c 128,-1,9
 358 1396 358 1396 383.5 1398.5 c 128,-1,10
 409 1401 409 1401 424 1403.5 c 128,-1,11
 439 1406 439 1406 460 1410 c 128,-1,12
 481 1414 481 1414 494.5 1418 c 128,-1,13
 508 1422 508 1422 522.5 1427.5 c 128,-1,14
 537 1433 537 1433 547.5 1440 c 128,-1,15
 558 1447 558 1447 566 1455 c 1,16,17
 491 1469 491 1469 435.5 1514.5 c 128,-1,18
 380 1560 380 1560 380 1626 c 0,19,20
 380 1699 380 1699 426 1743.5 c 128,-1,21
 472 1788 472 1788 543 1788 c 0,22,23
 615 1788 615 1788 660.5 1743 c 128,-1,24
 706 1698 706 1698 706 1625 c 0,25,26
 706 1569 706 1569 680 1506 c 1,27,28
 706 1502 706 1502 723 1502 c 1,29,-1
 723 1427 l 1,0,1
600 1520 m 1,30,31
 627 1583 627 1583 627 1624 c 0,32,33
 627 1660 627 1660 604 1683.5 c 128,-1,34
 581 1707 581 1707 547 1707 c 0,35,36
 508 1707 508 1707 484 1684 c 128,-1,37
 460 1661 460 1661 460 1622 c 0,38,39
 460 1557 460 1557 600 1520 c 1,30,31
EndSplineSet
EndChar

StartChar: uni0650
Encoding: 1616 1616 192
Width: 10
GlyphClass: 4
Flags: W
AnchorPoint: "Anchor-4" 619 -324 basemark 0
AnchorPoint: "Anchor-4" 571 -44 mark 0
AnchorPoint: "Anchor-3" 571 -44 mark 0
AnchorPoint: "Anchor-2" 571 -44 mark 0
LayerCount: 2
Fore
SplineSet
343 -346 m 1,0,-1
 343 -242 l 1,1,-1
 798 -56 l 1,2,-1
 798 -159 l 1,3,-1
 343 -346 l 1,0,-1
EndSplineSet
EndChar

StartChar: uni0651
Encoding: 1617 1617 193
Width: 0
GlyphClass: 4
Flags: W
AnchorPoint: "Anchor-5" 562 1868 basemark 0
AnchorPoint: "Anchor-5" 592 1433 mark 0
AnchorPoint: "Anchor-1" 592 1433 mark 0
AnchorPoint: "Anchor-0" 592 1433 mark 0
LayerCount: 2
Fore
SplineSet
418 1548 m 0,0,1
 505 1548 505 1548 505 1651 c 2,2,-1
 505 1772 l 1,3,4
 544 1785 544 1785 599 1790 c 1,5,-1
 601 1702 l 2,6,7
 602 1609 602 1609 686 1609 c 0,8,9
 758 1609 758 1609 758 1705 c 0,10,11
 758 1745 758 1745 755 1786 c 1,12,-1
 848 1847 l 1,13,14
 856 1780 856 1780 856 1712 c 0,15,16
 856 1471 856 1471 703 1471 c 0,17,18
 626 1471 626 1471 572 1525 c 1,19,20
 524 1410 524 1410 411 1410 c 0,21,22
 254 1410 254 1410 254 1623 c 0,23,24
 254 1675 254 1675 261 1745 c 1,25,-1
 345 1711 l 1,26,-1
 346 1632 l 2,27,28
 348 1548 348 1548 418 1548 c 0,0,1
EndSplineSet
EndChar

StartChar: uni0652
Encoding: 1618 1618 194
Width: 7
GlyphClass: 4
Flags: W
AnchorPoint: "Anchor-5" 589 1682 basemark 0
AnchorPoint: "Anchor-5" 615 1271 mark 0
AnchorPoint: "Anchor-1" 615 1271 mark 0
AnchorPoint: "Anchor-0" 615 1271 mark 0
LayerCount: 2
Fore
SplineSet
421 1462 m 128,-1,1
 421 1534 421 1534 471.5 1584.5 c 128,-1,2
 522 1635 522 1635 594 1635 c 0,3,4
 630 1635 630 1635 662 1621.5 c 128,-1,5
 694 1608 694 1608 717 1584.5 c 128,-1,6
 740 1561 740 1561 754 1529 c 128,-1,7
 768 1497 768 1497 768 1462 c 0,8,9
 768 1390 768 1390 717.5 1339 c 128,-1,10
 667 1288 667 1288 594.5 1288 c 128,-1,11
 522 1288 522 1288 471.5 1339 c 128,-1,0
 421 1390 421 1390 421 1462 c 128,-1,1
503 1461 m 0,12,13
 502 1436 502 1436 514.5 1414 c 128,-1,14
 527 1392 527 1392 549 1379.5 c 128,-1,15
 571 1367 571 1367 597 1367 c 0,16,17
 636 1367 636 1367 663.5 1394.5 c 128,-1,18
 691 1422 691 1422 691 1461 c 256,19,20
 691 1500 691 1500 663.5 1527.5 c 128,-1,21
 636 1555 636 1555 597 1555 c 256,22,23
 558 1555 558 1555 530 1527.5 c 128,-1,24
 502 1500 502 1500 503 1461 c 0,12,13
EndSplineSet
EndChar

StartChar: uni0653
Encoding: 1619 1619 195
Width: 0
GlyphClass: 4
Flags: W
AnchorPoint: "Anchor-5" -3015 8950 basemark 0
AnchorPoint: "Anchor-5" -2915 5656 mark 0
AnchorPoint: "Anchor-1" -2915 5656 mark 0
AnchorPoint: "Anchor-0" -2915 5656 mark 0
LayerCount: 2
Fore
SplineSet
217 1720 m 1,0,-1
 273 1884 l 1,1,2
 404 1822 404 1822 589 1863 c 0,3,4
 697 1886 697 1886 703 1886 c 0,5,6
 779 1883 779 1883 764 1798 c 0,7,8
 760 1777 760 1777 712 1678 c 1,9,10
 670 1755 670 1755 556 1722 c 0,11,12
 440 1688 440 1688 333 1695 c 1,13,14
 335 1670 335 1670 329 1647.5 c 128,-1,15
 323 1625 323 1625 316 1615 c 2,16,-1
 309 1605 l 1,17,18
 286 1686 286 1686 217 1720 c 1,0,-1
EndSplineSet
EndChar

StartChar: uni0657
Encoding: 1623 1623 198
Width: 4
GlyphClass: 4
Flags: W
AnchorPoint: "Anchor-5" 537 2069 basemark 0
AnchorPoint: "Anchor-5" 513 1400 mark 0
AnchorPoint: "Anchor-1" 513 1400 mark 0
AnchorPoint: "Anchor-0" 513 1400 mark 0
LayerCount: 2
Fore
SplineSet
265 1805 m 1,0,1
 324 1804 324 1804 395 1796 c 1,2,-1
 396 1797 l 1,3,4
 546 2011 546 2011 785 2033 c 1,5,-1
 785 1955 l 1,6,7
 600 1925 600 1925 486 1778 c 1,8,9
 560 1756 560 1756 609 1711.5 c 128,-1,10
 658 1667 658 1667 658 1599 c 0,11,12
 658 1530 658 1530 614 1484 c 128,-1,13
 570 1438 570 1438 501 1438 c 0,14,15
 430 1438 430 1438 381 1483.5 c 128,-1,16
 332 1529 332 1529 332 1603 c 0,17,18
 332 1650 332 1650 355 1722 c 1,19,20
 301 1726 301 1726 265 1726 c 1,21,-1
 265 1805 l 1,0,1
501 1516 m 0,22,23
 537 1516 537 1516 557 1538 c 128,-1,24
 577 1560 577 1560 577 1597 c 0,25,26
 577 1639 577 1639 536 1667 c 128,-1,27
 495 1695 495 1695 437 1709 c 1,28,29
 410 1644 410 1644 410 1605 c 128,-1,30
 410 1566 410 1566 436.5 1541 c 128,-1,31
 463 1516 463 1516 501 1516 c 0,22,23
EndSplineSet
EndChar

StartChar: uni065A
Encoding: 1626 1626 199
Width: 1135
GlyphClass: 4
Flags: W
AnchorPoint: "Anchor-5" 571 1862 basemark 0
AnchorPoint: "Anchor-5" 573 1350 mark 0
AnchorPoint: "Anchor-1" 573 1350 mark 0
AnchorPoint: "Anchor-0" 573 1350 mark 0
LayerCount: 2
Fore
SplineSet
502 1444 m 1,0,-1
 309 1768 l 1,1,-1
 433 1768 l 1,2,-1
 573 1528 l 1,3,-1
 714 1768 l 1,4,-1
 838 1768 l 1,5,-1
 644 1444 l 1,6,-1
 502 1444 l 1,0,-1
EndSplineSet
EndChar

StartChar: uni0660
Encoding: 1632 1632 200
Width: 861
GlyphClass: 2
Flags: W
LayerCount: 2
Fore
SplineSet
434 817 m 1,0,-1
 703 547 l 1,1,-1
 428 272 l 1,2,-1
 158 542 l 1,3,-1
 434 817 l 1,0,-1
EndSplineSet
EndChar

StartChar: uni0661
Encoding: 1633 1633 201
Width: 752
GlyphClass: 2
Flags: W
LayerCount: 2
Fore
SplineSet
361 1437 m 0,0,1
 560 933 560 933 560 257 c 0,2,3
 560 141 560 141 547 73 c 0,4,5
 541 45 541 45 504.5 31.5 c 128,-1,6
 468 18 468 18 356 -2 c 1,7,8
 352 685 352 685 112 1229 c 1,9,-1
 307 1449 l 2,10,11
 341 1490 341 1490 361 1437 c 0,0,1
EndSplineSet
EndChar

StartChar: uni0662
Encoding: 1634 1634 202
Width: 1142
GlyphClass: 2
Flags: W
LayerCount: 2
Fore
SplineSet
645 1121 m 0,0,1
 841 1121 841 1121 871 1379 c 2,2,-1
 877 1429 l 1,3,-1
 1047 1429 l 1,4,-1
 1046 1368 l 2,5,6
 1037 783 1037 783 631 783 c 0,7,8
 568 783 568 783 525 791 c 1,9,10
 560 528 560 528 560 261 c 0,11,12
 560 144 560 144 547 73 c 0,13,14
 542 45 542 45 505.5 31.5 c 128,-1,15
 469 18 469 18 356 -2 c 1,16,17
 350 692 350 692 112 1231 c 1,18,-1
 307 1449 l 2,19,20
 343 1488 343 1488 361 1437 c 0,21,22
 369 1414 369 1414 390 1356 c 128,-1,23
 411 1298 411 1298 423 1264 c 0,24,25
 472 1121 472 1121 645 1121 c 0,0,1
EndSplineSet
EndChar

StartChar: uni0663
Encoding: 1635 1635 203
Width: 1329
GlyphClass: 2
Flags: W
LayerCount: 2
Fore
SplineSet
528 783 m 1,0,1
 560 532 560 532 560 261 c 0,2,3
 560 144 560 144 547 73 c 0,4,5
 542 45 542 45 505.5 31.5 c 128,-1,6
 469 18 469 18 356 -2 c 1,7,8
 350 692 350 692 112 1231 c 1,9,-1
 307 1449 l 2,10,11
 344 1489 344 1489 361 1437 c 0,12,13
 377 1390 377 1390 423 1264 c 0,14,15
 475 1120 475 1120 578 1120 c 0,16,17
 677 1120 677 1120 692 1266 c 2,18,-1
 705 1387 l 1,19,-1
 869 1387 l 1,20,-1
 872 1265 l 2,21,22
 874 1119 874 1119 970 1119 c 0,23,24
 1048 1119 1048 1119 1063 1284 c 2,25,-1
 1074 1410 l 1,26,-1
 1245 1410 l 1,27,-1
 1244 1344 l 1,28,29
 1241 794 1241 794 959 794 c 0,30,31
 838 794 838 794 763 919 c 1,32,33
 705 789 705 789 557 783 c 0,34,35
 543 782 543 782 528 783 c 1,0,1
EndSplineSet
EndChar

StartChar: uni0667
Encoding: 1639 1639 207
Width: 1247
GlyphClass: 2
Flags: W
LayerCount: 2
Fore
SplineSet
1188 1218 m 1,0,1
 891 697 891 697 730 -3 c 1,2,-1
 542 -3 l 1,3,4
 401 657 401 657 60 1208 c 1,5,-1
 230 1454 l 2,6,7
 255 1490 255 1490 280 1441 c 0,8,9
 490 1054 490 1054 630 454 c 1,10,11
 789 1113 789 1113 943 1432 c 0,12,13
 968 1485 968 1485 995 1452 c 2,14,-1
 1188 1218 l 1,0,1
EndSplineSet
EndChar

StartChar: uni0668
Encoding: 1640 1640 208
Width: 1248
GlyphClass: 2
Flags: W
LayerCount: 2
Fore
SplineSet
1188 223 m 1,0,-1
 995 -11 l 2,1,2
 968 -43 968 -43 943 9 c 0,3,4
 789 328 789 328 630 987 c 1,5,6
 490 390 490 390 280 0 c 0,7,8
 254 -49 254 -49 230 -14 c 2,9,-1
 60 233 l 1,10,11
 402 787 402 787 542 1443 c 1,12,-1
 730 1443 l 1,13,14
 891 744 891 744 1188 223 c 1,0,-1
EndSplineSet
EndChar

StartChar: uni0669
Encoding: 1641 1641 209
Width: 1080
GlyphClass: 2
Flags: W
LayerCount: 2
Fore
SplineSet
457 924 m 0,0,1
 534 924 534 924 624 940 c 1,2,3
 613 1062 613 1062 573.5 1121.5 c 128,-1,4
 534 1181 534 1181 446 1181 c 0,5,6
 384 1181 384 1181 340.5 1130.5 c 128,-1,7
 297 1080 297 1080 297 1002 c 0,8,9
 297 980 297 980 305.5 965 c 128,-1,10
 314 950 314 950 325.5 942 c 128,-1,11
 337 934 337 934 361 930 c 128,-1,12
 385 926 385 926 403.5 925 c 128,-1,13
 422 924 422 924 457 924 c 0,0,1
451 1462 m 0,14,15
 529 1462 529 1462 592 1436 c 128,-1,16
 655 1410 655 1410 699.5 1363.5 c 128,-1,17
 744 1317 744 1317 774 1251 c 128,-1,18
 804 1185 804 1185 819 1107.5 c 128,-1,19
 834 1030 834 1030 836 940 c 0,20,21
 848 369 848 369 1007 202 c 1,22,-1
 837 -20 l 1,23,24
 645 141 645 141 637 633 c 1,25,26
 542 619 542 619 453 619 c 0,27,28
 99 619 99 619 99 944 c 0,29,30
 99 1075 99 1075 142 1193 c 128,-1,31
 185 1311 185 1311 267 1386.5 c 128,-1,32
 349 1462 349 1462 451 1462 c 0,14,15
EndSplineSet
EndChar

StartChar: uni066A
Encoding: 1642 1642 210
Width: 1033
GlyphClass: 2
Flags: W
LayerCount: 2
Fore
SplineSet
722 1365 m 1,0,-1
 927 1272 l 1,1,-1
 312 -7 l 1,2,-1
 107 85 l 1,3,-1
 722 1365 l 1,0,-1
597 233 m 0,4,5
 597 305 597 305 647.5 356 c 128,-1,6
 698 407 698 407 770 407 c 128,-1,7
 842 407 842 407 892.5 356 c 128,-1,8
 943 305 943 305 943 233 c 0,9,10
 943 162 943 162 892 111 c 128,-1,11
 841 60 841 60 770 60 c 0,12,13
 698 60 698 60 647.5 110 c 128,-1,14
 597 160 597 160 597 233 c 0,4,5
90 1119 m 0,15,16
 90 1191 90 1191 140.5 1242 c 128,-1,17
 191 1293 191 1293 263 1293 c 128,-1,18
 335 1293 335 1293 385.5 1242 c 128,-1,19
 436 1191 436 1191 436 1119 c 0,20,21
 436 1048 436 1048 385 997 c 128,-1,22
 334 946 334 946 263 946 c 0,23,24
 191 946 191 946 140.5 996 c 128,-1,25
 90 1046 90 1046 90 1119 c 0,15,16
EndSplineSet
EndChar

StartChar: uni066B
Encoding: 1643 1643 211
Width: 772
GlyphClass: 2
Flags: W
LayerCount: 2
Fore
SplineSet
513 805 m 1,0,-1
 714 720 l 1,1,-1
 220 -421 l 1,2,-1
 16 -333 l 1,3,-1
 513 805 l 1,0,-1
EndSplineSet
PairPos2: "'kern' Horizontal Kerning in Arabic lookup 0 per glyph data 6" uni06F4 dx=-110 dy=0 dh=-110 dv=0 dx=0 dy=0 dh=0 dv=0
PairPos2: "'kern' Horizontal Kerning in Arabic lookup 0 per glyph data 6" uni06F3 dx=-130 dy=0 dh=-130 dv=0 dx=0 dy=0 dh=0 dv=0
PairPos2: "'kern' Horizontal Kerning in Arabic lookup 0 per glyph data 6" uni06F2 dx=-130 dy=0 dh=-130 dv=0 dx=0 dy=0 dh=0 dv=0
EndChar

StartChar: uni066C
Encoding: 1644 1644 212
Width: 503
GlyphClass: 2
Flags: W
LayerCount: 2
Fore
SplineSet
92 134 m 0,0,1
 92 201 92 201 129.5 243 c 128,-1,2
 167 285 167 285 234 285 c 0,3,4
 287 285 287 285 321.5 263 c 128,-1,5
 356 241 356 241 372.5 198.5 c 128,-1,6
 389 156 389 156 389 90 c 0,7,8
 389 -171 389 -171 155 -311 c 0,9,10
 104 -341 104 -341 77 -317 c 0,11,12
 57 -300 57 -300 71 -277 c 0,13,14
 74 -272 74 -272 79 -268 c 0,15,16
 159 -197 159 -197 193.5 -136.5 c 128,-1,17
 228 -76 228 -76 228 -32 c 1,18,19
 194 -14 194 -14 177 -4.5 c 128,-1,20
 160 5 160 5 140 20.5 c 128,-1,21
 120 36 120 36 112 50 c 128,-1,22
 104 64 104 64 98 85.5 c 128,-1,23
 92 107 92 107 92 134 c 0,0,1
EndSplineSet
PairPos2: "'kern' Horizontal Kerning in Arabic lookup 0 per glyph data 6" uni06F4 dx=-118 dy=0 dh=-118 dv=0 dx=0 dy=0 dh=0 dv=0
PairPos2: "'kern' Horizontal Kerning in Arabic lookup 0 per glyph data 6" uni06F3 dx=-134 dy=0 dh=-134 dv=0 dx=0 dy=0 dh=0 dv=0
PairPos2: "'kern' Horizontal Kerning in Arabic lookup 0 per glyph data 6" uni06F2 dx=-118 dy=0 dh=-118 dv=0 dx=0 dy=0 dh=0 dv=0
EndChar

StartChar: uni066D
Encoding: 1645 1645 213
Width: 1734
GlyphClass: 2
Flags: W
LayerCount: 2
Fore
SplineSet
165 1192 m 1,0,-1
 701 1192 l 1,1,-1
 869 1702 l 1,2,-1
 1037 1192 l 1,3,-1
 1573 1192 l 1,4,-1
 1139 875 l 1,5,-1
 1305 365 l 1,6,-1
 869 681 l 1,7,-1
 432 365 l 1,8,-1
 599 875 l 1,9,-1
 165 1192 l 1,0,-1
EndSplineSet
EndChar

StartChar: uni066E
Encoding: 1646 1646 214
Width: 1798
GlyphClass: 2
Flags: W
AnchorPoint: "Anchor-3" 794 -227 basechar 0
AnchorPoint: "Anchor-1" 881 1171 basechar 0
LayerCount: 2
Fore
SplineSet
1685 366 m 1,0,1
 1650 111 1650 111 1608 55.5 c 128,-1,2
 1566 0 1566 0 1403 0 c 2,3,-1
 506 0 l 2,4,5
 244 0 244 0 160.5 199 c 128,-1,6
 77 398 77 398 178 689 c 0,7,8
 184 708 184 708 201 705.5 c 128,-1,9
 218 703 218 703 214 680 c 0,10,11
 183 503 183 503 269 434.5 c 128,-1,12
 355 366 355 366 540 366 c 2,13,-1
 1503 366 l 1,14,15
 1473 465 1473 465 1375 546 c 1,16,-1
 1442 898 l 1,17,18
 1721 666 1721 666 1685 366 c 1,0,1
EndSplineSet
Substitution2: "'fina' Terminal Forms in Arabic lookup 1 subtable" uni066E.fina
EndChar

StartChar: uni066F
Encoding: 1647 1647 215
Width: 1408
GlyphClass: 2
Flags: W
AnchorPoint: "Anchor-3" 625 -685 basechar 0
AnchorPoint: "Anchor-1" 753 1306 basechar 0
LayerCount: 2
Fore
SplineSet
1331 108 m 0,0,1
 1317 -101 1317 -101 1197 -261.5 c 128,-1,2
 1077 -422 1077 -422 863 -481 c 0,3,4
 697 -530 697 -530 517.5 -496 c 128,-1,5
 338 -462 338 -462 224 -352 c 0,6,7
 73 -204 73 -204 83 45 c 128,-1,8
 93 294 93 294 258 601 c 0,9,10
 266 617 266 617 280 611 c 0,11,12
 295 605 295 605 290 588 c 0,13,14
 227 354 227 354 228 273 c 0,15,16
 231 3 231 3 449 -90 c 0,17,18
 615 -163 615 -163 851.5 -112.5 c 128,-1,19
 1088 -62 1088 -62 1207 76 c 1,20,-1
 1195 106 l 1,21,-1
 836 106 l 2,22,23
 575 106 575 106 606 472 c 0,24,25
 647 952 647 952 945 949 c 0,26,27
 1062 948 1062 948 1148.5 850.5 c 128,-1,28
 1235 753 1235 753 1276 611 c 0,29,30
 1346 371 1346 371 1331 108 c 0,0,1
837 472 m 2,31,-1
 1089 472 l 1,32,33
 991 621 991 621 841 600 c 0,34,35
 754 589 754 589 748 527 c 0,36,37
 743 472 743 472 837 472 c 2,31,-1
EndSplineSet
Substitution2: "'fina' Terminal Forms in Arabic lookup 1 subtable" uni066F.fina
EndChar

StartChar: uni0670
Encoding: 1648 1648 216
Width: 0
GlyphClass: 4
Flags: W
AnchorPoint: "Anchor-5" 734 2285 basemark 0
AnchorPoint: "Anchor-5" 780 1759 mark 0
AnchorPoint: "Anchor-1" 780 1759 mark 0
AnchorPoint: "Anchor-0" 780 1759 mark 0
LayerCount: 2
Fore
SplineSet
734 1801 m 1,0,-1
 675 2171 l 1,1,-1
 812 2264 l 1,2,-1
 812 1834 l 1,3,-1
 734 1801 l 1,0,-1
EndSplineSet
EndChar

StartChar: uni0674
Encoding: 1652 1652 217
Width: 802
GlyphClass: 2
Flags: W
LayerCount: 2
Fore
SplineSet
189 1789 m 1,0,-1
 214 1942 l 1,1,2
 225 1947 225 1947 241 1953.5 c 128,-1,3
 257 1960 257 1960 272.5 1966.5 c 128,-1,4
 288 1973 288 1973 299 1978 c 1,5,6
 253 1999 253 1999 229.5 2032 c 128,-1,7
 206 2065 206 2065 206 2118 c 0,8,9
 206 2161 206 2161 217 2202.5 c 128,-1,10
 228 2244 228 2244 251 2284 c 128,-1,11
 274 2324 274 2324 318.5 2348.5 c 128,-1,12
 363 2373 363 2373 422 2373 c 0,13,14
 440 2373 440 2373 458 2369.5 c 128,-1,15
 476 2366 476 2366 493.5 2359.5 c 128,-1,16
 511 2353 511 2353 528.5 2343.5 c 128,-1,17
 546 2334 546 2334 562.5 2321 c 128,-1,18
 579 2308 579 2308 596 2293 c 1,19,-1
 552 2192 l 1,20,21
 475 2217 475 2217 424 2217 c 0,22,23
 376 2217 376 2217 349.5 2195.5 c 128,-1,24
 323 2174 323 2174 323 2150 c 0,25,26
 323 2121 323 2121 349.5 2095 c 128,-1,27
 376 2069 376 2069 434 2069 c 0,28,29
 483 2069 483 2069 535 2083 c 0,30,31
 536 2083 536 2083 538 2084 c 0,32,33
 547 2087 547 2087 552.5 2088 c 128,-1,34
 558 2089 558 2089 567.5 2091 c 128,-1,35
 577 2093 577 2093 583 2092 c 128,-1,36
 589 2091 589 2091 595 2089.5 c 128,-1,37
 601 2088 601 2088 604 2082.5 c 128,-1,38
 607 2077 607 2077 607 2068 c 2,39,-1
 607 1957 l 1,40,41
 521 1932 521 1932 415.5 1889.5 c 128,-1,42
 310 1847 310 1847 189 1789 c 1,0,-1
EndSplineSet
EndChar

StartChar: uni06A1
Encoding: 1697 1697 222
Width: 1873
GlyphClass: 2
Flags: W
AnchorPoint: "Anchor-3" 762 -190 basechar 0
AnchorPoint: "Anchor-1" 902 1274 basechar 0
LayerCount: 2
Fore
SplineSet
177 689 m 0,0,1
 183 708 183 708 200 705.5 c 128,-1,2
 217 703 217 703 213 680 c 0,3,4
 182 503 182 503 268 434.5 c 128,-1,5
 354 366 354 366 539 366 c 0,6,7
 722 366 722 366 1086 366 c 128,-1,8
 1450 366 1450 366 1632 366 c 1,9,10
 1609 437 1609 437 1577 499 c 1,11,12
 1445 482 1445 482 1296 489 c 1,13,14
 1125 506 1125 506 1174 704 c 0,15,16
 1212 848 1212 848 1262 974 c 0,17,18
 1304 1075 1304 1075 1417.5 1078.5 c 128,-1,19
 1531 1082 1531 1082 1637 974 c 1,20,21
 1780 805 1780 805 1794 649 c 0,22,23
 1806 511 1806 511 1765 361 c 0,24,25
 1709 152 1709 152 1639 66 c 1,26,27
 1592 0 1592 0 1418 0 c 0,28,29
 1265 0 1265 0 961 0 c 128,-1,30
 657 0 657 0 505 0 c 0,31,32
 244 0 244 0 160.5 199 c 128,-1,33
 77 398 77 398 177 689 c 0,0,1
EndSplineSet
Substitution2: "'init' Initial Forms in Arabic lookup 3 subtable" uni06A1.init
Substitution2: "'medi' Medial Forms in Arabic lookup 2 subtable" uni06A1.medi
Substitution2: "'fina' Terminal Forms in Arabic lookup 1 subtable" uni06A1.fina
EndChar

StartChar: uni06A9
Encoding: 1705 1705 224
Width: 1850
GlyphClass: 2
Flags: W
AnchorPoint: "Anchor-3" 803 -211 basechar 0
AnchorPoint: "Anchor-1" 1201 1486 basechar 0
LayerCount: 2
Fore
SplineSet
1594 366 m 1,0,1
 1559 111 1559 111 1517 55.5 c 128,-1,2
 1475 0 1475 0 1312 0 c 0,3,4
 1180 0 1180 0 916 0 c 128,-1,5
 652 0 652 0 520 0 c 0,6,7
 258 0 258 0 174.5 199 c 128,-1,8
 91 398 91 398 192 689 c 0,9,10
 198 708 198 708 215 705.5 c 128,-1,11
 232 703 232 703 228 680 c 0,12,13
 197 503 197 503 283 434.5 c 128,-1,14
 369 366 369 366 554 366 c 2,15,-1
 1413 366 l 1,16,17
 1369 507 1369 507 1199 639 c 128,-1,18
 1029 771 1029 771 885 800 c 1,19,-1
 938 1234 l 2,20,21
 945 1291 945 1291 1009 1307 c 2,22,-1
 1741 1465 l 1,23,-1
 1624 1120 l 1,24,-1
 1152 1020 l 1,25,26
 1367 920 1367 920 1497.5 743 c 128,-1,27
 1628 566 1628 566 1594 366 c 1,0,1
EndSplineSet
Substitution2: "'init' Initial Forms in Arabic lookup 3 subtable" uniFB90
Substitution2: "'medi' Medial Forms in Arabic lookup 2 subtable" uniFB91
Substitution2: "'fina' Terminal Forms in Arabic lookup 1 subtable" uniFB8F
EndChar

StartChar: uni06BA
Encoding: 1722 1722 227
Width: 1407
GlyphClass: 2
Flags: W
LayerCount: 2
Fore
SplineSet
252 495 m 0,0,1
 260 511 260 511 274 505 c 0,2,3
 289 499 289 499 284 482 c 0,4,5
 220 249 220 249 221 167 c 0,6,7
 225 -103 225 -103 443 -196 c 0,8,9
 610 -268 610 -268 834 -218.5 c 128,-1,10
 1058 -169 1058 -169 1178 -30 c 1,11,-1
 936 393 l 1,12,-1
 1108 650 l 1,13,14
 1165 566 1165 566 1214 480 c 1,15,16
 1318 268 1318 268 1326.5 55.5 c 128,-1,17
 1335 -157 1335 -157 1209.5 -340.5 c 128,-1,18
 1084 -524 1084 -524 857 -587 c 0,19,20
 690 -636 690 -636 511 -602 c 128,-1,21
 332 -568 332 -568 218 -458 c 0,22,23
 66 -310 66 -310 76.5 -60.5 c 128,-1,24
 87 189 87 189 252 495 c 0,0,1
EndSplineSet
Substitution2: "'fina' Terminal Forms in Arabic lookup 1 subtable" uniFB9F
EndChar

StartChar: uni06F0
Encoding: 1776 1776 235
Width: 861
GlyphClass: 2
Flags: W
LayerCount: 2
Fore
SplineSet
430 420 m 128,-1,1
 475 420 475 420 508 453 c 128,-1,2
 541 486 541 486 541 531 c 128,-1,3
 541 576 541 576 508 609 c 128,-1,4
 475 642 475 642 430 642 c 128,-1,5
 385 642 385 642 352.5 609 c 128,-1,6
 320 576 320 576 320 531 c 128,-1,7
 320 486 320 486 352.5 453 c 128,-1,0
 385 420 385 420 430 420 c 128,-1,1
430 232 m 128,-1,9
 350 232 350 232 281 273 c 128,-1,10
 212 314 212 314 172 384 c 128,-1,11
 132 454 132 454 132 534 c 0,12,13
 132 594 132 594 156 649.5 c 128,-1,14
 180 705 180 705 220 745.5 c 128,-1,15
 260 786 260 786 315 810.5 c 128,-1,16
 370 835 370 835 430 835 c 0,17,18
 510 835 510 835 579 794 c 128,-1,19
 648 753 648 753 688.5 683.5 c 128,-1,20
 729 614 729 614 729 534 c 128,-1,21
 729 454 729 454 688.5 384 c 128,-1,22
 648 314 648 314 579 273 c 128,-1,8
 510 232 510 232 430 232 c 128,-1,9
EndSplineSet
PairPos2: "'kern' Horizontal Kerning in Arabic lookup 0 per glyph data 6" uni06F7 dx=-40 dy=0 dh=-40 dv=0 dx=0 dy=0 dh=0 dv=0
PairPos2: "'kern' Horizontal Kerning in Arabic lookup 0 per glyph data 6" uni06F6 dx=-40 dy=0 dh=-40 dv=0 dx=0 dy=0 dh=0 dv=0
PairPos2: "'kern' Horizontal Kerning in Arabic lookup 0 per glyph data 6" uni06F4 dx=-40 dy=0 dh=-40 dv=0 dx=0 dy=0 dh=0 dv=0
PairPos2: "'kern' Horizontal Kerning in Arabic lookup 0 per glyph data 6" uni06F3 dx=-40 dy=0 dh=-40 dv=0 dx=0 dy=0 dh=0 dv=0
PairPos2: "'kern' Horizontal Kerning in Arabic lookup 0 per glyph data 6" uni06F2 dx=-40 dy=0 dh=-40 dv=0 dx=0 dy=0 dh=0 dv=0
EndChar

StartChar: uni06F4
Encoding: 1780 1780 239
Width: 1214
GlyphClass: 2
Flags: W
LayerCount: 2
Fore
SplineSet
884 1196 m 0,0,1
 800 1196 800 1196 752.5 1164.5 c 128,-1,2
 705 1133 705 1133 705 1056 c 0,3,4
 705 1027 705 1027 761 1005.5 c 128,-1,5
 817 984 817 984 880 984 c 0,6,7
 1001 984 1001 984 1109 1032 c 1,8,-1
 1134 817 l 1,9,10
 995 710 995 710 810 710 c 0,11,12
 657 710 657 710 527 789 c 1,13,14
 560 544 560 544 560 261 c 0,15,16
 560 144 560 144 547 73 c 0,17,18
 542 45 542 45 505.5 31.5 c 128,-1,19
 469 18 469 18 356 -2 c 1,20,21
 350 689 350 689 112 1229 c 1,22,-1
 307 1449 l 2,23,24
 344 1491 344 1491 361 1437 c 0,25,26
 366 1423 366 1423 380.5 1379.5 c 128,-1,27
 395 1336 395 1336 401.5 1318 c 128,-1,28
 408 1300 408 1300 422 1263.5 c 128,-1,29
 436 1227 436 1227 446 1207.5 c 128,-1,30
 456 1188 456 1188 470.5 1161.5 c 128,-1,31
 485 1135 485 1135 501 1117 c 128,-1,32
 517 1099 517 1099 534 1085 c 1,33,34
 531 1117 531 1117 531 1137 c 0,35,36
 531 1272 531 1272 612.5 1356.5 c 128,-1,37
 694 1441 694 1441 834 1441 c 0,38,39
 995 1441 995 1441 1104 1306 c 1,40,-1
 1050 1157 l 1,41,42
 953 1196 953 1196 884 1196 c 0,0,1
EndSplineSet
PairPos2: "'kern' Horizontal Kerning in Arabic lookup 0 per glyph data 6" uni06F8 dx=-70 dy=0 dh=-70 dv=0 dx=0 dy=0 dh=0 dv=0
PairPos2: "'kern' Horizontal Kerning in Arabic lookup 0 per glyph data 6" uni06F5 dx=-70 dy=0 dh=-70 dv=0 dx=0 dy=0 dh=0 dv=0
EndChar

StartChar: uni06F5
Encoding: 1781 1781 240
Width: 1216
GlyphClass: 2
Flags: W
LayerCount: 2
Fore
SplineSet
663 548 m 1,0,1
 720 302 720 302 853 302 c 0,2,3
 946 302 946 302 946 411 c 0,4,5
 946 510 946 510 855 648.5 c 128,-1,6
 764 787 764 787 576 980 c 1,7,8
 277 546 277 546 277 408 c 0,9,10
 277 300 277 300 378 300 c 0,11,12
 440 300 440 300 483 362 c 128,-1,13
 526 424 526 424 558 549 c 1,14,-1
 663 548 l 1,0,1
617 153 m 1,15,16
 537 0 537 0 362 0 c 0,17,18
 81 0 81 0 81 348 c 0,19,20
 81 650 81 650 415 1163 c 1,21,-1
 375 1206 l 1,22,-1
 514 1427 l 2,23,24
 529 1451 529 1451 555 1424 c 0,25,26
 1136 831 1136 831 1136 375 c 0,27,28
 1136 0 1136 0 873 0 c 0,29,30
 707 0 707 0 617 153 c 1,15,16
EndSplineSet
PairPos2: "'kern' Horizontal Kerning in Arabic lookup 0 per glyph data 6" uni06F7 dx=-70 dy=0 dh=-70 dv=0 dx=0 dy=0 dh=0 dv=0
PairPos2: "'kern' Horizontal Kerning in Arabic lookup 0 per glyph data 6" uni06F6 dx=-70 dy=0 dh=-70 dv=0 dx=0 dy=0 dh=0 dv=0
PairPos2: "'kern' Horizontal Kerning in Arabic lookup 0 per glyph data 6" uni06F4 dx=-70 dy=0 dh=-70 dv=0 dx=0 dy=0 dh=0 dv=0
PairPos2: "'kern' Horizontal Kerning in Arabic lookup 0 per glyph data 6" uni06F3 dx=-100 dy=0 dh=-100 dv=0 dx=0 dy=0 dh=0 dv=0
PairPos2: "'kern' Horizontal Kerning in Arabic lookup 0 per glyph data 6" uni06F2 dx=-100 dy=0 dh=-100 dv=0 dx=0 dy=0 dh=0 dv=0
EndChar

StartChar: uni06F6
Encoding: 1782 1782 241
Width: 1078
GlyphClass: 2
Flags: W
LayerCount: 2
Fore
SplineSet
585 1176 m 0,0,1
 482 1176 482 1176 411.5 1125 c 128,-1,2
 341 1074 341 1074 340 1007 c 0,3,4
 340 959 340 959 383 929 c 128,-1,5
 426 899 426 899 493.5 886 c 128,-1,6
 561 873 561 873 665 868 c 1,7,8
 689 879 689 879 715 892.5 c 128,-1,9
 741 906 741 906 766.5 920 c 128,-1,10
 792 934 792 934 800 938 c 0,11,12
 932 1008 932 1008 958 1015 c 0,13,14
 982 1020 982 1020 990.5 1006.5 c 128,-1,15
 999 993 999 993 993 959 c 2,16,-1
 944 693 l 1,17,18
 609 548 609 548 242 -32 c 1,19,-1
 117 72 l 2,20,21
 110 78 110 78 107.5 85 c 128,-1,22
 105 92 105 92 107 101.5 c 128,-1,23
 109 111 109 111 111 117 c 128,-1,24
 113 123 113 123 119 136 c 128,-1,25
 125 149 125 149 127 153 c 0,26,27
 236 391 236 391 416 621 c 1,28,29
 271 668 271 668 203.5 759.5 c 128,-1,30
 136 851 136 851 136 987 c 0,31,32
 136 1108 136 1108 191 1216 c 128,-1,33
 246 1324 246 1324 339.5 1389.5 c 128,-1,34
 433 1455 433 1455 539 1455 c 0,35,36
 710 1455 710 1455 849 1334 c 1,37,-1
 780 1141 l 1,38,39
 672 1176 672 1176 585 1176 c 0,0,1
EndSplineSet
EndChar

StartChar: endash
Encoding: 8211 8211 259
Width: 1024
GlyphClass: 2
Flags: W
LayerCount: 2
Fore
SplineSet
82 436 m 1,0,-1
 82 666 l 1,1,-1
 942 666 l 1,2,-1
 942 436 l 1,3,-1
 82 436 l 1,0,-1
EndSplineSet
EndChar

StartChar: emdash
Encoding: 8212 8212 260
Width: 2048
GlyphClass: 2
Flags: W
LayerCount: 2
Fore
SplineSet
82 436 m 1,0,-1
 82 666 l 1,1,-1
 1966 666 l 1,2,-1
 1966 436 l 1,3,-1
 82 436 l 1,0,-1
EndSplineSet
EndChar

StartChar: afii00208
Encoding: 8213 8213 261
Width: 2048
GlyphClass: 2
Flags: W
LayerCount: 2
Fore
SplineSet
82 436 m 1,0,-1
 82 666 l 1,1,-1
 1966 666 l 1,2,-1
 1966 436 l 1,3,-1
 82 436 l 1,0,-1
EndSplineSet
EndChar

StartChar: underscoredbl
Encoding: 8215 8215 262
Width: 842
GlyphClass: 2
Flags: W
LayerCount: 2
Fore
SplineSet
846 -463 m 1,0,-1
 -4 -463 l 1,1,-1
 -4 -324 l 1,2,-1
 846 -324 l 1,3,-1
 846 -463 l 1,0,-1
846 -184 m 1,4,-1
 -4 -184 l 1,5,-1
 -4 -45 l 1,6,-1
 846 -45 l 1,7,-1
 846 -184 l 1,4,-1
EndSplineSet
EndChar

StartChar: quoteleft
Encoding: 8216 8216 263
Width: 444
GlyphClass: 2
Flags: W
LayerCount: 2
Fore
SplineSet
39 961 m 1,0,-1
 25 983 l 1,1,2
 47 1074 47 1074 97.5 1211.5 c 128,-1,3
 148 1349 148 1349 201 1462 c 1,4,-1
 420 1462 l 1,5,6
 354 1195 354 1195 319 961 c 1,7,-1
 39 961 l 1,0,-1
EndSplineSet
EndChar

StartChar: quoteright
Encoding: 8217 8217 264
Width: 444
GlyphClass: 2
Flags: W
LayerCount: 2
Fore
SplineSet
406 1462 m 1,0,-1
 420 1440 l 1,1,2
 370 1243 370 1243 244 961 c 1,3,-1
 25 961 l 1,4,5
 94 1257 94 1257 125 1462 c 1,6,-1
 406 1462 l 1,0,-1
EndSplineSet
EndChar

StartChar: quotesinglbase
Encoding: 8218 8218 265
Width: 596
GlyphClass: 2
Flags: W
LayerCount: 2
Fore
SplineSet
459 215 m 1,0,1
 407 13 407 13 283 -264 c 1,2,-1
 63 -264 l 1,3,4
 128 2 128 2 164 238 c 1,5,-1
 444 238 l 1,6,-1
 459 215 l 1,0,1
EndSplineSet
EndChar

StartChar: quotereversed
Encoding: 8219 8219 266
Width: 442
GlyphClass: 2
Flags: W
LayerCount: 2
Fore
SplineSet
319 1462 m 1,0,1
 356 1217 356 1217 420 961 c 1,2,-1
 201 961 l 1,3,4
 142 1088 142 1088 93.5 1221.5 c 128,-1,5
 45 1355 45 1355 25 1440 c 1,6,-1
 39 1462 l 1,7,-1
 319 1462 l 1,0,1
EndSplineSet
EndChar

StartChar: quotedblleft
Encoding: 8220 8220 267
Width: 911
GlyphClass: 2
Flags: W
LayerCount: 2
Fore
SplineSet
492 983 m 1,0,1
 514 1074 514 1074 564.5 1211.5 c 128,-1,2
 615 1349 615 1349 668 1462 c 1,3,-1
 887 1462 l 1,4,5
 821 1195 821 1195 786 961 c 1,6,-1
 506 961 l 1,7,-1
 492 983 l 1,0,1
25 983 m 1,8,9
 47 1074 47 1074 97.5 1211.5 c 128,-1,10
 148 1349 148 1349 201 1462 c 1,11,-1
 420 1462 l 1,12,13
 354 1195 354 1195 319 961 c 1,14,-1
 39 961 l 1,15,-1
 25 983 l 1,8,9
EndSplineSet
EndChar

StartChar: quotedblright
Encoding: 8221 8221 268
Width: 911
GlyphClass: 2
Flags: W
LayerCount: 2
Fore
SplineSet
420 1440 m 1,0,1
 370 1243 370 1243 244 961 c 1,2,-1
 25 961 l 1,3,4
 94 1257 94 1257 125 1462 c 1,5,-1
 406 1462 l 1,6,-1
 420 1440 l 1,0,1
887 1440 m 1,7,8
 837 1243 837 1243 711 961 c 1,9,-1
 492 961 l 1,10,11
 561 1257 561 1257 592 1462 c 1,12,-1
 872 1462 l 1,13,-1
 887 1440 l 1,7,8
EndSplineSet
EndChar

StartChar: quotedblbase
Encoding: 8222 8222 269
Width: 1061
GlyphClass: 2
Flags: W
LayerCount: 2
Fore
SplineSet
459 215 m 1,0,1
 407 13 407 13 283 -264 c 1,2,-1
 63 -264 l 1,3,4
 128 2 128 2 164 238 c 1,5,-1
 444 238 l 1,6,-1
 459 215 l 1,0,1
926 215 m 1,7,8
 874 13 874 13 750 -264 c 1,9,-1
 530 -264 l 1,10,11
 595 2 595 2 631 238 c 1,12,-1
 911 238 l 1,13,-1
 926 215 l 1,7,8
EndSplineSet
EndChar

StartChar: dagger
Encoding: 8224 8224 270
Width: 1057
GlyphClass: 2
Flags: W
LayerCount: 2
Fore
SplineSet
934 928 m 1,0,-1
 602 958 l 1,1,-1
 657 0 l 1,2,-1
 379 0 l 1,3,-1
 434 958 l 1,4,-1
 123 928 l 1,5,-1
 123 1169 l 1,6,-1
 434 1139 l 1,7,-1
 379 1556 l 1,8,-1
 657 1556 l 1,9,-1
 602 1139 l 1,10,-1
 934 1169 l 1,11,-1
 934 928 l 1,0,-1
EndSplineSet
EndChar

StartChar: daggerdbl
Encoding: 8225 8225 271
Width: 1077
GlyphClass: 2
Flags: W
LayerCount: 2
Fore
SplineSet
623 557 m 1,0,-1
 954 588 l 1,1,-1
 954 346 l 1,2,-1
 623 377 l 1,3,-1
 678 0 l 1,4,-1
 399 0 l 1,5,-1
 455 377 l 1,6,-1
 123 346 l 1,7,-1
 123 588 l 1,8,-1
 455 557 l 1,9,-1
 408 786 l 1,10,-1
 455 999 l 1,11,-1
 123 969 l 1,12,-1
 123 1210 l 1,13,-1
 455 1180 l 1,14,-1
 399 1556 l 1,15,-1
 678 1556 l 1,16,-1
 623 1180 l 1,17,-1
 954 1210 l 1,18,-1
 954 969 l 1,19,-1
 623 999 l 1,20,-1
 670 786 l 1,21,-1
 623 557 l 1,0,-1
EndSplineSet
EndChar

StartChar: bullet
Encoding: 8226 8226 272
Width: 770
GlyphClass: 2
Flags: W
LayerCount: 2
Fore
SplineSet
98 748 m 0,0,1
 98 902 98 902 172 983.5 c 128,-1,2
 246 1065 246 1065 385 1065 c 0,3,4
 522 1065 522 1065 597 983 c 128,-1,5
 672 901 672 901 672 748 c 0,6,7
 672 596 672 596 596.5 513 c 128,-1,8
 521 430 521 430 385 430 c 0,9,10
 247 430 247 430 172.5 513 c 128,-1,11
 98 596 98 596 98 748 c 0,0,1
EndSplineSet
EndChar

StartChar: ellipsis
Encoding: 8230 8230 273
Width: 1751
GlyphClass: 2
Flags: W
LayerCount: 2
Fore
SplineSet
117 143 m 0,0,1
 117 227 117 227 162 270 c 128,-1,2
 207 313 207 313 293 313 c 0,3,4
 376 313 376 313 421.5 269 c 128,-1,5
 467 225 467 225 467 143 c 0,6,7
 467 64 467 64 421 18.5 c 128,-1,8
 375 -27 375 -27 293 -27 c 0,9,10
 209 -27 209 -27 163 17.5 c 128,-1,11
 117 62 117 62 117 143 c 0,0,1
700 143 m 0,12,13
 700 227 700 227 745 270 c 128,-1,14
 790 313 790 313 877 313 c 0,15,16
 960 313 960 313 1005.5 269 c 128,-1,17
 1051 225 1051 225 1051 143 c 0,18,19
 1051 64 1051 64 1005 18.5 c 128,-1,20
 959 -27 959 -27 877 -27 c 0,21,22
 792 -27 792 -27 746 17.5 c 128,-1,23
 700 62 700 62 700 143 c 0,12,13
1284 143 m 0,24,25
 1284 227 1284 227 1329 270 c 128,-1,26
 1374 313 1374 313 1460 313 c 0,27,28
 1543 313 1543 313 1588.5 269 c 128,-1,29
 1634 225 1634 225 1634 143 c 0,30,31
 1634 64 1634 64 1588 18.5 c 128,-1,32
 1542 -27 1542 -27 1460 -27 c 0,33,34
 1376 -27 1376 -27 1330 17.5 c 128,-1,35
 1284 62 1284 62 1284 143 c 0,24,25
EndSplineSet
EndChar

StartChar: perthousand
Encoding: 8240 8240 275
Width: 2623
GlyphClass: 2
Flags: W
LayerCount: 2
Fore
SplineSet
315 1024 m 256,0,1
 315 897 315 897 337.5 834.5 c 128,-1,2
 360 772 360 772 410 772 c 0,3,4
 506 772 506 772 506 1024 c 0,5,6
 506 1274 506 1274 410 1274 c 0,7,8
 360 1274 360 1274 337.5 1212.5 c 128,-1,9
 315 1151 315 1151 315 1024 c 256,0,1
758 1026 m 0,10,11
 758 796 758 796 669 680.5 c 128,-1,12
 580 565 580 565 408 565 c 0,13,14
 243 565 243 565 153 683.5 c 128,-1,15
 63 802 63 802 63 1026 c 0,16,17
 63 1483 63 1483 408 1483 c 0,18,19
 577 1483 577 1483 667.5 1364.5 c 128,-1,20
 758 1246 758 1246 758 1026 c 0,10,11
1446 1462 m 1,21,-1
 635 0 l 1,22,-1
 395 0 l 1,23,-1
 1206 1462 l 1,24,-1
 1446 1462 l 1,21,-1
1339 440 m 256,25,26
 1339 313 1339 313 1361.5 250.5 c 128,-1,27
 1384 188 1384 188 1434 188 c 0,28,29
 1530 188 1530 188 1530 440 c 0,30,31
 1530 690 1530 690 1434 690 c 0,32,33
 1384 690 1384 690 1361.5 628.5 c 128,-1,34
 1339 567 1339 567 1339 440 c 256,25,26
1782 442 m 0,35,36
 1782 213 1782 213 1693 97.5 c 128,-1,37
 1604 -18 1604 -18 1432 -18 c 0,38,39
 1267 -18 1267 -18 1177 100.5 c 128,-1,40
 1087 219 1087 219 1087 442 c 0,41,42
 1087 899 1087 899 1432 899 c 0,43,44
 1601 899 1601 899 1691.5 780.5 c 128,-1,45
 1782 662 1782 662 1782 442 c 0,35,36
2118 440 m 256,46,47
 2118 313 2118 313 2140 250.5 c 128,-1,48
 2162 188 2162 188 2212 188 c 0,49,50
 2308 188 2308 188 2308 440 c 0,51,52
 2308 690 2308 690 2212 690 c 0,53,54
 2162 690 2162 690 2140 628.5 c 128,-1,55
 2118 567 2118 567 2118 440 c 256,46,47
2560 442 m 0,56,57
 2560 214 2560 214 2472 98 c 128,-1,58
 2384 -18 2384 -18 2210 -18 c 0,59,60
 2046 -18 2046 -18 1956 100.5 c 128,-1,61
 1866 219 1866 219 1866 442 c 0,62,63
 1866 899 1866 899 2210 899 c 0,64,65
 2379 899 2379 899 2469.5 780.5 c 128,-1,66
 2560 662 2560 662 2560 442 c 0,56,57
1845 0 m 1024,67,-1
EndSplineSet
EndChar

StartChar: guilsinglleft
Encoding: 8249 8249 278
Width: 754
GlyphClass: 2
Flags: W
LayerCount: 2
Fore
SplineSet
82 573 m 1,0,-1
 453 1028 l 1,1,-1
 672 909 l 1,2,-1
 393 561 l 1,3,-1
 672 213 l 1,4,-1
 453 94 l 1,5,-1
 82 547 l 1,6,-1
 82 573 l 1,0,-1
EndSplineSet
EndChar

StartChar: guilsinglright
Encoding: 8250 8250 279
Width: 754
GlyphClass: 2
Flags: W
LayerCount: 2
Fore
SplineSet
672 547 m 1,0,-1
 301 94 l 1,1,-1
 82 213 l 1,2,-1
 360 561 l 1,3,-1
 82 909 l 1,4,-1
 301 1028 l 1,5,-1
 672 573 l 1,6,-1
 672 547 l 1,0,-1
EndSplineSet
EndChar

StartChar: exclamdbl
Encoding: 8252 8252 280
Width: 1167
GlyphClass: 2
Flags: W
LayerCount: 2
Fore
SplineSet
416 485 m 1,0,-1
 172 485 l 1,1,-1
 121 1462 l 1,2,-1
 467 1462 l 1,3,-1
 416 485 l 1,0,-1
117 143 m 0,4,5
 117 227 117 227 162 270 c 128,-1,6
 207 313 207 313 293 313 c 0,7,8
 376 313 376 313 421.5 269 c 128,-1,9
 467 225 467 225 467 143 c 0,10,11
 467 64 467 64 421 18.5 c 128,-1,12
 375 -27 375 -27 293 -27 c 0,13,14
 209 -27 209 -27 163 17.5 c 128,-1,15
 117 62 117 62 117 143 c 0,4,5
1000 485 m 1,16,-1
 756 485 l 1,17,-1
 705 1462 l 1,18,-1
 1051 1462 l 1,19,-1
 1000 485 l 1,16,-1
701 143 m 0,20,21
 701 227 701 227 746 270 c 128,-1,22
 791 313 791 313 877 313 c 0,23,24
 960 313 960 313 1005.5 269 c 128,-1,25
 1051 225 1051 225 1051 143 c 0,26,27
 1051 64 1051 64 1005 18.5 c 128,-1,28
 959 -27 959 -27 877 -27 c 0,29,30
 793 -27 793 -27 747 17.5 c 128,-1,31
 701 62 701 62 701 143 c 0,20,21
EndSplineSet
EndChar

StartChar: fraction
Encoding: 8260 8260 281
Width: 266
GlyphClass: 2
Flags: W
LayerCount: 2
Fore
SplineSet
657 1462 m 1,0,-1
 -154 0 l 1,1,-1
 -393 0 l 1,2,-1
 418 1462 l 1,3,-1
 657 1462 l 1,0,-1
EndSplineSet
EndChar

StartChar: zerosuperior
Encoding: 8304 8304 282
Width: 776
GlyphClass: 2
Flags: W
LayerCount: 2
Fore
SplineSet
293 1024 m 256,0,1
 293 897 293 897 315.5 834.5 c 128,-1,2
 338 772 338 772 387 772 c 0,3,4
 437 772 437 772 460 834 c 128,-1,5
 483 896 483 896 483 1024 c 0,6,7
 483 1151 483 1151 460 1212.5 c 128,-1,8
 437 1274 437 1274 387 1274 c 0,9,10
 338 1274 338 1274 315.5 1212.5 c 128,-1,11
 293 1151 293 1151 293 1024 c 256,0,1
735 1026 m 0,12,13
 735 565 735 565 385 565 c 0,14,15
 221 565 221 565 131 683.5 c 128,-1,16
 41 802 41 802 41 1026 c 0,17,18
 41 1483 41 1483 385 1483 c 0,19,20
 554 1483 554 1483 644.5 1364.5 c 128,-1,21
 735 1246 735 1246 735 1026 c 0,12,13
EndSplineSet
EndChar

StartChar: foursuperior
Encoding: 8308 8308 283
Width: 776
GlyphClass: 2
Flags: W
LayerCount: 2
Fore
SplineSet
758 737 m 1,0,-1
 633 737 l 1,1,-1
 633 586 l 1,2,-1
 395 586 l 1,3,-1
 395 737 l 1,4,-1
 12 737 l 1,5,-1
 12 891 l 1,6,-1
 397 1468 l 1,7,-1
 633 1468 l 1,8,-1
 633 905 l 1,9,-1
 758 905 l 1,10,-1
 758 737 l 1,0,-1
395 905 m 1,11,-1
 395 1069 l 2,12,13
 395 1155 395 1155 401 1253 c 1,14,15
 392 1227 392 1227 365.5 1173 c 128,-1,16
 339 1119 339 1119 324 1096 c 2,17,-1
 197 905 l 1,18,-1
 395 905 l 1,11,-1
EndSplineSet
EndChar

StartChar: fivesuperior
Encoding: 8309 8309 284
Width: 776
GlyphClass: 2
Flags: W
LayerCount: 2
Fore
SplineSet
397 1151 m 0,0,1
 540 1151 540 1151 627.5 1076.5 c 128,-1,2
 715 1002 715 1002 715 874 c 0,3,4
 715 729 715 729 620 649 c 128,-1,5
 525 569 525 569 342 569 c 0,6,7
 184 569 184 569 84 621 c 1,8,-1
 84 813 l 1,9,10
 134 781 134 781 200.5 760 c 128,-1,11
 267 739 267 739 322 739 c 0,12,13
 494 739 494 739 494 870 c 0,14,15
 494 933 494 933 450.5 965 c 128,-1,16
 407 997 407 997 326 997 c 0,17,18
 263 997 263 997 207 979 c 1,19,-1
 98 1022 l 1,20,-1
 135 1462 l 1,21,-1
 655 1462 l 1,22,-1
 655 1278 l 1,23,-1
 299 1278 l 1,24,-1
 283 1143 l 1,25,26
 339 1151 339 1151 397 1151 c 0,0,1
EndSplineSet
EndChar

StartChar: sixsuperior
Encoding: 8310 8310 285
Width: 776
GlyphClass: 2
Flags: W
LayerCount: 2
Fore
SplineSet
729 877 m 0,0,1
 729 733 729 733 641.5 649 c 128,-1,2
 554 565 554 565 399 565 c 0,3,4
 241 565 241 565 143 660.5 c 128,-1,5
 45 756 45 756 45 913 c 0,6,7
 45 1331 45 1331 592 1495 c 1,8,-1
 659 1333 l 1,9,10
 484 1280 484 1280 393 1214 c 128,-1,11
 302 1148 302 1148 276 1061 c 1,12,-1
 287 1061 l 1,13,14
 318 1104 318 1104 362.5 1127.5 c 128,-1,15
 407 1151 407 1151 481 1151 c 0,16,17
 597 1151 597 1151 663 1081 c 128,-1,18
 729 1011 729 1011 729 877 c 0,0,1
385 743 m 0,19,20
 444 743 444 743 475 778.5 c 128,-1,21
 506 814 506 814 506 877 c 0,22,23
 506 931 506 931 476 965 c 128,-1,24
 446 999 446 999 389 999 c 0,25,26
 260 999 260 999 260 893 c 0,27,28
 260 827 260 827 294 785 c 128,-1,29
 328 743 328 743 385 743 c 0,19,20
EndSplineSet
EndChar

StartChar: sevensuperior
Encoding: 8311 8311 286
Width: 776
GlyphClass: 2
Flags: W
LayerCount: 2
Fore
SplineSet
154 586 m 1,0,-1
 494 1278 l 1,1,-1
 59 1278 l 1,2,-1
 59 1462 l 1,3,-1
 727 1462 l 1,4,-1
 727 1313 l 1,5,-1
 406 586 l 1,6,-1
 154 586 l 1,0,-1
EndSplineSet
EndChar

StartChar: eightsuperior
Encoding: 8312 8312 287
Width: 776
GlyphClass: 2
Flags: W
LayerCount: 2
Fore
SplineSet
389 1483 m 0,0,1
 530 1483 530 1483 614 1422.5 c 128,-1,2
 698 1362 698 1362 698 1257 c 0,3,4
 698 1194 698 1194 664.5 1144 c 128,-1,5
 631 1094 631 1094 555 1051 c 1,6,7
 630 1009 630 1009 663 978.5 c 128,-1,8
 696 948 696 948 713.5 911.5 c 128,-1,9
 731 875 731 875 731 831 c 0,10,11
 731 714 731 714 635.5 639.5 c 128,-1,12
 540 565 540 565 389 565 c 0,13,14
 228 565 228 565 136.5 635 c 128,-1,15
 45 705 45 705 45 825 c 0,16,17
 45 890 45 890 80.5 943 c 128,-1,18
 116 996 116 996 203 1042 c 1,19,20
 76 1131 76 1131 76 1257 c 0,21,22
 76 1361 76 1361 163 1422 c 128,-1,23
 250 1483 250 1483 389 1483 c 0,0,1
270 825 m 0,24,25
 270 780 270 780 299 751.5 c 128,-1,26
 328 723 328 723 385 723 c 0,27,28
 444 723 444 723 474 751.5 c 128,-1,29
 504 780 504 780 504 825 c 0,30,31
 504 906 504 906 371 950 c 1,32,33
 270 906 270 906 270 825 c 0,24,25
387 1325 m 0,34,35
 344 1325 344 1325 321.5 1301.5 c 128,-1,36
 299 1278 299 1278 299 1249 c 0,37,38
 299 1208 299 1208 325 1183 c 128,-1,39
 351 1158 351 1158 389 1137 c 1,40,41
 427 1156 427 1156 452 1181 c 128,-1,42
 477 1206 477 1206 477 1249 c 0,43,44
 477 1278 477 1278 456 1301.5 c 128,-1,45
 435 1325 435 1325 387 1325 c 0,34,35
EndSplineSet
EndChar

StartChar: ninesuperior
Encoding: 8313 8313 288
Width: 776
GlyphClass: 2
Flags: W
LayerCount: 2
Fore
SplineSet
725 1075 m 0,0,1
 725 821 725 821 602 695 c 128,-1,2
 479 569 479 569 248 569 c 0,3,4
 175 569 175 569 121 584 c 1,5,-1
 121 772 l 1,6,7
 170 750 170 750 221 750 c 0,8,9
 361 750 361 750 430.5 806 c 128,-1,10
 500 862 500 862 508 993 c 1,11,-1
 500 993 l 1,12,13
 429 895 429 895 303 895 c 0,14,15
 181 895 181 895 112 969 c 128,-1,16
 43 1043 43 1043 43 1174 c 0,17,18
 43 1311 43 1311 134 1396 c 128,-1,19
 225 1481 225 1481 373 1481 c 0,20,21
 537 1481 537 1481 631 1374.5 c 128,-1,22
 725 1268 725 1268 725 1075 c 0,0,1
385 1303 m 256,23,24
 332 1303 332 1303 299 1267.5 c 128,-1,25
 266 1232 266 1232 266 1167 c 0,26,27
 266 1112 266 1112 294 1079.5 c 128,-1,28
 322 1047 322 1047 381 1047 c 0,29,30
 436 1047 436 1047 471 1078.5 c 128,-1,31
 506 1110 506 1110 506 1153 c 0,32,33
 506 1220 506 1220 472 1261.5 c 128,-1,34
 438 1303 438 1303 385 1303 c 256,23,24
EndSplineSet
EndChar

StartChar: nsuperior
Encoding: 8319 8319 289
Width: 866
GlyphClass: 2
Flags: W
LayerCount: 2
Fore
SplineSet
580 764 m 1,0,-1
 580 1165 l 2,1,2
 580 1241 580 1241 550 1273 c 128,-1,3
 520 1305 520 1305 463 1305 c 0,4,5
 373 1305 373 1305 337 1257 c 128,-1,6
 301 1209 301 1209 301 1096 c 2,7,-1
 301 764 l 1,8,-1
 102 764 l 1,9,-1
 102 1462 l 1,10,-1
 264 1462 l 1,11,-1
 291 1378 l 1,12,-1
 305 1378 l 1,13,14
 378 1479 378 1479 520 1479 c 0,15,16
 778 1479 778 1479 778 1229 c 2,17,-1
 778 764 l 1,18,-1
 580 764 l 1,0,-1
EndSplineSet
EndChar

StartChar: franc
Encoding: 8355 8355 290
Width: 1169
GlyphClass: 2
Flags: W
LayerCount: 2
Fore
SplineSet
489 440 m 1,0,-1
 805 440 l 1,1,-1
 805 262 l 1,2,-1
 489 262 l 1,3,-1
 489 0 l 1,4,-1
 184 0 l 1,5,-1
 184 262 l 1,6,-1
 35 262 l 1,7,-1
 35 440 l 1,8,-1
 184 440 l 1,9,-1
 184 1462 l 1,10,-1
 1063 1462 l 1,11,-1
 1063 1208 l 1,12,-1
 489 1208 l 1,13,-1
 489 872 l 1,14,-1
 1026 872 l 1,15,-1
 1026 618 l 1,16,-1
 489 618 l 1,17,-1
 489 440 l 1,0,-1
EndSplineSet
EndChar

StartChar: afii08941
Encoding: 8356 8356 291
Width: 1169
GlyphClass: 2
Flags: W
LayerCount: 2
Fore
SplineSet
705 1483 m 0,0,1
 895 1483 895 1483 1090 1401 c 1,2,-1
 997 1171 l 1,3,4
 919 1200 919 1200 853.5 1217.5 c 128,-1,5
 788 1235 788 1235 719 1235 c 0,6,7
 639 1235 639 1235 601 1192 c 128,-1,8
 563 1149 563 1149 563 1063 c 2,9,-1
 563 950 l 1,10,-1
 922 950 l 1,11,-1
 922 774 l 1,12,-1
 563 774 l 1,13,-1
 563 659 l 1,14,-1
 922 659 l 1,15,-1
 922 481 l 1,16,-1
 561 481 l 1,17,18
 556 407 556 407 521 353 c 128,-1,19
 486 299 486 299 412 260 c 1,20,-1
 1130 260 l 1,21,-1
 1130 0 l 1,22,-1
 82 0 l 1,23,-1
 82 248 l 1,24,25
 182 290 182 290 219.5 343 c 128,-1,26
 257 396 257 396 262 481 c 1,27,-1
 84 481 l 1,28,-1
 84 659 l 1,29,-1
 262 659 l 1,30,-1
 262 774 l 1,31,-1
 84 774 l 1,32,-1
 84 950 l 1,33,-1
 262 950 l 1,34,-1
 262 1065 l 2,35,36
 262 1271 262 1271 376 1377 c 128,-1,37
 490 1483 490 1483 705 1483 c 0,0,1
EndSplineSet
EndChar

StartChar: peseta
Encoding: 8359 8359 292
Width: 1827
GlyphClass: 2
Flags: W
LayerCount: 2
Fore
SplineSet
473 774 m 1,0,-1
 539 774 l 2,1,2
 678 774 678 774 748.5 826 c 128,-1,3
 819 878 819 878 819 995 c 0,4,5
 819 1104 819 1104 756 1156 c 128,-1,6
 693 1208 693 1208 557 1208 c 2,7,-1
 473 1208 l 1,8,-1
 473 774 l 1,0,-1
1112 1006 m 0,9,10
 1112 770 1112 770 959.5 645 c 128,-1,11
 807 520 807 520 526 520 c 2,12,-1
 473 520 l 1,13,-1
 473 0 l 1,14,-1
 184 0 l 1,15,-1
 184 1462 l 1,16,-1
 557 1462 l 2,17,18
 829 1462 829 1462 970.5 1347.5 c 128,-1,19
 1112 1233 1112 1233 1112 1006 c 0,9,10
1608 203 m 0,20,21
 1686 203 1686 203 1769 238 c 1,22,-1
 1769 31 l 1,23,24
 1672 -20 1672 -20 1534 -20 c 0,25,26
 1371 -20 1371 -20 1296 63 c 128,-1,27
 1221 146 1221 146 1221 319 c 2,28,-1
 1221 637 l 1,29,-1
 1075 637 l 1,30,-1
 1075 745 l 1,31,-1
 1243 848 l 1,32,-1
 1331 1083 l 1,33,-1
 1485 1083 l 1,34,-1
 1485 846 l 1,35,-1
 1757 846 l 1,36,-1
 1757 637 l 1,37,-1
 1485 637 l 1,38,-1
 1485 330 l 2,39,40
 1485 270 1485 270 1521 236.5 c 128,-1,41
 1557 203 1557 203 1608 203 c 0,20,21
EndSplineSet
EndChar

StartChar: Euro
Encoding: 8364 8364 294
Width: 1169
GlyphClass: 2
Flags: W
LayerCount: 2
Fore
SplineSet
803 1225 m 0,0,1
 681 1225 681 1225 602 1154.5 c 128,-1,2
 523 1084 523 1084 500 950 c 1,3,-1
 903 950 l 1,4,-1
 903 774 l 1,5,-1
 485 774 l 1,6,-1
 483 739 l 1,7,-1
 483 692 l 1,8,-1
 485 659 l 1,9,-1
 840 659 l 1,10,-1
 840 481 l 1,11,-1
 502 481 l 1,12,13
 553 238 553 238 823 238 c 0,14,15
 966 238 966 238 1098 295 c 1,16,-1
 1098 39 l 1,17,18
 982 -20 982 -20 805 -20 c 0,19,20
 560 -20 560 -20 402 113 c 128,-1,21
 244 246 244 246 203 481 c 1,22,-1
 66 481 l 1,23,-1
 66 659 l 1,24,-1
 184 659 l 1,25,26
 180 682 180 682 180 721 c 2,27,-1
 182 774 l 1,28,-1
 66 774 l 1,29,-1
 66 950 l 1,30,-1
 199 950 l 1,31,32
 236 1192 236 1192 398 1332.5 c 128,-1,33
 560 1473 560 1473 803 1473 c 0,34,35
 991 1473 991 1473 1155 1391 c 1,36,-1
 1057 1159 l 1,37,38
 988 1190 988 1190 928 1207.5 c 128,-1,39
 868 1225 868 1225 803 1225 c 0,0,1
EndSplineSet
EndChar

StartChar: afii61248
Encoding: 8453 8453 295
Width: 1628
GlyphClass: 2
Flags: W
LayerCount: 2
Fore
SplineSet
1311 1462 m 1,0,-1
 500 0 l 1,1,-1
 260 0 l 1,2,-1
 1071 1462 l 1,3,-1
 1311 1462 l 1,0,-1
1565 344 m 0,4,5
 1565 172 1565 172 1474.5 76 c 128,-1,6
 1384 -20 1384 -20 1227 -20 c 0,7,8
 1078 -20 1078 -20 986.5 78 c 128,-1,9
 895 176 895 176 895 344 c 0,10,11
 895 514 895 514 984 610.5 c 128,-1,12
 1073 707 1073 707 1233 707 c 0,13,14
 1383 707 1383 707 1474 607.5 c 128,-1,15
 1565 508 1565 508 1565 344 c 0,4,5
1098 344 m 256,16,17
 1098 244 1098 244 1129 193.5 c 128,-1,18
 1160 143 1160 143 1231 143 c 0,19,20
 1299 143 1299 143 1329.5 193.5 c 128,-1,21
 1360 244 1360 244 1360 344 c 256,22,23
 1360 444 1360 444 1329.5 493.5 c 128,-1,24
 1299 543 1299 543 1231 543 c 0,25,26
 1160 543 1160 543 1129 493.5 c 128,-1,27
 1098 444 1098 444 1098 344 c 256,16,17
420 756 m 0,28,29
 253 756 253 756 158 848 c 128,-1,30
 63 940 63 940 63 1110 c 0,31,32
 63 1288 63 1288 154 1380.5 c 128,-1,33
 245 1473 245 1473 418 1473 c 0,34,35
 535 1473 535 1473 635 1423 c 1,36,-1
 580 1268 l 1,37,38
 478 1309 478 1309 414 1309 c 0,39,40
 341 1309 341 1309 304.5 1258 c 128,-1,41
 268 1207 268 1207 268 1112 c 0,42,43
 268 922 268 922 408 922 c 0,44,45
 524 922 524 922 614 965 c 1,46,-1
 614 801 l 1,47,48
 535 756 535 756 420 756 c 0,28,29
EndSplineSet
EndChar

StartChar: afii61289
Encoding: 8467 8467 296
Width: 1065
GlyphClass: 2
Flags: W
LayerCount: 2
Fore
SplineSet
641 190 m 0,0,1
 701 190 701 190 739.5 239.5 c 128,-1,2
 778 289 778 289 784 391 c 1,3,-1
 991 391 l 1,4,5
 980 171 980 171 888 76.5 c 128,-1,6
 796 -18 796 -18 610 -18 c 0,7,8
 427 -18 427 -18 325 85.5 c 128,-1,9
 223 189 223 189 223 385 c 2,10,-1
 223 512 l 1,11,-1
 41 463 l 1,12,-1
 41 659 l 1,13,14
 139 685 139 685 223 713 c 1,15,-1
 223 1124 l 2,16,17
 223 1308 223 1308 317 1394.5 c 128,-1,18
 411 1481 411 1481 608 1481 c 0,19,20
 771 1481 771 1481 866 1394 c 128,-1,21
 961 1307 961 1307 961 1157 c 0,22,23
 961 977 961 977 859.5 848.5 c 128,-1,24
 758 720 758 720 516 608 c 1,25,-1
 516 375 l 2,26,27
 516 190 516 190 641 190 c 0,0,1
698 1151 m 0,28,29
 698 1290 698 1290 608 1290 c 0,30,31
 555 1290 555 1290 535.5 1252 c 128,-1,32
 516 1214 516 1214 516 1151 c 2,33,-1
 516 823 l 1,34,35
 604 862 604 862 651 946 c 128,-1,36
 698 1030 698 1030 698 1151 c 0,28,29
EndSplineSet
EndChar

StartChar: afii61352
Encoding: 8470 8470 297
Width: 2105
GlyphClass: 2
Flags: W
LayerCount: 2
Fore
SplineSet
1231 0 m 1,0,-1
 903 0 l 1,1,-1
 393 1047 l 1,2,-1
 379 1047 l 1,3,4
 403 790 403 790 403 629 c 2,5,-1
 403 0 l 1,6,-1
 135 0 l 1,7,-1
 135 1462 l 1,8,-1
 465 1462 l 1,9,-1
 971 422 l 1,10,-1
 989 422 l 1,11,12
 965 655 965 655 965 825 c 2,13,-1
 965 1462 l 1,14,-1
 1231 1462 l 1,15,-1
 1231 0 l 1,0,-1
1370 0 m 1,16,-1
 1370 188 l 1,17,-1
 2009 188 l 1,18,-1
 2009 0 l 1,19,-1
 1370 0 l 1,16,-1
2030 639 m 0,20,21
 2030 468 2030 468 1938 371 c 128,-1,22
 1846 274 1846 274 1688 274 c 0,23,24
 1534 274 1534 274 1442 373 c 128,-1,25
 1350 472 1350 472 1350 639 c 0,26,27
 1350 807 1350 807 1440 904 c 128,-1,28
 1530 1001 1530 1001 1692 1001 c 0,29,30
 1846 1001 1846 1001 1938 901.5 c 128,-1,31
 2030 802 2030 802 2030 639 c 0,20,21
1552 639 m 256,32,33
 1552 539 1552 539 1584.5 488.5 c 128,-1,34
 1617 438 1617 438 1690 438 c 0,35,36
 1761 438 1761 438 1793 488.5 c 128,-1,37
 1825 539 1825 539 1825 639 c 256,38,39
 1825 739 1825 739 1793 788.5 c 128,-1,40
 1761 838 1761 838 1690 838 c 0,41,42
 1617 838 1617 838 1584.5 788.5 c 128,-1,43
 1552 739 1552 739 1552 639 c 256,32,33
EndSplineSet
EndChar

StartChar: uni2120
Encoding: 8480 8480 298
Width: 1505
GlyphClass: 2
Flags: W
LayerCount: 2
Fore
SplineSet
537 946 m 0,0,1
 537 846 537 846 467.5 789.5 c 128,-1,2
 398 733 398 733 281 733 c 0,3,4
 170 733 170 733 82 776 c 1,5,-1
 82 920 l 1,6,7
 197 866 197 866 285 866 c 0,8,9
 330 866 330 866 353.5 885.5 c 128,-1,10
 377 905 377 905 377 940 c 0,11,12
 377 967 377 967 359.5 986 c 128,-1,13
 342 1005 342 1005 305 1023 c 0,14,15
 197 1076 197 1076 161 1106 c 128,-1,16
 125 1136 125 1136 105.5 1175 c 128,-1,17
 86 1214 86 1214 86 1266 c 0,18,19
 86 1359 86 1359 150 1416 c 128,-1,20
 214 1473 214 1473 328 1473 c 0,21,22
 423 1473 423 1473 535 1421 c 1,23,-1
 483 1296 l 1,24,25
 427 1323 427 1323 397 1331 c 128,-1,26
 367 1339 367 1339 328 1339 c 0,27,28
 291 1339 291 1339 268.5 1322.5 c 128,-1,29
 246 1306 246 1306 246 1272 c 0,30,31
 246 1241 246 1241 267 1219 c 128,-1,32
 288 1197 288 1197 362 1161 c 0,33,34
 467 1110 467 1110 502 1063.5 c 128,-1,35
 537 1017 537 1017 537 946 c 0,0,1
928 741 m 1,36,-1
 762 1270 l 1,37,-1
 756 1270 l 1,38,-1
 760 1159 l 1,39,-1
 760 741 l 1,40,-1
 596 741 l 1,41,-1
 596 1462 l 1,42,-1
 844 1462 l 1,43,-1
 1004 952 l 1,44,-1
 1174 1462 l 1,45,-1
 1413 1462 l 1,46,-1
 1413 741 l 1,47,-1
 1245 741 l 1,48,-1
 1245 1149 l 1,49,-1
 1249 1270 l 1,50,-1
 1243 1270 l 1,51,-1
 1069 741 l 1,52,-1
 928 741 l 1,36,-1
EndSplineSet
EndChar

StartChar: trademark
Encoding: 8482 8482 299
Width: 1534
GlyphClass: 2
Flags: W
LayerCount: 2
Fore
SplineSet
381 741 m 1,0,-1
 213 741 l 1,1,-1
 213 1313 l 1,2,-1
 16 1313 l 1,3,-1
 16 1462 l 1,4,-1
 580 1462 l 1,5,-1
 580 1313 l 1,6,-1
 381 1313 l 1,7,-1
 381 741 l 1,0,-1
956 741 m 1,8,-1
 791 1270 l 1,9,-1
 784 1270 l 1,10,-1
 788 1159 l 1,11,-1
 788 741 l 1,12,-1
 625 741 l 1,13,-1
 625 1462 l 1,14,-1
 872 1462 l 1,15,-1
 1032 952 l 1,16,-1
 1202 1462 l 1,17,-1
 1442 1462 l 1,18,-1
 1442 741 l 1,19,-1
 1274 741 l 1,20,-1
 1274 1149 l 1,21,-1
 1278 1270 l 1,22,-1
 1272 1270 l 1,23,-1
 1098 741 l 1,24,-1
 956 741 l 1,8,-1
EndSplineSet
EndChar

StartChar: Omega
Encoding: 8486 8486 300
Width: 1610
GlyphClass: 2
Flags: W
LayerCount: 2
Fore
SplineSet
805 1227 m 0,0,1
 624 1227 624 1227 526 1117 c 128,-1,2
 428 1007 428 1007 428 807 c 0,3,4
 428 604 428 604 494 477.5 c 128,-1,5
 560 351 560 351 694 279 c 1,6,-1
 694 0 l 1,7,-1
 55 0 l 1,8,-1
 55 260 l 1,9,-1
 426 260 l 1,10,11
 274 353 274 353 191.5 513.5 c 128,-1,12
 109 674 109 674 109 872 c 0,13,14
 109 1056 109 1056 194.5 1195.5 c 128,-1,15
 280 1335 280 1335 438 1410 c 128,-1,16
 596 1485 596 1485 805 1485 c 0,17,18
 1124 1485 1124 1485 1312.5 1318 c 128,-1,19
 1501 1151 1501 1151 1501 870 c 0,20,21
 1501 672 1501 672 1418 514 c 128,-1,22
 1335 356 1335 356 1180 260 c 1,23,-1
 1554 260 l 1,24,-1
 1554 0 l 1,25,-1
 911 0 l 1,26,-1
 911 279 l 1,27,28
 1050 351 1050 351 1116 480 c 128,-1,29
 1182 609 1182 609 1182 809 c 0,30,31
 1182 1008 1182 1008 1083.5 1117.5 c 128,-1,32
 985 1227 985 1227 805 1227 c 0,0,1
EndSplineSet
EndChar

StartChar: estimated
Encoding: 8494 8494 301
Width: 1268
GlyphClass: 2
Flags: W
LayerCount: 2
Fore
SplineSet
633 -35 m 0,0,1
 476 -35 476 -35 355.5 38.5 c 128,-1,2
 235 112 235 112 168.5 242.5 c 128,-1,3
 102 373 102 373 102 530 c 0,4,5
 102 701 102 701 171 828.5 c 128,-1,6
 240 956 240 956 362 1026 c 128,-1,7
 484 1096 484 1096 633 1096 c 0,8,9
 785 1096 785 1096 906.5 1025 c 128,-1,10
 1028 954 1028 954 1095.5 824.5 c 128,-1,11
 1163 695 1163 695 1163 530 c 1,12,-1
 336 530 l 1,13,-1
 336 174 l 1,14,15
 385 121 385 121 468 86 c 128,-1,16
 551 51 551 51 633 51 c 0,17,18
 764 51 764 51 855.5 103.5 c 128,-1,19
 947 156 947 156 1028 285 c 1,20,-1
 1100 244 l 1,21,22
 1002 89 1002 89 893.5 27 c 128,-1,23
 785 -35 785 -35 633 -35 c 0,0,1
932 616 m 1,24,-1
 932 893 l 1,25,26
 882 946 882 946 800.5 979 c 128,-1,27
 719 1012 719 1012 631 1012 c 0,28,29
 458 1012 458 1012 336 895 c 1,30,-1
 336 616 l 1,31,-1
 932 616 l 1,24,-1
EndSplineSet
EndChar

StartChar: partialdiff
Encoding: 8706 8706 306
Width: 1190
GlyphClass: 2
Flags: W
LayerCount: 2
Fore
SplineSet
1122 920 m 0,0,1
 1122 660 1122 660 1035.5 436 c 128,-1,2
 949 212 949 212 803 96 c 128,-1,3
 657 -20 657 -20 469 -20 c 0,4,5
 270 -20 270 -20 164.5 86 c 128,-1,6
 59 192 59 192 59 399 c 0,7,8
 59 573 59 573 133.5 728 c 128,-1,9
 208 883 208 883 332.5 960.5 c 128,-1,10
 457 1038 457 1038 616 1038 c 0,11,12
 721 1038 721 1038 805 997 c 1,13,14
 782 1233 782 1233 604 1233 c 0,15,16
 550 1233 550 1233 473.5 1206 c 128,-1,17
 397 1179 397 1179 311 1122 c 1,18,-1
 311 1393 l 1,19,20
 481 1483 481 1483 647 1483 c 0,21,22
 881 1483 881 1483 1001.5 1338 c 128,-1,23
 1122 1193 1122 1193 1122 920 c 0,0,1
481 223 m 0,24,25
 584 223 584 223 668 361 c 128,-1,26
 752 499 752 499 784 707 c 1,27,28
 770 759 770 759 731 785 c 128,-1,29
 692 811 692 811 639 811 c 0,30,31
 569 811 569 811 511.5 757 c 128,-1,32
 454 703 454 703 417.5 595 c 128,-1,33
 381 487 381 487 381 375 c 0,34,35
 381 223 381 223 481 223 c 0,24,25
EndSplineSet
EndChar

StartChar: Delta
Encoding: 8710 8710 307
Width: 1348
GlyphClass: 2
Flags: W
LayerCount: 2
Fore
SplineSet
57 178 m 1,0,-1
 500 1468 l 1,1,-1
 850 1468 l 1,2,-1
 1290 176 l 1,3,-1
 1290 0 l 1,4,-1
 57 0 l 1,5,-1
 57 178 l 1,0,-1
674 1214 m 1,6,7
 672 1199 672 1199 661.5 1155.5 c 128,-1,8
 651 1112 651 1112 631 1043 c 128,-1,9
 611 974 611 974 373 258 c 1,10,-1
 975 258 l 1,11,-1
 723 1026 l 1,12,-1
 712 1065 l 2,13,14
 676 1194 676 1194 674 1214 c 1,6,7
EndSplineSet
EndChar

StartChar: product
Encoding: 8719 8719 308
Width: 1518
GlyphClass: 2
Flags: W
LayerCount: 2
Fore
SplineSet
1034 -457 m 1,0,-1
 1034 1204 l 1,1,-1
 483 1204 l 1,2,-1
 483 -457 l 1,3,-1
 166 -457 l 1,4,-1
 166 1462 l 1,5,-1
 1352 1462 l 1,6,-1
 1352 -457 l 1,7,-1
 1034 -457 l 1,0,-1
EndSplineSet
EndChar

StartChar: summation
Encoding: 8721 8721 309
Width: 1292
GlyphClass: 2
Flags: W
LayerCount: 2
Fore
SplineSet
41 -457 m 1,0,-1
 41 -287 l 1,1,-1
 616 547 l 1,2,-1
 57 1296 l 1,3,-1
 57 1462 l 1,4,-1
 1223 1462 l 1,5,-1
 1223 1210 l 1,6,-1
 467 1210 l 1,7,-1
 961 553 l 1,8,-1
 442 -203 l 1,9,-1
 1282 -203 l 1,10,-1
 1282 -457 l 1,11,-1
 41 -457 l 1,0,-1
EndSplineSet
EndChar

StartChar: minus
Encoding: 8722 8722 310
Width: 1169
GlyphClass: 2
Flags: W
LayerCount: 2
Fore
SplineSet
88 612 m 1,0,-1
 88 831 l 1,1,-1
 1081 831 l 1,2,-1
 1081 612 l 1,3,-1
 88 612 l 1,0,-1
EndSplineSet
EndChar

StartChar: radical
Encoding: 8730 8730 311
Width: 1124
GlyphClass: 2
Flags: W
LayerCount: 2
Fore
SplineSet
664 -14 m 1,0,-1
 481 -14 l 1,1,-1
 213 723 l 1,2,-1
 37 723 l 1,3,-1
 37 936 l 1,4,-1
 362 936 l 1,5,-1
 567 369 l 1,6,-1
 1057 1757 l 1,7,-1
 1276 1757 l 1,8,-1
 664 -14 l 1,0,-1
EndSplineSet
EndChar

StartChar: infinity
Encoding: 8734 8734 312
Width: 1448
GlyphClass: 2
Flags: W
LayerCount: 2
Fore
SplineSet
1335 717 m 0,0,1
 1335 575 1335 575 1244 477 c 128,-1,2
 1153 379 1153 379 1018 379 c 0,3,4
 842 379 842 379 719 555 c 1,5,6
 660 478 660 478 586.5 431.5 c 128,-1,7
 513 385 513 385 434 385 c 0,8,9
 293 385 293 385 203 477 c 128,-1,10
 113 569 113 569 113 723 c 0,11,12
 113 867 113 867 203.5 963 c 128,-1,13
 294 1059 294 1059 434 1059 c 0,14,15
 610 1059 610 1059 725 885 c 1,16,17
 850 1055 850 1055 1018 1055 c 0,18,19
 1158 1055 1158 1055 1246.5 962.5 c 128,-1,20
 1335 870 1335 870 1335 717 c 0,0,1
444 588 m 0,21,22
 532 588 532 588 610 723 c 1,23,24
 572 791 572 791 532 824.5 c 128,-1,25
 492 858 492 858 442 858 c 0,26,27
 386 858 386 858 351.5 819.5 c 128,-1,28
 317 781 317 781 317 721 c 256,29,30
 317 661 317 661 351.5 624.5 c 128,-1,31
 386 588 386 588 444 588 c 0,21,22
1004 852 m 0,32,33
 917 852 917 852 836 719 c 1,34,35
 916 582 916 582 1006 582 c 0,36,37
 1062 582 1062 582 1096 622 c 128,-1,38
 1130 662 1130 662 1130 719 c 0,39,40
 1130 777 1130 777 1095 814.5 c 128,-1,41
 1060 852 1060 852 1004 852 c 0,32,33
EndSplineSet
EndChar

StartChar: integral
Encoding: 8747 8747 313
Width: 844
GlyphClass: 2
Flags: W
LayerCount: 2
Fore
SplineSet
686 1300 m 0,0,1
 635 1300 635 1300 605 1264 c 128,-1,2
 575 1228 575 1228 575 1163 c 2,3,-1
 575 -113 l 2,4,5
 575 -300 575 -300 477 -396 c 128,-1,6
 379 -492 379 -492 195 -492 c 0,7,8
 86 -492 86 -492 0 -451 c 1,9,-1
 0 -197 l 1,10,11
 91 -236 91 -236 158 -236 c 0,12,13
 268 -236 268 -236 268 -94 c 2,14,-1
 268 1178 l 2,15,16
 268 1363 268 1363 365 1459.5 c 128,-1,17
 462 1556 462 1556 649 1556 c 0,18,19
 758 1556 758 1556 844 1516 c 1,20,-1
 844 1262 l 1,21,22
 755 1300 755 1300 686 1300 c 0,0,1
EndSplineSet
EndChar

StartChar: notequal
Encoding: 8800 8800 315
Width: 1169
GlyphClass: 2
Flags: W
LayerCount: 2
Fore
SplineSet
561 418 m 1,0,-1
 434 143 l 1,1,-1
 233 227 l 1,2,-1
 322 418 l 1,3,-1
 88 418 l 1,4,-1
 88 637 l 1,5,-1
 424 637 l 1,6,-1
 504 807 l 1,7,-1
 88 807 l 1,8,-1
 88 1024 l 1,9,-1
 604 1024 l 1,10,-1
 735 1305 l 1,11,-1
 936 1219 l 1,12,-1
 844 1024 l 1,13,-1
 1081 1024 l 1,14,-1
 1081 807 l 1,15,-1
 743 807 l 1,16,-1
 664 637 l 1,17,-1
 1081 637 l 1,18,-1
 1081 418 l 1,19,-1
 561 418 l 1,0,-1
EndSplineSet
EndChar

StartChar: lessequal
Encoding: 8804 8804 316
Width: 1169
GlyphClass: 2
Flags: W
LayerCount: 2
Fore
SplineSet
86 0 m 1,0,-1
 86 219 l 1,1,-1
 1079 219 l 1,2,-1
 1079 0 l 1,3,-1
 86 0 l 1,0,-1
1081 264 m 1,4,-1
 88 702 l 1,5,-1
 88 846 l 1,6,-1
 1081 1341 l 1,7,-1
 1081 1102 l 1,8,-1
 397 784 l 1,9,-1
 1081 504 l 1,10,-1
 1081 264 l 1,4,-1
EndSplineSet
EndChar

StartChar: greaterequal
Encoding: 8805 8805 317
Width: 1169
GlyphClass: 2
Flags: W
LayerCount: 2
Fore
SplineSet
88 0 m 1,0,-1
 88 219 l 1,1,-1
 1081 219 l 1,2,-1
 1081 0 l 1,3,-1
 88 0 l 1,0,-1
88 504 m 1,4,-1
 772 784 l 1,5,-1
 88 1102 l 1,6,-1
 88 1341 l 1,7,-1
 1081 846 l 1,8,-1
 1081 702 l 1,9,-1
 88 264 l 1,10,-1
 88 504 l 1,4,-1
EndSplineSet
EndChar

StartChar: lozenge
Encoding: 9674 9674 319
Width: 1194
GlyphClass: 2
Flags: W
LayerCount: 2
Fore
SplineSet
1104 735 m 1,0,-1
 653 0 l 1,1,-1
 539 0 l 1,2,-1
 88 735 l 1,3,-1
 539 1473 l 1,4,-1
 653 1473 l 1,5,-1
 1104 735 l 1,0,-1
840 735 m 1,6,-1
 596 1145 l 1,7,-1
 352 735 l 1,8,-1
 596 326 l 1,9,-1
 840 735 l 1,6,-1
EndSplineSet
EndChar

StartChar: uniFB8F
Encoding: 64399 64399 339
Width: 1792
GlyphClass: 2
Flags: W
AnchorPoint: "Anchor-3" 782 -172 basechar 0
AnchorPoint: "Anchor-1" 1174 1486 basechar 0
LayerCount: 2
Fore
SplineSet
1243 366 m 1,0,1
 1126 615 1126 615 879 899 c 1,2,3
 886 956 886 956 900 1068 c 128,-1,4
 914 1180 914 1180 920 1234 c 0,5,6
 927 1291 927 1291 991 1307 c 2,7,-1
 1723 1465 l 1,8,-1
 1606 1120 l 1,9,-1
 1138 1021 l 1,10,11
 1284 833 1284 833 1474 463 c 0,12,13
 1524 366 1524 366 1645 366 c 2,14,-1
 1778 366 l 2,15,16
 1817 366 1817 366 1817 319 c 2,17,-1
 1817 47 l 2,18,19
 1817 0 1817 0 1778 0 c 2,20,-1
 1598 0 l 2,21,22
 1495 0 1495 0 1437 42.5 c 128,-1,23
 1379 85 1379 85 1328 184 c 1,24,25
 1282 0 1282 0 1155 0 c 0,26,27
 1046 0 1046 0 827.5 0 c 128,-1,28
 609 0 609 0 500 0 c 0,29,30
 238 0 238 0 154.5 199 c 128,-1,31
 71 398 71 398 172 689 c 0,32,33
 178 708 178 708 195 705.5 c 128,-1,34
 212 703 212 703 208 680 c 0,35,36
 177 503 177 503 263 434.5 c 128,-1,37
 349 366 349 366 534 366 c 0,38,39
 652 366 652 366 888.5 366 c 128,-1,40
 1125 366 1125 366 1243 366 c 1,0,1
EndSplineSet
EndChar

StartChar: uniFB9F
Encoding: 64415 64415 347
Width: 1465
GlyphClass: 2
Flags: W
AnchorPoint: "Anchor-3" 709 -844 basechar 0
AnchorPoint: "Anchor-1" 659 830 basechar 0
LayerCount: 2
Fore
SplineSet
248 495 m 0,0,1
 256 511 256 511 270 505 c 0,2,3
 285 499 285 499 280 482 c 0,4,5
 216 248 216 248 217 167 c 0,6,7
 220 -103 220 -103 439 -197 c 0,8,9
 605 -269 605 -269 829.5 -219 c 128,-1,10
 1054 -169 1054 -169 1174 -30 c 1,11,-1
 932 393 l 1,12,-1
 1104 650 l 1,13,14
 1145 589 1145 589 1191 511 c 0,15,16
 1197 502 1197 502 1207 486 c 0,17,18
 1256 407 1256 407 1282.5 386.5 c 128,-1,19
 1309 366 1309 366 1372 366 c 2,20,-1
 1506 366 l 2,21,22
 1544 366 1544 366 1544 319 c 2,23,-1
 1544 47 l 2,24,25
 1544 0 1544 0 1506 0 c 0,26,27
 1381 0 1381 0 1332 0 c 0,28,29
 1326 0 1326 0 1320 1 c 1,30,31
 1306 -209 1306 -209 1186 -369 c 128,-1,32
 1066 -529 1066 -529 853 -587 c 0,33,34
 686 -636 686 -636 507 -602.5 c 128,-1,35
 328 -569 328 -569 213 -458 c 0,36,37
 62 -310 62 -310 72 -61 c 128,-1,38
 82 188 82 188 248 495 c 0,0,1
EndSplineSet
EndChar

StartChar: uniFBE8
Encoding: 64488 64488 352
Width: 592
GlyphClass: 2
Flags: W
AnchorPoint: "Anchor-3" 279 -163 basechar 0
AnchorPoint: "Anchor-1" 280 1058 basechar 0
LayerCount: 2
Fore
SplineSet
515 366 m 0,0,1
 480 111 480 111 438 56 c 0,2,3
 396 0 396 0 234 0 c 2,4,-1
 -16 0 l 2,5,6
 -54 0 -54 0 -54 47 c 2,7,-1
 -54 319 l 2,8,9
 -54 366 -54 366 -16 366 c 2,10,-1
 334 366 l 1,11,12
 303 465 303 465 205 546 c 1,13,-1
 272 898 l 1,14,15
 556 663 556 663 515 366 c 0,0,1
EndSplineSet
EndChar

StartChar: uniFBE9
Encoding: 64489 64489 353
Width: 728
GlyphClass: 2
Flags: W
AnchorPoint: "Anchor-3" 337 -127 basechar 0
AnchorPoint: "Anchor-1" 387 977 basechar 0
LayerCount: 2
Fore
SplineSet
281 366 m 1,0,-1
 250 508 l 1,1,-1
 423 737 l 1,2,-1
 473 501 l 2,3,4
 502 366 502 366 664 366 c 2,5,-1
 725 366 l 6,6,7
 763 366 763 366 763 319 c 6,8,-1
 763 47 l 6,9,10
 763 0 763 0 725 0 c 6,11,-1
 626 0 l 2,12,13
 535 0 535 0 494 5 c 0,14,15
 453 9 453 9 407 40 c 0,16,17
 362 70 362 70 337 134 c 1,18,19
 287 0 287 0 180 0 c 2,20,-1
 -6 0 l 2,21,22
 -42 0 -42 0 -42 47 c 2,23,-1
 -42 319 l 2,24,25
 -42 366 -42 366 -6 366 c 2,26,-1
 281 366 l 1,0,-1
EndSplineSet
EndChar

StartChar: uniFD3E
Encoding: 64830 64830 358
Width: 1481
GlyphClass: 2
Flags: W
LayerCount: 2
Fore
SplineSet
724 676 m 256,0,1
 724 652 724 652 739.5 636 c 128,-1,2
 755 620 755 620 779 620 c 128,-1,3
 803 620 803 620 819 636 c 128,-1,4
 835 652 835 652 835 676 c 128,-1,5
 835 700 835 700 819.5 716 c 128,-1,6
 804 732 804 732 779 732 c 0,7,8
 755 732 755 732 739.5 716 c 128,-1,9
 724 700 724 700 724 676 c 256,0,1
739 205 m 0,10,11
 790 -15 790 -15 963 -212 c 1,12,13
 857 45 857 45 835 208 c 0,14,15
 831 241 831 241 856 266 c 2,16,-1
 898 308 l 2,17,18
 922 330 922 330 951 330 c 2,19,-1
 1123 330 l 1,20,-1
 1123 1025 l 1,21,-1
 951 1025 l 2,22,23
 919 1026 919 1026 898 1047 c 2,24,-1
 853 1092 l 2,25,26
 828 1117 828 1117 832 1150 c 0,27,28
 846 1252 846 1252 886 1382.5 c 128,-1,29
 926 1513 926 1513 977 1631 c 1,30,31
 783 1421 783 1421 728 1140 c 0,32,33
 723 1116 723 1116 708 1101 c 2,34,-1
 654 1047 l 2,35,36
 630 1025 630 1025 601 1025 c 2,37,-1
 428 1025 l 1,38,-1
 428 853 l 2,39,40
 428 822 428 822 406 800 c 2,41,-1
 284 678 l 1,42,-1
 406 555 l 2,43,44
 428 533 428 533 428 503 c 2,45,-1
 428 330 l 1,46,-1
 601 330 l 2,47,48
 633 329 633 329 654 308 c 2,49,-1
 719 243 l 2,50,51
 732 230 732 230 739 205 c 0,10,11
981 677 m 256,52,53
 981 592 981 592 921.5 532.5 c 128,-1,54
 862 473 862 473 777 473 c 0,55,56
 693 473 693 473 633 533 c 128,-1,57
 573 593 573 593 573 677 c 0,58,59
 573 759 573 759 633.5 820 c 128,-1,60
 694 881 694 881 777 881 c 0,61,62
 862 881 862 881 921.5 821.5 c 128,-1,63
 981 762 981 762 981 677 c 256,52,53
1281 1808 m 1,64,65
 1062 1608 1062 1608 985 1179 c 1,66,-1
 989 1175 l 1,67,-1
 1198 1175 l 2,68,69
 1229 1175 1229 1175 1251 1153 c 128,-1,70
 1273 1131 1273 1131 1273 1100 c 2,71,-1
 1273 255 l 2,72,73
 1273 228 1273 228 1251 204.5 c 128,-1,74
 1229 181 1229 181 1198 181 c 2,75,-1
 993 181 l 1,76,-1
 989 176 l 1,77,78
 1068 -228 1068 -228 1273 -393 c 0,79,80
 1348 -452 1348 -452 1213 -525 c 1,81,82
 726 -381 726 -381 598 153 c 1,83,-1
 570 181 l 1,84,-1
 353 181 l 2,85,86
 325 181 325 181 302 203.5 c 128,-1,87
 279 226 279 226 279 255 c 2,88,-1
 279 472 l 1,89,-1
 125 625 l 2,90,91
 99 653 99 653 99 678 c 0,92,93
 99 704 99 704 125 730 c 2,94,-1
 279 883 l 1,95,-1
 279 1100 l 2,96,97
 278 1129 278 1129 301 1152 c 128,-1,98
 324 1175 324 1175 353 1175 c 2,99,-1
 570 1175 l 1,100,-1
 586 1191 l 1,101,102
 708 1786 708 1786 1205 1931 c 0,103,104
 1255 1946 1255 1946 1273.5 1905.5 c 128,-1,105
 1292 1865 1292 1865 1281 1808 c 1,64,65
EndSplineSet
EndChar

StartChar: uniFD3F
Encoding: 64831 64831 359
Width: 1481
GlyphClass: 2
Flags: W
LayerCount: 2
Fore
SplineSet
193 1808 m 1,0,1
 182 1865 182 1865 200 1905.5 c 128,-1,2
 218 1946 218 1946 269 1931 c 0,3,4
 767 1785 767 1785 889 1191 c 1,5,-1
 905 1175 l 1,6,-1
 1122 1175 l 2,7,8
 1151 1175 1151 1175 1173.5 1152 c 128,-1,9
 1196 1129 1196 1129 1196 1100 c 2,10,-1
 1196 883 l 1,11,-1
 1349 730 l 2,12,13
 1375 705 1375 705 1375 678 c 128,-1,14
 1375 651 1375 651 1349 625 c 2,15,-1
 1196 472 l 1,16,-1
 1196 255 l 2,17,18
 1196 226 1196 226 1173 203.5 c 128,-1,19
 1150 181 1150 181 1122 181 c 2,20,-1
 905 181 l 1,21,-1
 877 153 l 1,22,23
 748 -381 748 -381 262 -525 c 1,24,25
 127 -452 127 -452 201 -393 c 0,26,27
 405 -227 405 -227 484 177 c 1,28,-1
 481 181 l 1,29,-1
 277 181 l 2,30,31
 246 181 246 181 224 204.5 c 128,-1,32
 202 228 202 228 202 255 c 2,33,-1
 202 1100 l 2,34,35
 202 1131 202 1131 224 1153 c 128,-1,36
 246 1175 246 1175 277 1175 c 2,37,-1
 486 1175 l 1,38,-1
 489 1178 l 1,39,40
 412 1610 412 1610 193 1808 c 1,0,1
491 677 m 0,41,42
 491 761 491 761 550.5 821 c 128,-1,43
 610 881 610 881 695 881 c 0,44,45
 778 881 778 881 838.5 820 c 128,-1,46
 899 759 899 759 899 677 c 0,47,48
 899 593 899 593 839 533 c 128,-1,49
 779 473 779 473 695 473 c 0,50,51
 610 473 610 473 550.5 532.5 c 128,-1,52
 491 592 491 592 491 677 c 0,41,42
735 205 m 0,53,54
 741 228 741 228 756 243 c 2,55,-1
 821 308 l 2,56,57
 842 329 842 329 874 330 c 2,58,-1
 1047 330 l 1,59,-1
 1047 503 l 2,60,61
 1047 535 1047 535 1068 555 c 2,62,-1
 1190 678 l 1,63,-1
 1068 800 l 2,64,65
 1047 820 1047 820 1047 853 c 2,66,-1
 1047 1025 l 1,67,-1
 874 1025 l 2,68,69
 843 1025 843 1025 821 1047 c 2,70,-1
 767 1101 l 2,71,72
 752 1116 752 1116 747 1140 c 0,73,74
 690 1424 690 1424 497 1631 c 1,75,76
 614 1364 614 1364 643 1150 c 0,77,78
 646 1116 646 1116 621 1092 c 2,79,-1
 577 1047 l 2,80,81
 555 1026 555 1026 524 1025 c 2,82,-1
 351 1025 l 1,83,-1
 351 330 l 1,84,-1
 524 330 l 2,85,86
 553 330 553 330 577 308 c 2,87,-1
 618 266 l 2,88,89
 643 242 643 242 639 208 c 0,90,91
 616 39 616 39 511 -212 c 1,92,93
 685 -15 685 -15 735 205 c 0,53,54
752 676 m 256,94,95
 752 700 752 700 736.5 716 c 128,-1,96
 721 732 721 732 697 732 c 0,97,98
 672 732 672 732 656.5 716 c 128,-1,99
 641 700 641 700 641 676 c 128,-1,100
 641 652 641 652 657 636 c 128,-1,101
 673 620 673 620 697 620 c 128,-1,102
 721 620 721 620 736.5 636 c 128,-1,103
 752 652 752 652 752 676 c 256,94,95
EndSplineSet
EndChar

StartChar: uniFDF2
Encoding: 65010 65010 360
Width: 2642
GlyphClass: 3
Flags: W
AnchorPoint: "Anchor-2" 2229 -234 baselig 0
AnchorPoint: "Anchor-0" 2285 1703 baselig 0
AnchorPoint: "Anchor-0" 1876 1661 baselig 1
AnchorPoint: "Anchor-2" 1602 -222 baselig 1
AnchorPoint: "Anchor-2" 933 -235 baselig 2
AnchorPoint: "Anchor-0" 1040 1857 baselig 2
AnchorPoint: "Anchor-0" 572 1249 baselig 3
AnchorPoint: "Anchor-2" 272 -224 baselig 3
LayerCount: 2
Fore
SplineSet
1990 639 m 1,0,1
 2000 249 2000 249 1851 97 c 0,2,3
 1761 5 1761 5 1624 0.5 c 128,-1,4
 1487 -4 1487 -4 1396 91 c 0,5,6
 1384 104 1384 104 1373 120 c 1,7,8
 1322 0 1322 0 1221 0 c 2,9,-1
 1042 0 l 2,10,11
 935 0 935 0 853 91 c 0,12,13
 806 143 806 143 778 227 c 1,14,15
 746 159 746 159 618.5 114 c 128,-1,16
 491 69 491 69 391 74 c 0,17,18
 255 83 255 83 227 238 c 0,19,20
 184 473 184 473 311.5 655.5 c 128,-1,21
 439 838 439 838 700 855 c 0,22,23
 708 856 708 856 716 855 c 1,24,-1
 714 922 l 1,25,-1
 884 1119 l 2,26,27
 893 1130 893 1130 908.5 1125 c 128,-1,28
 924 1120 924 1120 924 1103 c 2,29,-1
 928 710 l 1,30,31
 938 520 938 520 985.5 445.5 c 128,-1,32
 1033 371 1033 371 1162 366 c 1,33,-1
 1162 366 l 1,34,-1
 1278 366 l 1,35,36
 1259 460 1259 460 1244 623 c 0,37,38
 1218 920 1218 920 1207 1018 c 1,39,-1
 1390 1231 l 2,40,41
 1397 1244 1397 1244 1414.5 1241 c 128,-1,42
 1432 1238 1432 1238 1434 1219 c 2,43,-1
 1451 871 l 1,44,-1
 1457 719 l 1,45,46
 1471 515 1471 515 1533 440.5 c 128,-1,47
 1595 366 1595 366 1759 366 c 2,48,-1
 1778 366 l 1,49,-1
 1801 366 l 1,50,-1
 1725 1104 l 1,51,-1
 1917 1361 l 2,52,53
 1929 1375 1929 1375 1945 1371 c 0,54,55
 1962 1366 1962 1366 1963 1349 c 2,56,-1
 1990 639 l 1,0,1
651 459 m 1,57,58
 728 492 728 492 703 613 c 1,59,60
 653 611 653 611 547 571.5 c 128,-1,61
 441 532 441 532 404 500 c 0,62,63
 362 465 362 465 374.5 430 c 128,-1,64
 387 395 387 395 443 402 c 0,65,66
 567 418 567 418 651 459 c 1,57,58
2389 1474 m 2,67,-1
 2456 79 l 1,68,-1
 2241 -27 l 1,69,-1
 2126 1200 l 1,70,-1
 2343 1486 l 2,71,72
 2354 1501 2354 1501 2371 1496 c 256,73,74
 2388 1491 2388 1491 2389 1474 c 2,67,-1
1266 1717 m 1,75,-1
 1207 2087 l 1,76,-1
 1344 2180 l 1,77,-1
 1344 1750 l 1,78,-1
 1266 1717 l 1,75,-1
1176 1423 m 0,79,80
 1263 1423 1263 1423 1263 1526 c 2,81,-1
 1263 1647 l 1,82,83
 1302 1660 1302 1660 1357 1665 c 1,84,-1
 1359 1577 l 2,85,86
 1361 1484 1361 1484 1444 1484 c 0,87,88
 1516 1484 1516 1484 1516 1580 c 0,89,90
 1516 1620 1516 1620 1513 1661 c 1,91,-1
 1606 1722 l 1,92,93
 1614 1655 1614 1655 1614 1587 c 0,94,95
 1614 1346 1614 1346 1461 1346 c 0,96,97
 1384 1346 1384 1346 1330 1400 c 1,98,99
 1282 1285 1282 1285 1169 1285 c 0,100,101
 1012 1285 1012 1285 1012 1498 c 0,102,103
 1012 1550 1012 1550 1019 1620 c 1,104,-1
 1103 1586 l 1,105,-1
 1104 1507 l 2,106,107
 1105 1423 1105 1423 1176 1423 c 0,79,80
EndSplineSet
LCarets2: 3 0 0 0
Ligature2: "'liga' Standard Ligatures in Arabic lookup 9 subtable" uni0627 uniFEDF uniFEE0 uniFEEA
EndChar

StartChar: uniFDFC
Encoding: 65020 65020 361
Width: 3332
GlyphClass: 2
Flags: W
LayerCount: 2
Fore
SplineSet
2015 -89 m 1,0,1
 2103 -156 2103 -156 2116 -167 c 0,2,3
 2209 -247 2209 -247 2162 -310 c 1,4,5
 2096 -381 2096 -381 2023 -446 c 1,6,7
 1990 -410 1990 -410 1939 -363 c 128,-1,8
 1888 -316 1888 -316 1849 -286 c 1,9,10
 1953 -169 1953 -169 2015 -89 c 1,0,1
1713 -89 m 1,11,12
 1801 -156 1801 -156 1814 -167 c 0,13,14
 1907 -247 1907 -247 1860 -310 c 1,15,16
 1794 -381 1794 -381 1721 -446 c 1,17,18
 1688 -410 1688 -410 1637 -363 c 128,-1,19
 1586 -316 1586 -316 1547 -286 c 1,20,21
 1651 -169 1651 -169 1713 -89 c 1,11,12
2746 366 m 1,22,23
 2711 111 2711 111 2669 55.5 c 128,-1,24
 2627 0 2627 0 2464 0 c 0,25,26
 2229 0 2229 0 2111 0 c 0,27,28
 1853 0 1853 0 1718 187 c 0,29,30
 1648 284 1648 284 1622 545 c 0,31,32
 1574 1019 1574 1019 1553 1129 c 0,33,34
 1540 1192 1540 1192 1415 1175 c 1,35,36
 1442 976 1442 976 1447 937 c 0,37,38
 1524 409 1524 409 1528 104 c 0,39,40
 1530 -90 1530 -90 1428.5 -226.5 c 128,-1,41
 1327 -363 1327 -363 1172 -416 c 128,-1,42
 1017 -469 1017 -469 833 -488.5 c 128,-1,43
 649 -508 649 -508 488 -471 c 1,44,45
 269 -433 269 -433 173.5 -254 c 128,-1,46
 78 -75 78 -75 124 127 c 128,-1,47
 170 329 170 329 321 438 c 0,48,49
 539 596 539 596 865 555 c 1,50,-1
 796 221 l 1,51,52
 652 236 652 236 489.5 209 c 128,-1,53
 327 182 327 182 277 132 c 0,54,55
 231 90 231 90 267 24.5 c 128,-1,56
 303 -41 303 -41 403 -84 c 0,57,58
 609 -166 609 -166 899 -136 c 128,-1,59
 1189 -106 1189 -106 1367 7 c 1,60,-1
 1154 1120 l 1,61,-1
 1364 1443 l 1,62,-1
 1496 1452 l 2,63,64
 1599 1461 1599 1461 1679.5 1394 c 128,-1,65
 1760 1327 1760 1327 1772 1223 c 0,66,67
 1782 1141 1782 1141 1803 934.5 c 128,-1,68
 1824 728 1824 728 1838 620 c 0,69,70
 1856 477 1856 477 1920.5 421.5 c 128,-1,71
 1985 366 1985 366 2129 366 c 2,72,-1
 2564 366 l 1,73,74
 2533 465 2533 465 2435 546 c 1,75,-1
 2502 898 l 1,76,77
 2782 666 2782 666 2746 366 c 1,22,23
2279 -246 m 0,78,79
 2268 -236 2268 -236 2272 -225 c 128,-1,80
 2276 -214 2276 -214 2289 -216 c 0,81,82
 2467 -237 2467 -237 2722 -112 c 128,-1,83
 2977 13 2977 13 3071 180 c 1,84,85
 3044 225 3044 225 3012 263 c 128,-1,86
 2980 301 2980 301 2925.5 354.5 c 128,-1,87
 2871 408 2871 408 2854 426 c 1,88,-1
 2929 789 l 1,89,90
 3053 697 3053 697 3137.5 538.5 c 128,-1,91
 3222 380 3222 380 3222 248 c 0,92,93
 3222 58 3222 58 3156 -89 c 0,94,95
 3066 -289 3066 -289 2886.5 -420.5 c 128,-1,96
 2707 -552 2707 -552 2530 -450 c 0,97,98
 2463 -411 2463 -411 2279 -246 c 0,78,79
EndSplineSet
EndChar

StartChar: uniFE73
Encoding: 65139 65139 365
Width: 785
GlyphClass: 2
Flags: W
AnchorPoint: "Anchor-3" 377 -188 basechar 0
AnchorPoint: "Anchor-1" 369 1242 basechar 0
LayerCount: 2
Fore
SplineSet
309 464 m 2,0,1
 309 180 309 180 699 180 c 2,2,-1
 790 180 l 1,3,-1
 790 3 l 1,4,-1
 686 3 l 2,5,6
 101 3 101 3 101 444 c 2,7,-1
 101 481 l 1,8,-1
 309 481 l 1,9,-1
 309 464 l 2,0,1
EndSplineSet
EndChar

StartChar: uniFE8E
Encoding: 65166 65166 391
Width: 615
GlyphClass: 2
Flags: W
AnchorPoint: "Anchor-3" 217.329 -132.15 basechar 0
AnchorPoint: "Anchor-1" 122.329 1560 basechar 0
LayerCount: 2
Fore
SplineSet
586.329101562 366 m 2,0,-1
 619.329101562 366 l 2,1,2
 657.329101562 366 657.329101562 366 657.329101562 319 c 2,3,-1
 657.329101562 47 l 2,4,5
 657.329101562 0 657.329101562 0 619.329101562 0 c 2,6,-1
 568.329101562 0 l 2,7,8
 312.329101562 0 312.329101562 0 175.329101562 187 c 0,9,10
 149.329101562 222 149.329101562 222 131.329101562 271 c 0,11,12
 112.329101562 320 112.329101562 320 100.329101562 389 c 0,13,14
 89.3291015625 458 89.3291015625 458 83.3291015625 500 c 0,15,16
 78.3291015625 541 78.3291015625 541 71.3291015625 626 c 256,17,18
 64.3291015625 711 64.3291015625 711 62.3291015625 727 c 0,19,20
 22.3291015625 1131 22.3291015625 1131 13.3291015625 1202 c 1,21,-1
 204.329101562 1454 l 2,22,23
 213.329101562 1467 213.329101562 1467 228.329101562 1464 c 0,24,25
 247.329101562 1461 247.329101562 1461 248.329101562 1442 c 2,26,-1
 284.329101562 718 l 2,27,28
 294.329101562 518 294.329101562 518 359.329101562 440 c 0,29,30
 422.329101562 366 422.329101562 366 586.329101562 366 c 2,0,-1
EndSplineSet
EndChar

StartChar: uniFEA2
Encoding: 65186 65186 411
Width: 1318
GlyphClass: 2
Flags: W
AnchorPoint: "Anchor-3" 703 -907 basechar 0
AnchorPoint: "Anchor-1" 706 1176 basechar 0
LayerCount: 2
Fore
SplineSet
1180 366 m 2,0,-1
 1341 366 l 2,1,2
 1379 366 1379 366 1379 319 c 2,3,-1
 1379 47 l 2,4,5
 1379 0 1379 0 1341 0 c 2,6,-1
 1132 0 l 2,7,8
 860 0 860 0 794 365 c 1,9,10
 409 262 409 262 264 49 c 1,11,12
 272 -49 272 -49 301 -125 c 0,13,14
 325.291754757 -187.348837209 325.291754757 -187.348837209 390 -249 c 256,15,16
 515 -371 515 -371 801 -395 c 0,17,18
 869.825180267 -401.838598367 869.825180267 -401.838598367 970 -392 c 0,19,20
 1082 -382 1082 -382 1124 -378 c 0,21,22
 1166 -373 1166 -373 1276 -356 c 256,23,24
 1386 -339 1386 -339 1397 -337 c 0,25,26
 1410 -335 1410 -335 1414 -343.5 c 128,-1,27
 1418 -352 1418 -352 1411 -364 c 0,28,29
 1311 -521 1311 -521 1094 -618 c 0,30,31
 876 -716 876 -716 676 -710 c 0,32,33
 466 -705 466 -705 310 -588 c 0,34,35
 155 -471 155 -471 127 -274 c 0,36,37
 46 313 46 313 557 546 c 1,38,39
 196 689 196 689 91 470 c 0,40,41
 86 460 86 460 79 461 c 0,42,43
 73 462 73 462 73 471 c 0,44,45
 82 666 82 666 211 800 c 0,46,47
 339 933 339 933 523 886 c 0,48,49
 608 864 608 864 721 821 c 128,-1,50
 834 778 834 778 892 758 c 0,51,52
 951 738 951 738 1068 724 c 0,53,54
 1185 709 1185 709 1278 745 c 1,55,-1
 1119 423 l 1,56,57
 1079 422 1079 422 969 403 c 1,58,59
 1030 366 1030 366 1180 366 c 2,0,-1
EndSplineSet
EndChar

StartChar: uniFEA3
Encoding: 65187 65187 412
Width: 1417
GlyphClass: 2
Flags: W
AnchorPoint: "Anchor-3" 650 -217 basechar 0
AnchorPoint: "Anchor-1" 632 1206 basechar 0
LayerCount: 2
Fore
SplineSet
83 552 m 0,0,1
 78 546 78 546 72 548 c 256,2,3
 66 550 66 550 68 558 c 0,4,5
 105 735 105 735 260 839.5 c 128,-1,6
 415 944 415 944 588 864 c 0,7,8
 686 819 686 819 789 689.5 c 128,-1,9
 892 560 892 560 1007 457.5 c 128,-1,10
 1122 355 1122 355 1279 344 c 1,11,-1
 1382 346 l 1,12,-1
 1219 41 l 1,13,14
 1013 54 1013 54 885 111 c 1,15,16
 791 0 791 0 690 0 c 2,17,-1
 -16 0 l 2,18,19
 -52 0 -52 0 -52 47 c 2,20,-1
 -52 319 l 2,21,22
 -52 366 -52 366 -16 366 c 2,23,-1
 613 366 l 1,24,25
 538 474 538 474 506.5 512.5 c 128,-1,26
 475 551 475 551 397.5 596 c 128,-1,27
 320 641 320 641 226 635 c 0,28,29
 141 629 141 629 83 552 c 0,0,1
EndSplineSet
EndChar

StartChar: uniFEA4
Encoding: 65188 65188 413
Width: 1346
GlyphClass: 2
Flags: W
AnchorPoint: "Anchor-3" 566 -217 basechar 0
AnchorPoint: "Anchor-1" 635 1221 basechar 0
LayerCount: 2
Fore
SplineSet
870 408 m 1,0,1
 951 366 951 366 1090 366 c 2,2,-1
 1354 366 l 2,3,4
 1392 366 1392 366 1392 319 c 2,5,-1
 1392 47 l 2,6,7
 1392 0 1392 0 1354 0 c 2,8,-1
 1042 0 l 2,9,10
 808 0 808 0 741 233 c 1,11,12
 528 -1 528 -1 192 0 c 2,13,-1
 -19 1 l 2,14,15
 -55 1 -55 1 -55 48 c 2,16,-1
 -55 319 l 2,17,18
 -55 367 -55 367 -19 367 c 2,19,-1
 331 367 l 2,20,21
 569 367 569 367 783 547 c 1,22,23
 756 557 756 557 655 598 c 0,24,25
 554 640 554 640 496 656 c 0,26,27
 245 725 245 725 149 538 c 0,28,29
 144 529 144 529 137 530 c 0,30,31
 132 531 132 531 131 540 c 0,32,33
 140 735 140 735 269 868 c 0,34,35
 398 1002 398 1002 581 955 c 0,36,37
 668 932 668 932 779 888 c 0,38,39
 889 844 889 844 948 821 c 0,40,41
 1007 799 1007 799 1121.5 783.5 c 128,-1,42
 1236 768 1236 768 1331 803 c 1,43,-1
 1177 492 l 1,44,45
 1018 513 1018 513 938 506 c 0,46,47
 933 506 933 506 870 408 c 1,0,1
EndSplineSet
EndChar

StartChar: uniFEAA
Encoding: 65194 65194 419
Width: 1125
GlyphClass: 2
Flags: W
AnchorPoint: "Anchor-3" 467 -206 basechar 0
AnchorPoint: "Anchor-1" 624 1353 basechar 0
LayerCount: 2
Fore
SplineSet
633 366 m 1,0,1
 626 390 626 390 622 402 c 0,2,3
 617 419 617 419 569 587 c 0,4,5
 521 756 521 756 515 774 c 1,6,-1
 640 1125 l 1,7,8
 648 1102 648 1102 687 983 c 0,9,10
 717 895 717 895 760 746 c 0,11,12
 802 597 802 597 837 498 c 0,13,14
 884 366 884 366 1044 366 c 2,15,-1
 1138 366 l 2,16,17
 1176 366 1176 366 1176 319 c 2,18,-1
 1176 47 l 2,19,20
 1176 0 1176 0 1138 0 c 2,21,-1
 993 0 l 2,22,23
 873 0 873 0 813 31.5 c 128,-1,24
 753 63 753 63 707 161 c 1,25,26
 682 56 682 56 634 28 c 0,27,28
 587 0 587 0 459 0 c 2,29,-1
 166 0 l 2,30,31
 79 0 79 0 68 15 c 0,32,33
 59 27 59 27 78 118 c 2,34,-1
 129 366 l 1,35,-1
 552 366 l 1,36,-1
 633 366 l 1,0,1
EndSplineSet
PairPos2: "'kern' Horizontal Kerning in Arabic lookup 0 per glyph data 4" uniFB94 dx=-120 dy=0 dh=-120 dv=0 dx=0 dy=0 dh=0 dv=0
PairPos2: "'kern' Horizontal Kerning in Arabic lookup 0 per glyph data 4" uniFB90 dx=-120 dy=0 dh=-120 dv=0 dx=0 dy=0 dh=0 dv=0
PairPos2: "'kern' Horizontal Kerning in Arabic lookup 0 per glyph data 4" uni06AF dx=-120 dy=0 dh=-120 dv=0 dx=0 dy=0 dh=0 dv=0
PairPos2: "'kern' Horizontal Kerning in Arabic lookup 0 per glyph data 4" uni06A9 dx=-120 dy=0 dh=-120 dv=0 dx=0 dy=0 dh=0 dv=0
EndChar

StartChar: uniFEAE
Encoding: 65198 65198 423
Width: 957
GlyphClass: 2
Flags: W
AnchorPoint: "Anchor-3" 452 -721 basechar 0
AnchorPoint: "Anchor-1" 567 889.85 basechar 0
LayerCount: 2
Fore
SplineSet
957 366 m 2,0,1
 995 366 995 366 995 319 c 2,2,-1
 995 47 l 2,3,4
 995 0 995 0 957 0 c 2,5,-1
 757 0 l 2,6,7
 692 0 692 0 668 2 c 1,8,9
 655 -125 655 -125 607 -230 c 0,10,11
 517 -431 517 -431 337.5 -562.5 c 128,-1,12
 158 -694 158 -694 -20 -591 c 0,13,14
 -86 -553 -86 -553 -270 -387 c 0,15,16
 -281 -377 -281 -377 -277 -366 c 128,-1,17
 -273 -355 -273 -355 -260 -357 c 0,18,19
 -82 -378 -82 -378 173 -253 c 128,-1,20
 428 -128 428 -128 522 39 c 1,21,22
 495 84 495 84 463 122 c 128,-1,23
 431 160 431 160 376.5 213.5 c 128,-1,24
 322 267 322 267 305 285 c 1,25,-1
 380 648 l 1,26,27
 449 597 449 597 555 455 c 0,28,29
 597 399 597 399 630.5 383 c 128,-1,30
 664 367 664 367 753 367 c 2,31,-1
 957 366 l 2,0,1
EndSplineSet
PairPos2: "'kern' Horizontal Kerning in Arabic lookup 0 per glyph data 3" uni06C0 dx=-128 dy=0 dh=-128 dv=0 dx=0 dy=0 dh=0 dv=0
PairPos2: "'kern' Horizontal Kerning in Arabic lookup 0 per glyph data 3" uni0621 dx=-128 dy=0 dh=-128 dv=0 dx=0 dy=0 dh=0 dv=0
PairPos2: "'kern' Horizontal Kerning in Arabic lookup 0 per glyph data 2" uni0648 dx=-43 dy=0 dh=-43 dv=0 dx=0 dy=0 dh=0 dv=0
PairPos2: "'kern' Horizontal Kerning in Arabic lookup 0 per glyph data 0" uniFEEB dx=-128 dy=0 dh=-128 dv=0 dx=0 dy=0 dh=0 dv=0
PairPos2: "'kern' Horizontal Kerning in Arabic lookup 0 per glyph data 0" uniFEE7 dx=-128 dy=0 dh=-128 dv=0 dx=0 dy=0 dh=0 dv=0
PairPos2: "'kern' Horizontal Kerning in Arabic lookup 0 per glyph data 0" uniFEE3 dx=-128 dy=0 dh=-128 dv=0 dx=0 dy=0 dh=0 dv=0
PairPos2: "'kern' Horizontal Kerning in Arabic lookup 0 per glyph data 0" uniFEDF dx=-128 dy=0 dh=-128 dv=0 dx=0 dy=0 dh=0 dv=0
PairPos2: "'kern' Horizontal Kerning in Arabic lookup 0 per glyph data 0" uniFEDB dx=-213 dy=0 dh=-213 dv=0 dx=0 dy=0 dh=0 dv=0
PairPos2: "'kern' Horizontal Kerning in Arabic lookup 0 per glyph data 0" uniFED7 dx=-128 dy=0 dh=-128 dv=0 dx=0 dy=0 dh=0 dv=0
PairPos2: "'kern' Horizontal Kerning in Arabic lookup 0 per glyph data 0" uniFED3 dx=-128 dy=0 dh=-128 dv=0 dx=0 dy=0 dh=0 dv=0
PairPos2: "'kern' Horizontal Kerning in Arabic lookup 0 per glyph data 0" uniFECF dx=-128 dy=0 dh=-128 dv=0 dx=0 dy=0 dh=0 dv=0
PairPos2: "'kern' Horizontal Kerning in Arabic lookup 0 per glyph data 0" uniFECB dx=-128 dy=0 dh=-128 dv=0 dx=0 dy=0 dh=0 dv=0
PairPos2: "'kern' Horizontal Kerning in Arabic lookup 0 per glyph data 0" uniFEC7 dx=-128 dy=0 dh=-128 dv=0 dx=0 dy=0 dh=0 dv=0
PairPos2: "'kern' Horizontal Kerning in Arabic lookup 0 per glyph data 0" uniFEC3 dx=-128 dy=0 dh=-128 dv=0 dx=0 dy=0 dh=0 dv=0
PairPos2: "'kern' Horizontal Kerning in Arabic lookup 0 per glyph data 0" uniFEBF dx=-128 dy=0 dh=-128 dv=0 dx=0 dy=0 dh=0 dv=0
PairPos2: "'kern' Horizontal Kerning in Arabic lookup 0 per glyph data 0" uniFEBB dx=-128 dy=0 dh=-128 dv=0 dx=0 dy=0 dh=0 dv=0
PairPos2: "'kern' Horizontal Kerning in Arabic lookup 0 per glyph data 0" uniFEB7 dx=-128 dy=0 dh=-128 dv=0 dx=0 dy=0 dh=0 dv=0
PairPos2: "'kern' Horizontal Kerning in Arabic lookup 0 per glyph data 0" uniFEB3 dx=-128 dy=0 dh=-128 dv=0 dx=0 dy=0 dh=0 dv=0
PairPos2: "'kern' Horizontal Kerning in Arabic lookup 0 per glyph data 0" uniFEA7 dx=-128 dy=0 dh=-128 dv=0 dx=0 dy=0 dh=0 dv=0
PairPos2: "'kern' Horizontal Kerning in Arabic lookup 0 per glyph data 0" uniFEA3 dx=-128 dy=0 dh=-128 dv=0 dx=0 dy=0 dh=0 dv=0
PairPos2: "'kern' Horizontal Kerning in Arabic lookup 0 per glyph data 0" uniFE9F dx=-128 dy=0 dh=-128 dv=0 dx=0 dy=0 dh=0 dv=0
PairPos2: "'kern' Horizontal Kerning in Arabic lookup 0 per glyph data 0" uniFE9B dx=-128 dy=0 dh=-128 dv=0 dx=0 dy=0 dh=0 dv=0
PairPos2: "'kern' Horizontal Kerning in Arabic lookup 0 per glyph data 0" uniFE97 dx=-128 dy=0 dh=-128 dv=0 dx=0 dy=0 dh=0 dv=0
PairPos2: "'kern' Horizontal Kerning in Arabic lookup 0 per glyph data 0" uniFB94 dx=-235 dy=0 dh=-235 dv=0 dx=0 dy=0 dh=0 dv=0
PairPos2: "'kern' Horizontal Kerning in Arabic lookup 0 per glyph data 0" uniFB90 dx=-213 dy=0 dh=-213 dv=0 dx=0 dy=0 dh=0 dv=0
PairPos2: "'kern' Horizontal Kerning in Arabic lookup 0 per glyph data 0" uniFB8A dx=-43 dy=0 dh=-43 dv=0 dx=0 dy=0 dh=0 dv=0
PairPos2: "'kern' Horizontal Kerning in Arabic lookup 0 per glyph data 0" uniFB7C dx=-128 dy=0 dh=-128 dv=0 dx=0 dy=0 dh=0 dv=0
PairPos2: "'kern' Horizontal Kerning in Arabic lookup 0 per glyph data 0" uniFB58 dx=20 dy=0 dh=20 dv=0 dx=0 dy=0 dh=0 dv=0
PairPos2: "'kern' Horizontal Kerning in Arabic lookup 0 per glyph data 0" uniFB56 dx=-128 dy=0 dh=-128 dv=0 dx=0 dy=0 dh=0 dv=0
PairPos2: "'kern' Horizontal Kerning in Arabic lookup 0 per glyph data 0" uni06CC dx=-43 dy=0 dh=-43 dv=0 dx=0 dy=0 dh=0 dv=0
PairPos2: "'kern' Horizontal Kerning in Arabic lookup 0 per glyph data 0" uni06AF dx=-235 dy=0 dh=-235 dv=0 dx=0 dy=0 dh=0 dv=0
PairPos2: "'kern' Horizontal Kerning in Arabic lookup 0 per glyph data 0" uni06A9 dx=-213 dy=0 dh=-213 dv=0 dx=0 dy=0 dh=0 dv=0
PairPos2: "'kern' Horizontal Kerning in Arabic lookup 0 per glyph data 0" uni0698 dx=-43 dy=0 dh=-43 dv=0 dx=0 dy=0 dh=0 dv=0
PairPos2: "'kern' Horizontal Kerning in Arabic lookup 0 per glyph data 0" uni067E dx=-128 dy=0 dh=-128 dv=0 dx=0 dy=0 dh=0 dv=0
PairPos2: "'kern' Horizontal Kerning in Arabic lookup 0 per glyph data 0" uni0649 dx=-43 dy=0 dh=-43 dv=0 dx=0 dy=0 dh=0 dv=0
PairPos2: "'kern' Horizontal Kerning in Arabic lookup 0 per glyph data 0" uni0647 dx=-128 dy=0 dh=-128 dv=0 dx=0 dy=0 dh=0 dv=0
PairPos2: "'kern' Horizontal Kerning in Arabic lookup 0 per glyph data 0" uni0645 dx=-128 dy=0 dh=-128 dv=0 dx=0 dy=0 dh=0 dv=0
PairPos2: "'kern' Horizontal Kerning in Arabic lookup 0 per glyph data 0" uni0644 dx=-43 dy=0 dh=-43 dv=0 dx=0 dy=0 dh=0 dv=0
PairPos2: "'kern' Horizontal Kerning in Arabic lookup 0 per glyph data 0" uni0642 dx=-43 dy=0 dh=-43 dv=0 dx=0 dy=0 dh=0 dv=0
PairPos2: "'kern' Horizontal Kerning in Arabic lookup 0 per glyph data 0" uni0641 dx=-128 dy=0 dh=-128 dv=0 dx=0 dy=0 dh=0 dv=0
PairPos2: "'kern' Horizontal Kerning in Arabic lookup 0 per glyph data 0" uni0638 dx=-128 dy=0 dh=-128 dv=0 dx=0 dy=0 dh=0 dv=0
PairPos2: "'kern' Horizontal Kerning in Arabic lookup 0 per glyph data 0" uni0637 dx=-128 dy=0 dh=-128 dv=0 dx=0 dy=0 dh=0 dv=0
PairPos2: "'kern' Horizontal Kerning in Arabic lookup 0 per glyph data 0" uni0636 dx=-128 dy=0 dh=-128 dv=0 dx=0 dy=0 dh=0 dv=0
PairPos2: "'kern' Horizontal Kerning in Arabic lookup 0 per glyph data 0" uni0635 dx=-128 dy=0 dh=-128 dv=0 dx=0 dy=0 dh=0 dv=0
PairPos2: "'kern' Horizontal Kerning in Arabic lookup 0 per glyph data 0" uni0634 dx=-128 dy=0 dh=-128 dv=0 dx=0 dy=0 dh=0 dv=0
PairPos2: "'kern' Horizontal Kerning in Arabic lookup 0 per glyph data 0" uni0633 dx=-128 dy=0 dh=-128 dv=0 dx=0 dy=0 dh=0 dv=0
PairPos2: "'kern' Horizontal Kerning in Arabic lookup 0 per glyph data 0" uni0632 dx=-43 dy=0 dh=-43 dv=0 dx=0 dy=0 dh=0 dv=0
PairPos2: "'kern' Horizontal Kerning in Arabic lookup 0 per glyph data 0" uni0631 dx=-43 dy=0 dh=-43 dv=0 dx=0 dy=0 dh=0 dv=0
PairPos2: "'kern' Horizontal Kerning in Arabic lookup 0 per glyph data 0" uni0630 dx=-128 dy=0 dh=-128 dv=0 dx=0 dy=0 dh=0 dv=0
PairPos2: "'kern' Horizontal Kerning in Arabic lookup 0 per glyph data 0" uni062F dx=-128 dy=0 dh=-128 dv=0 dx=0 dy=0 dh=0 dv=0
PairPos2: "'kern' Horizontal Kerning in Arabic lookup 0 per glyph data 0" uni062B dx=-128 dy=0 dh=-128 dv=0 dx=0 dy=0 dh=0 dv=0
PairPos2: "'kern' Horizontal Kerning in Arabic lookup 0 per glyph data 0" uni062A dx=-128 dy=0 dh=-128 dv=0 dx=0 dy=0 dh=0 dv=0
PairPos2: "'kern' Horizontal Kerning in Arabic lookup 0 per glyph data 0" uni0629 dx=-128 dy=0 dh=-128 dv=0 dx=0 dy=0 dh=0 dv=0
PairPos2: "'kern' Horizontal Kerning in Arabic lookup 0 per glyph data 0" uni0628 dx=-128 dy=0 dh=-128 dv=0 dx=0 dy=0 dh=0 dv=0
PairPos2: "'kern' Horizontal Kerning in Arabic lookup 0 per glyph data 0" uni0627 dx=-150 dy=0 dh=-150 dv=0 dx=0 dy=0 dh=0 dv=0
PairPos2: "'kern' Horizontal Kerning in Arabic lookup 0 per glyph data 0" uni0622 dx=-150 dy=0 dh=-150 dv=0 dx=0 dy=0 dh=0 dv=0
EndChar

